<?xml version="1.0" standalone="no"?>
<!DOCTYPE svg PUBLIC "-//W3C//DTD SVG 1.1//EN" "http://www.w3.org/Graphics/SVG/1.1/DTD/svg11.dtd" >
<svg xmlns="http://www.w3.org/2000/svg">
<metadata></metadata>
<defs>
<font id="manusuploaded_file" horiz-adv-x="790" >
<font-face units-per-em="2048" ascent="1268" descent="-780" />
<missing-glyph horiz-adv-x="403" />
<glyph horiz-adv-x="0" />
<glyph unicode="&#xd;" horiz-adv-x="403" />
<glyph unicode=" "  horiz-adv-x="403" />
<glyph unicode="&#x09;" horiz-adv-x="403" />
<glyph unicode="&#xa0;" horiz-adv-x="403" />
<glyph unicode="!" horiz-adv-x="530" d="M96 66q6 6 9.5 12t5.5 12q4 6 1 7t-6 7q4 16 27 32t29 16q10 0 5 -3.5t5 -3.5q8 0 11 9.5t7 19.5q14 -6 34 -3t36 -1q4 -8 9 -13t7 -12q4 -6 8.5 -14t14.5 -12q0 -6 -5 -10.5t-9 -10.5q14 -31 4 -73q-6 -8 -15.5 -18.5t-15.5 -20.5q-12 -4 -26.5 -6.5t-26.5 -2.5 q-6 0 -20.5 9.5t-22.5 21.5q-14 12 -21.5 36t-17.5 24q-12 0 -16.5 -1t-10.5 -1zM197 510l174 651q14 0 20 10q2 2 -3 11.5t-1 17.5q41 80 68.5 141.5t79.5 135.5l14 -9q4 4 14 10.5t15 10.5q-2 6 2 14t10 17q10 -4 10 -9.5t4 -17.5q12 0 25 23q4 -6 10 -16.5t13 -21 t15.5 -17.5t20.5 -3v-65q0 -8 -10 -40t-24.5 -68t-28 -67.5t-19.5 -43.5q-49 -80 -88 -200t-80 -231q-18 -39 -43.5 -93t-48.5 -103q-6 0 -4 3t-10 3q-23 0 -33 -29.5t-14 -38.5q-10 12 -13 13l-14 -13v9.5t-12 3.5q-16 0 -17 -9q0 20 3.5 43t9.5 54q-23 -16 -28 -47 t-11 -47q0 6 -3 10t-3 8z" />
<glyph unicode="&#x22;" horiz-adv-x="565" d="M119 924v23.5t4 25.5q14 39 50 94t79 106.5t90 87t80 39.5h16q0 -8 3 -17t3 -19q0 -8 -7 -39t-15 -47q-6 -6 -12.5 -11.5t-12.5 -11.5t-4 -18.5t-4 -20.5q-14 -16 -37.5 -38.5t-40.5 -47.5q-16 -23 -40.5 -55.5t-41.5 -50.5q-14 -20 -22 -52t-4 -59q0 -4 -2 -4 q-2 -2 -8 -2t-4.5 -6t1.5 -10q-6 0 -7 5t-13 5q-14 0 -22.5 4t-20.5 24q-4 20 -6 51t-2 44zM303 856q0 8 12.5 46t28.5 65q8 16 20.5 32.5t24.5 34.5q6 10 12.5 26.5t12.5 24.5q6 6 14 14.5t14 14.5q4 4 18.5 10t24.5 15q8 8 24.5 23.5t36 31.5t41 28.5t40.5 12.5h30 q-14 -14 -7 -32t7 -38q0 -10 -6 -28.5t-2 -28.5q-39 -49 -81 -98t-74 -99q-14 -23 -32 -63.5t-40 -73.5q-10 0 -16 -6q-10 8 -25.5 23.5t-38.5 29.5q-2 0 -2 2v8q-4 6 -5 10.5t-11 4.5q-12 0 -9.5 -3t-3.5 -3q-6 6 -7 6t-1 10z" />
<glyph unicode="#" horiz-adv-x="1327" d="M82 367v18q6 0 10 6t14 6q12 0 13.5 13.5t3.5 13.5h20q8 8 -6 8q6 0 6 7t11 7q12 0 9 -5t7 -5q12 0 41 2t57 8q4 14 7.5 26.5t9.5 39.5q-14 6 -29.5 2t-26.5 -4h-28t-13.5 3t-15.5 10t-35 24q-16 10 -21 32.5t-24 38.5q4 10 15.5 20.5t19.5 23.5h10t10 4q12 4 7 18 q6 -6 17 -6h22q10 0 17 7t15 11q31 4 58.5 4t50.5 15q8 6 19.5 35.5t19.5 46.5q14 31 34.5 66.5t38.5 66.5q6 6 15.5 9t15.5 13q6 6 7 17.5t14 11.5q10 0 5 -3t-1 -9q8 6 15 14t13 14q6 -8 10.5 -16t4.5 -20q0 -10 -4 -20.5t-11 -22.5q-6 -6 0.5 -17.5t-0.5 -17.5 q-8 -20 -22 -44t-14 -36v-55q6 -6 6 -7.5t10 -1.5q8 0 35.5 8.5t50.5 12.5t49.5 8t52.5 4q29 78 45 150q12 8 18.5 27.5t16.5 33.5q6 6 21.5 8t7.5 15q8 -6 20.5 -6.5t22.5 -6.5q4 -8 6 -16t6 -16q4 -18 6 -48t2 -58t1 -47.5t8 -19.5q8 0 47 3.5t49 3.5q25 0 58.5 -1 t66.5 -7.5t63.5 -14.5t48.5 -18q8 -6 16.5 -23.5t22.5 -25.5h-16q-2 -8 -4 -17.5t10 -13.5q-23 -16 -33 -31.5t-30 -15.5h-83t-97.5 -2t-94.5 -6.5t-72 -12.5q-8 -27 -15 -56.5t-15 -62.5q10 -12 37.5 -15t50.5 -3q12 0 20.5 5t18.5 5q8 0 54 -4t77 -8q10 -4 22.5 -16.5 t12.5 -22.5q0 -8 -7.5 -17.5t-11.5 -17.5v-2q0 -2 1 -4t1 -4v-8h-22q-8 -10 -24.5 -21.5t-31.5 -19.5q-4 -6 -17 -6t-21 2l-3 -2q-2 -2 -2 -6q-25 -4 -48 -10.5t-46 -12.5q-23 -4 -50.5 -2t-57.5 2q-27 -51 -27 -77.5t-10 -86.5q-6 -33 -18.5 -86t-26.5 -82 q-8 -4 -15.5 -21.5t-5.5 -29.5q-4 4 -7 0t-3 -8q-6 0 -7 4t-7 8q-20 -10 -16.5 -33.5t-8.5 -33.5q4 8 5 17t-5 15q-18 41 -21 60.5t-6 40.5q-16 6 -16 34q0 14 -2 33t-2 29q0 16 2 19t2 34q0 49 5 69.5t14 69.5q-6 4 -3 6.5t-10 2.5q-8 0 -48 -5.5t-79 -7.5q-4 -4 -3 -6 t-9 -2q-12 0 -16 2t-15 2q-35 0 -43 -16.5t-12 -56.5q-8 0 -12 -7q-4 -31 -10.5 -62.5t-14.5 -49.5q-6 -6 -12 -13.5t-12 -19.5q-6 -14 -7.5 -33.5t-1.5 -34.5q-6 8 -3 16.5t-11 16.5q-6 27 -6 60.5v70.5v2l-4 6q4 27 7 54.5t3 56.5q-18 6 -42 6h-36q-10 0 -36.5 20.5 t-49.5 34.5q0 4 12 17q-8 4 -12 14t-10 19zM420 463l6 -6h76q8 0 25.5 6t25.5 6q10 0 30.5 3t34.5 7q6 23 15.5 46.5t7.5 31.5v25q-39 -6 -75 -15.5t-68 -15.5q-35 -4 -56.5 -12.5t-21.5 -63.5v-12z" />
<glyph unicode="$" horiz-adv-x="1032" d="M16 381q0 10 12.5 28.5t22.5 24.5q-8 -18 -13 -25.5t-7 -13.5t-2 -12v-21q0 -20 2 -27t7 -12.5t9 -10.5t12 -19l13 12h-2q-2 0 -3 1t-4 1l9 12q-4 8 -9.5 15.5t-5.5 17.5q0 6 6.5 17.5t12.5 21.5q14 -2 22 8.5t4 20.5l-10 -10q10 25 15.5 44t29.5 38q-2 -6 -6 -10.5 t2 -12.5q10 12 16.5 23.5t16.5 23.5q-4 -29 -7 -58.5t-9 -58.5q6 -6 7 -10t5 -10l10 10q6 -25 7 -54.5t5 -64.5l-4 -6q12 -8 22.5 -29.5t24.5 -39.5q8 -12 26.5 -13.5t31.5 -15.5q6 4 6 8t2 8q8 47 24.5 127t33 156t28.5 133t12 64q0 4 -20.5 32.5t-26.5 46.5 q-12 20 -29.5 65.5t-23.5 76.5q0 4 -7.5 14t-9.5 21q-8 25 -10 59.5t-2 42.5q0 33 5 48t24 44q2 6 4 19.5t10 21.5q8 14 25.5 34.5t35 36t29 27t17.5 11.5q8 0 8 -2.5t8 -2.5q6 0 9 1.5t9 15.5v-4q0 -2 11 -2q10 0 28.5 4t30.5 13t15.5 20.5t-13.5 25.5q6 -4 11.5 0t11.5 8 q12 43 24.5 95.5t26.5 95.5q8 23 25.5 53.5t35.5 61.5q4 8 21 8q8 0 16 -4t23 -4q-8 -35 13.5 -55.5t21.5 -37.5q0 -10 -3.5 -9t-3.5 -5q6 -31 -1 -57.5t-23 -77.5v-31q6 -4 6 -5t4 -5q6 -2 10 -2t11 -2q33 -20 62.5 -33.5t58 -29t54 -36t50.5 -57.5q6 -8 17 -20.5t16 -22.5 q4 -14 5 -33.5t4 -38t3 -34v-19.5q0 -14 -11.5 -42.5t-27.5 -28.5q-10 0 -38 6t-38 6q-12 0 -6 24q-16 6 -26.5 20.5t-24.5 29.5q6 6 13 10t7 12q0 14 -18.5 31.5t-42 33t-46 27t-28.5 15.5q-12 6 -23.5 6t-29.5 4l-121 -492q-4 -12 6 -24q27 -29 52.5 -57.5t52.5 -53.5 q12 -12 21 -32.5t22 -30.5q57 -76 76.5 -132.5t19.5 -107.5q0 -90 -47 -167t-160 -120q-18 -4 -50 -13t-44 -9h-45t-62 -2h-2l-6 -4q-6 -47 -11 -93.5t-11 -97.5q8 6 15 13.5t17 7.5q6 0 9.5 -3t9.5 -3q0 -4 -8.5 -16.5t-14.5 -20.5q-4 -12 1 -25.5t10 -28.5q-8 -23 -15 -67 q4 -8 10 -8q-6 -10 -13 -22.5t-13 -27.5q20 -20 0.5 -43.5t-37.5 -44.5q-6 6 -9 12.5t-3 10.5q-8 4 -13.5 3t-15.5 -1h-8l2 -4q-6 14 -11.5 28.5t-17.5 34.5q-8 -8 -8 -34q-6 31 -16.5 71.5t-10.5 50.5q0 2 2 21.5t3.5 46.5t5.5 55.5t8 51.5q0 -49 -7.5 -102.5t15.5 -76.5 q6 41 7 87t3 89l-2 3q-2 0 -6 -3q0 2 4 5q0 4 4 8q6 37 9.5 73.5t11.5 73.5l-8 6q-16 -35 -16.5 -75.5t-6.5 -79.5q-4 4 -8 2t-8 -2q4 41 11 81t13 81q-20 10 -42.5 18t-41.5 20q-4 4 -2 7.5t0 7.5q-35 35 -67.5 86t-59.5 82v21v22q-2 8 -10 18t-12 23q-2 4 -1 16t1 18 q0 16 -6.5 35t-6.5 27zM55 446l8 13l5 -2l-5 -13zM109 436l8 -2l6 21h-8zM109 500l28 20l6 -6l-28 -22zM121 469l6 -6l6 2l-8 8zM233 -449h7v-24h-7v24zM307 152q8 12 10 24.5t2 22.5q-6 -6 -9 -9.5t-3 -15.5v-22zM414 967q0 -10 10 -35t12 -43q14 53 26.5 102t26.5 94 q-35 -18 -55 -54t-20 -64zM432 125q14 6 35.5 6h28.5q8 0 21 7t22 12q2 2 2 6t8 4q12 0 6 -2t6 -2q2 0 14.5 15t24.5 32.5t22.5 33t10.5 19.5q8 23 8 39q0 27 -11.5 49.5t-27.5 45t-37.5 49t-44.5 65.5q-27 -88 -49 -189.5t-39 -189.5z" />
<glyph unicode="%" horiz-adv-x="1159" d="M100 924q0 45 39 124.5t91.5 156.5t107.5 134.5t88 57.5q12 0 10 -6.5t4 -10.5q12 10 13 23q2 -6 9 -14.5t17 -8.5t12.5 2t8.5 2v-51q-18 -16 -35 -24q6 -12 20.5 -33t26.5 -43.5t21.5 -44t9.5 -33.5q0 -10 -8.5 -41t-16.5 -53q-2 -2 -6 -2q-2 -2 -3 -2t-5 -4q0 14 -2 16 q-12 -8 -12.5 -31.5t-4.5 -31.5q-12 -12 -31.5 -32t-37.5 -40q-14 -12 -22.5 -30.5t-14.5 -33.5q-2 -8 -13.5 -20t-11.5 -23q-18 -6 -42.5 -20t-37.5 -14q-10 0 -14 -2.5t-16 -2.5h-33q-8 0 -20.5 12.5t-26.5 20.5q-8 -8 -6 -14v-14q-4 0 -12.5 10t-16.5 22.5t-14 24.5 t-6 20q0 14 -4.5 28.5t-4.5 25.5zM188 -57q0 2 2.5 7t6.5 5l4 4q4 23 6 51.5t10 55.5q35 117 85 227t104 221q25 55 71.5 139t85.5 160q20 45 46 95t53 102q31 51 81 112.5t74 116.5q2 8 14.5 12t18.5 11q10 16 24.5 35.5t22.5 39.5q8 -10 20.5 -15t18.5 -9q4 -4 10 -17.5 t12 -25.5q-4 -6 -4 -11.5t-2 -13.5l9 -6q0 -12 -3.5 -14t0.5 -8v-9q-14 -33 -30.5 -68.5t-36.5 -72.5q-14 -25 -30.5 -56.5t-31.5 -62.5q-29 -47 -64.5 -115.5t-74.5 -143.5t-77 -148.5t-64 -124.5q-4 -6 -1 -10.5t3 -8.5q-43 -51 -65.5 -120.5t-61.5 -124.5 q-8 -27 -19.5 -58t-27.5 -61q-2 -2 -8.5 -6t-10.5 -11q-4 -6 -6 -20t-4 -33.5t-2 -37v-25.5t-5 -12.5t1 -32.5q-14 -6 -32.5 -12.5t-33.5 -14.5q-2 20 -13 29.5t-24.5 15.5t-27.5 12t-23 23v35zM264 924h31q10 0 36.5 16t54.5 41t48.5 51.5t20.5 46.5v82h-25q-12 2 -12 -6 t-10 -8t-12.5 2t-8.5 6q10 6 10 13.5t9 15.5h-21q-25 -45 -55.5 -100.5t-46.5 -102.5q-2 -4 -10.5 -14.5t-8.5 -18.5v-24zM639 240q0 10 11.5 38.5t17.5 51.5q23 57 71.5 103t81.5 85q12 4 31.5 16.5t30.5 12.5q8 0 5 -2t7 -2t14 8t11 10q10 8 34 8q16 0 41 -24 q6 -6 9.5 -18.5t13.5 -12.5q12 0 17 3t14 -3q-6 -8 -8.5 -16.5t-8.5 -16.5q29 -23 49 -28q8 -20 22.5 -36t22.5 -36q8 -12 11.5 -39t3.5 -37q0 -37 -25.5 -83t-42.5 -81q-8 -14 -19.5 -21t-20.5 -12.5t-14 -10.5t-1 -19q-33 -25 -78 -52.5t-84 -27.5q-12 0 -29.5 -3 t-25.5 -3t-30.5 7t-37.5 17q-18 14 -36.5 32t-28.5 38q-14 35 -21.5 89t-7.5 65zM825 182q47 23 88 64t41 80v53q-8 -6 -29.5 -26.5t-44 -47t-39 -51.5t-16.5 -35v-37zM958 381l9 -2l8 14l-8 2z" />
<glyph unicode="&#x26;" horiz-adv-x="1361" d="M118 228.5q3 17.5 9 31.5t13 29.5t16 46.5q10 20 12 43.5t20 54.5q33 45 65 89t58 91q31 27 76 81.5t82 105.5q-4 14 -11 27.5t-9 27.5q2 -16 22 -29q4 8 3 16.5t-3 18.5q0 10 -14.5 53t-24.5 74q-18 45 -43 72l4 4q2 2 2 4t2 4q-4 25 -6 24t-6 9t-10 46t-21 138 q-4 20 25 57t47 64q4 6 17.5 10t23.5 4q8 2 35.5 -3t50.5 -9q6 -2 9 -7t11 -9q33 -2 91.5 -25.5t105.5 -77.5q10 -6 25.5 -25.5t31 -42t26.5 -45t13 -34.5q2 -10 -6 -51t-20 -60q-16 -35 -40 -55t-48 -45q-29 -35 -65 -72t-69 -94l226 -491l13 13t17 9q8 0 3 -7t4 -5 q6 0 21.5 10t32.5 20.5t32.5 19.5t21.5 11q10 0 0 -6t2 -4q10 0 41 26.5t41 28.5q10 0 5 -3t5 -3q4 2 20.5 13.5t38 27.5t45 33.5t38.5 32.5q4 6 16 9t25 11q14 10 24 29l8 18q6 -4 33 0q12 2 38 26.5t38 26.5q8 2 7 2t5 -4q-2 0 -16 -20v-2q51 27 108 43 q-20 -16 -46.5 -32.5t-49.5 -33.5q-20 -14 -37.5 -38.5t-38.5 -43.5q-20 -12 -40.5 -23t-34.5 -28q6 -8 9 -7l9 3q-59 -43 -130 -99.5t-116 -90.5l2 -4q0 -2 1 -2t1 -5q-29 -18 -60.5 -43.5t-61.5 -60.5q25 -39 50 -77t52 -70q6 -6 17.5 -13.5t17.5 -15.5q8 -12 4 -37 t14 -33q-16 -8 -34.5 -20.5t-30.5 -14.5q-8 0 -36 10.5t-48 26.5q-39 29 -74 69t-72 83q-14 -12 -42.5 -28.5t-53.5 -26.5q-6 0 -15.5 -11.5t-23.5 -21.5q-10 -12 -35.5 -17.5t-34.5 -7.5l-124 -16q-16 -2 -45 3t-58 16.5t-54.5 23.5t-37.5 20q-18 12 -51 47t-60 70 q-10 14 -16 47t-6 41q-6 37 -3 54.5zM123 246h8l4 14l-6 2zM315 150q2 -12 5.5 -20.5t7.5 -12.5q6 -2 13 -8.5t15 -10.5q37 -23 61.5 -12.5t45.5 6.5q8 -2 19.5 -3t21.5 -1q55 8 113 37t85 49l-167 365q12 10 12 20t-5 20.5t-11.5 20.5t-8.5 18q-14 -18 -29.5 -40.5 t-15.5 -36.5q-14 -8 -42.5 -60.5t-56.5 -116t-47.5 -124t-15.5 -90.5zM512 1172q2 -44 2 -54q2 -6 6 -25.5t11.5 -47t14.5 -56t11 -49.5q14 18 36.5 43t40 53.5t31 55t9.5 49.5q-2 27 -23.5 62.5t-64.5 49.5q-10 4 -24.5 6.5t-22.5 0.5q-10 0 -15.5 -5.5t-11.5 -5.5 q-2 -33 0 -77zM1020 377l27 18l6 -10l-31 -16z" />
<glyph unicode="'" horiz-adv-x="299" d="M96 743l6 35q20 41 38 85t36 89q0 8 -1 17.5t5 13.5q10 41 28.5 81t33.5 69q6 10 19 15t18 3q4 -14 16 -22.5t22 -10.5q0 -8 -3 -20.5t-1 -18.5q4 -16 12.5 -36.5t6.5 -28.5q0 -6 -5 -29.5t-14.5 -52.5t-19.5 -60.5t-23 -56.5q-12 -25 -31.5 -47.5t-33.5 -30.5 q-6 -14 -32 -21t-38 -5q-4 2 -17.5 14t-21.5 18z" />
<glyph unicode="(" horiz-adv-x="645" d="M29 188v30v38q-12 115 6 227.5t59 247.5q2 14 15.5 41t25.5 45q45 121 128 244t165 225q8 10 25.5 21.5t27.5 23.5q4 6 8.5 15.5t6.5 17.5q20 10 51 23.5t41 15.5q8 0 18.5 -5t20.5 -9v-33l-15 -2q-20 -35 -47.5 -58.5t-48.5 -66.5q0 -6 3 -6t5 -4q-16 -55 -49 -107 q-4 -10 -5 -28.5t-7 -36.5q-6 0 -23.5 -16.5t-5.5 -31.5q-6 -2 -11 -3t-7 -7q-8 -12 -13.5 -28.5t-7.5 -32.5q-18 -18 -25.5 -48t-19.5 -53q-72 -141 -112.5 -261t-47.5 -244q-2 -16 -2 -41v-48.5v-42v-24.5q10 -51 42 -103.5t80 -94.5t106.5 -69.5t120.5 -29.5 q-6 -2 -19.5 -18.5t-15.5 -26.5q-2 4 -15 12q-2 0 -2 -4l2 -8q-43 2 -84 -14q-2 -4 1.5 -11.5t3.5 -15.5q-4 6 -4.5 11t-10.5 3q-12 -2 -5 -4t-5 -4q-8 0 -14.5 13.5t-14.5 11.5q-10 -2 -12 -8.5t-14 -8.5t-44 17.5t-65 46t-58.5 48t-27.5 25.5q-16 8 -31.5 42t-31 75 t-26.5 78t-15 59z" />
<glyph unicode=")" horiz-adv-x="647" d="M57 -131q8 2 16.5 4t18.5 12q53 41 102.5 102.5t90.5 130t69.5 139.5t38.5 132q0 14 4 28.5t13 28.5q-4 10 -2 30t4 40.5t1 36.5t-12 27q16 6 10.5 29.5t-3.5 37.5h4q4 0 2 8l-31 172q0 8 -11.5 42t-17.5 55q-20 70 -53 150.5t-84 174.5q-8 12 -7 34t-3 44 q-2 8 -12.5 17.5t-14.5 23.5q-6 14 -14 38l-12 36q0 8 5 13l7 7q-2 6 -7 9.5t9 17.5q0 -8 10 -18.5t21 -16.5q4 8 0 29q10 -4 18 -10.5t16 -8.5q45 -20 80 -54t64 -75t51.5 -83t42.5 -81q12 -23 24.5 -56.5t23.5 -64t19.5 -55t10.5 -26.5q2 -14 -6 -27q12 -43 23.5 -95 t13.5 -99q6 -106 11 -183.5t-7 -161.5q-8 -33 -22.5 -75.5t-22.5 -81.5q-8 -35 -21.5 -67t-32.5 -75q0 -4 -28.5 -42.5t-63.5 -87t-69.5 -87.5t-51.5 -43q-14 -2 -14 -8l-22 -4q4 8 -5 16q-14 -6 -33.5 -16t-33.5 -16l2 2q0 2 1 4t1 4q-18 6 -36.5 14t-29.5 6q-8 -2 -10 -4 t-8 -4q-4 4 -1 12.5t-3 14.5l-8 -15q-2 6 -6.5 13.5t-8.5 5.5z" />
<glyph unicode="*" horiz-adv-x="673" d="M14 1190q6 4 15 8q0 10 12 21.5t18 25.5h46.5t44.5 2q4 -6 14 -7t18 -1h31q-2 16 -4 36.5l-4 41t-3 35t-1 18.5q0 33 9 64.5t40 50.5q8 6 11 12t7 12q6 -12 15.5 -29.5t11.5 -31.5q4 -33 4 -64.5t6 -70.5q2 0 2 -1t8 -1t24.5 18.5t29.5 36.5q12 12 28.5 32.5t32.5 39 t28.5 36t12.5 27.5h12t13 4q0 -20 6 -28.5t18 -28.5v-16q-10 0 -18 -9q-10 -27 -27.5 -48t-36 -41.5t-34 -41t-17.5 -39.5h-4q-2 0 -6 4q-4 -4 -3 -5t-3 -5v-6q4 -2 7 -2h11t29.5 -4t27.5 -4q10 0 38 4t36 4q6 0 44 -4t61 -6q4 -2 11 -6t13 -4q-4 -4 -6 -10.5t-8 -10.5 q0 -8 18 -10q-6 -6 -17 -10t-18 -13q-4 -6 -6 -12t-8 -10q-16 -4 -24.5 -14.5t-12.5 -20.5q-53 -8 -100 -19.5t-98 -11.5q-2 -2 -2 -18q0 -4 7 -25.5t13 -46t12.5 -46t6.5 -26.5q0 -6 -3.5 -15t-7.5 -21q-8 0 -20.5 4t-24.5 10q-2 -2 -2 -14q-10 14 -25.5 29.5t-23.5 33.5 q-14 31 -22.5 65.5t-20.5 69.5q-18 -16 -36.5 -37.5t-37.5 -40.5q-8 -10 -22.5 -24t-24.5 -14q-8 0 -17 10t-22 14q12 25 22.5 49.5t22.5 50.5q-39 6 -60.5 20.5t-43.5 41.5v2v8t-14 8q0 6 -1.5 12.5t-7.5 12.5z" />
<glyph unicode="+" horiz-adv-x="1155" d="M143 467q2 12 12.5 30.5t14.5 26.5q14 14 45 21q8 8 16 24q39 6 87.5 0t60.5 -6q8 0 21.5 4t25.5 13q4 37 4 76.5t8 78.5q8 31 17.5 82t33.5 76q12 16 26.5 20.5t27 7.5t17.5 8t3 27q2 -2 6 -2q2 -4 9 -4q-2 -16 2 -27.5t8 -21.5q4 6 5 11.5t7 11.5q0 -8 -3 -16.5 t-1 -16.5l14 10q6 -14 14.5 -35.5t8.5 -34.5q0 -4 -7.5 -37.5t-15.5 -76.5t-15 -83t-7 -59q0 -14 12 -20q20 -4 48 -6t59 -6q72 -14 145.5 -25.5t144.5 -17.5q2 -4 16.5 -12.5t28.5 -16.5q-14 -14 -28.5 -34.5t-30.5 -39.5q-4 -4 -12 -7t-15 -9v-2q0 -6 2 -8 q-18 -6 -47.5 -10.5t-55.5 -9.5t-47.5 -8t-25.5 -3q-6 0 -25.5 1t-43 1t-44 2t-22.5 2q-8 0 -29.5 -3t-46.5 -9q-8 -4 -8 -21l2 -227q-4 0 -16 -6t-10 -27q-14 4 -19 -14q-12 -2 -23.5 -5t-21.5 -3t-16 5t-15 5q-16 29 -23 64.5t-8 75.5t-1 79t-6 78q-4 -6 -19 -6 q-8 0 -10 -3t-12 -3q-47 0 -106.5 22.5t-98.5 83.5q-2 8 -2 18.5t-15 16.5z" />
<glyph unicode="," horiz-adv-x="364" d="M14 -209q0 2 10.5 17.5t23.5 33t27.5 35t18.5 27.5q39 68 50.5 115t25.5 85q2 4 7 7.5t11 15.5t5.5 23.5t-0.5 25.5q12 6 26 10t29 9q4 -4 3 -13.5t-1 -17.5q6 -4 3 -6t7 -2q12 0 8 3t6 3q16 0 27 -25q12 -23 16.5 -55.5t4.5 -40.5q0 -31 -18.5 -82t-35.5 -96 q-4 -14 -17 -26.5t-13 -33.5q-10 -4 -41 -15t-43 -46q0 14 -9 22q-20 -12 -22 -28v9t-12 3q-16 0 -27 -22q-6 4 -11 10t-18 6q-10 0 -14 -4t-6 -4q2 10 12 33q-8 14 -24 2q0 6 -4.5 9t-4.5 13z" />
<glyph unicode="-" horiz-adv-x="729" d="M115 489q6 6 12 15.5t6 21.5q18 2 28.5 15.5t26.5 21.5q10 -4 16.5 -12t18.5 -8q8 0 24.5 2t33.5 2q25 4 30.5 4t24.5 4q18 6 31.5 10t23.5 4q8 0 19.5 -1t23.5 -2t32.5 4t55.5 -3q27 -6 58.5 -15t56.5 -40q-12 -14 -4 -32t12 -36q-2 0 -4 5l-6 2q-6 -6 -10 -25.5 t-27 -19.5l-350 -33q-37 0 -52.5 6t-23.5 18.5t-18.5 34t-38.5 57.5z" />
<glyph unicode="." horiz-adv-x="288" d="M31 88q0 20 8 37q12 14 33.5 39.5t31.5 25.5t6 -3t9 -3q8 0 21.5 18.5t29.5 26.5q-4 -16 16.5 -30.5t34.5 -8.5q0 -14 -6 -18q14 -14 26.5 -29.5t12.5 -25.5q0 -12 -3 -20.5t-5 -16.5q-16 -14 -30.5 -35.5t-35.5 -36.5q-14 -8 -36.5 -13t-32.5 -5q-49 0 -64.5 33.5 t-15.5 64.5z" />
<glyph unicode="/" horiz-adv-x="712" d="M25 47q0 6 8 32.5t19 59.5t23.5 68t20.5 55q10 27 28.5 67t33.5 70q12 35 34.5 75t45.5 83q47 88 106 191.5t115 199.5q8 16 20.5 42t24.5 51.5t21.5 49t19.5 37.5q2 6 13 15.5t20 23.5q4 6 3 18.5t-3 16.5q10 12 11 23.5t5 23.5q6 8 12 18.5t19 10.5q10 0 21 -11.5 t20 -11.5q10 0 9 1t-1 8q0 -25 9 -56t9 -41t-9 -59t-24 -84q-31 -80 -70.5 -158t-78.5 -151q-31 -61 -80 -146.5t-88 -165.5q-23 -41 -44.5 -89t-45 -98t-43 -97t-35.5 -86q-4 -4 -1 -14.5t3 -20.5q0 -12 -3 -29.5t-3 -34.5h-4q-4 0 -8 7q-6 -10 -13.5 -18.5t-7.5 -20.5 q-6 4 -11 11t-13 15q-8 0 -9 -22q-6 6 -11 17t-17 11q-10 0 -7 0t3 -6q0 6 -8.5 10.5t-14.5 10.5q-2 20 -13 54t-11 44zM676 1174l6 -7l8 23h-8z" />
<glyph unicode="0" horiz-adv-x="720" d="M43 354q0 117 35 212.5t65 162.5q4 10 20.5 28.5t34 35t33 31t21.5 20.5q20 23 33.5 35t27 19t27.5 10t31 10q12 14 12 20l18 -14q27 8 37 28q20 -4 39 -27.5t25 -50.5q-27 -27 -25 -33.5t-2 -31.5q6 -6 29.5 -16.5t42.5 -16.5q10 -6 29.5 -21.5t40 -36t38 -43 t23.5 -40.5q6 -25 6 -27t-6 -14q6 -16 11 -46t5 -42q0 -61 -40 -149.5t-101 -169.5t-135 -138t-146 -57q-10 0 -38.5 13t-43.5 13q-12 0 -7 -3t-9 -3t-41 41t-53 64q-27 84 -32 132t-5 105zM205 315q0 -8 10 -52t23 -68q8 0 13 -5.5t17 -5.5q14 0 41 20.5t45 31.5 q16 10 19.5 30.5t13.5 26.5q47 43 78 112.5t31 110.5q0 104 -146 141q-16 -27 -41.5 -62.5t-48 -75.5t-36 -79t-5.5 -69q-14 -27 -14 -56z" />
<glyph unicode="1" horiz-adv-x="567" d="M37 715v30q23 8 27 38t20 51q10 14 28.5 20t34.5 14q14 12 15 23q35 27 113.5 66.5t160.5 39.5q10 0 35 -13t35 -23q14 -16 24.5 -40t20.5 -40l-197 -664q4 -10 14.5 -33.5t26.5 -33.5q-16 -16 -11 -38t1 -42q-6 -27 -37 -51.5t-37 -24.5q-14 0 -44.5 10t-47.5 10 q-10 10 -21.5 34t-25.5 49.5t-22.5 51t-8.5 41.5q0 37 15.5 94.5t40.5 104.5q0 8 -5.5 18.5t1.5 16.5q12 27 26 62.5t21 62.5q10 37 18 76t23 80q2 10 2 40q-39 -27 -47.5 -29.5t-23.5 -14t-32.5 -23.5t-48.5 -23l-49 -2q0 8 2 8.5t-10 6.5q0 10 -13.5 23.5z" />
<glyph unicode="2" horiz-adv-x="839" d="M27 72q4 0 4 -6q10 20 10 61t16 68q14 27 44 70.5t66 93t72.5 101.5t63.5 95q4 4 14.5 12t26.5 33q20 35 61 86t17 92q-70 -59 -100.5 -103t-75.5 -44q-20 0 -28.5 5t-11.5 15.5t-8 23.5t-20 25q-10 14 -10 56q-2 6 -7 13t-5 13q6 0 13 -3t13 -3q14 49 64.5 98.5 t81.5 75.5q14 10 28.5 33t44.5 23q14 0 35 -3.5t33 -3.5h20q31 -29 56.5 -23.5t46.5 -6.5q23 -18 55.5 -53t32.5 -62q-20 -61 -54 -136t-82 -154t-100.5 -153.5t-89.5 -136.5q-6 -16 -22.5 -41.5t-22.5 -42.5l10 -14q27 10 77 16.5t97.5 9.5t96.5 5t90 2q10 0 24.5 -4 t24.5 -4q10 -10 8 -19q10 -10 33 -18q14 -17 41 -33q-6 -10 -5 -22.5t-1 -22.5q-8 -10 -19.5 -20.5t-19.5 -22.5q-2 0 -16 -8q-88 -6 -177.5 -14.5t-171.5 -22.5q-37 -6 -99 -24.5t-79 -18.5q-10 0 -44 5t-58 7q-6 0 -13.5 7.5t-19.5 13.5q0 20 -16 37q-14 -6 0 -33 q-4 4 -4 17.5t-2.5 28.5t-8.5 24.5t-20 9.5t-10 0z" />
<glyph unicode="3" horiz-adv-x="632" d="M31 788q0 14 18.5 25.5t40.5 20.5q6 4 9 10t12 8q10 4 22 4t19 8q29 6 18 31h4q4 -2 6 -4q25 -10 51 12q-4 0 -4 2q-4 2 -4 4t-2 2q10 2 36 11.5t55.5 21.5t58 17.5t41.5 5.5q14 -2 16 -10.5t10 -14.5q37 -18 75 -21t71 -47q6 -6 12 -20t12 -25q4 -10 3 -26.5t-3 -30.5 q-4 -57 -36.5 -86t-75.5 -82q-33 -43 -87.5 -93t-115.5 -108q10 -23 29 -30q35 -20 72.5 -47t62.5 -64q6 -16 18 -45t20.5 -61.5t14.5 -63.5t4 -53q-4 -39 -28.5 -92t-62.5 -102.5t-89 -84t-105 -30.5q-14 2 -28.5 1t-22.5 7q-10 12 -29.5 23.5t-33.5 29.5q-4 6 -5 28.5 t-10 41.5q12 18 -3 34.5t-19 34.5q14 14 26.5 34l22.5 36q-4 -10 12 -37q8 18 11.5 34.5t11.5 33.5q4 -18 16 -34.5t27 -16.5l26 -3q10 -2 40 32t51 59q6 20 8 36q4 49 -35 85t-89 63t-92 44t-46 32q-2 23 -8.5 57.5t-4.5 48.5q2 37 37 70t70 69q63 72 137 148q-16 2 -45 -6 t-61.5 -20.5t-58 -21.5t-30.5 -9q-10 2 -23 13t-32 23q16 16 -2 44t-16 44z" />
<glyph unicode="4" horiz-adv-x="860" d="M31 430q0 27 13 76t28 76q43 98 95 183t109 204q6 2 10.5 5t16.5 3q14 0 12 -6t13 -6q14 0 17 3l9 9q-4 -8 10.5 -30.5t26.5 -22.5q14 0 11 2t-3 8q0 -6 5.5 -15.5t5.5 -17.5q0 -41 -22.5 -98.5t-53.5 -118.5t-59.5 -118.5t-41.5 -98.5l3 -10q41 8 85 18t80 17 q47 109 83 233.5t118 243.5q10 2 23.5 2h23.5q10 16 24.5 28.5t24.5 12.5q14 0 26.5 -20.5t18.5 -30.5q-6 -10 0 -21q4 -10 11 -10l10 -2q2 -4 -8 -21q8 -25 0 -61.5t-19 -61.5q-35 -68 -55 -140.5t-47 -145.5q20 -6 52 -3t63 1q10 -10 16 -15q14 -4 34.5 -5t41.5 -11 q-4 -8 -2 -18.5t-2 -16.5q4 -6 7 -8t9 -8q-10 -6 -18.5 -23.5t-24.5 -23.5q-57 -25 -118.5 -30t-114.5 -28q-6 -4 -16.5 -41t-18.5 -83t-15.5 -86t-7.5 -50t3 -37.5t7 -48.5q4 -16 13.5 -42.5t9.5 -37.5q0 -14 -8 -24.5t-15 -26.5q0 14 -14 27q-2 -2 -2 -12.5v-18.5 q-8 0 -9 5t-16 5q-10 0 -1.5 -6t-2.5 -6q-12 0 -29.5 13.5t-33.5 13.5q4 10 -1 25.5t-9 25.5q-2 6 -6.5 4t-6.5 6q-8 10 -8 21.5t-6 19.5q-10 29 -13 39t-5 14t0 7t2 20q0 10 -12.5 57t-6.5 84q0 14 4 27.5t0 29.5q-27 10 -57.5 -3t-56.5 -13q-14 0 -61.5 10.5t-80.5 26.5 q-18 8 -29.5 32.5t-17.5 43.5q-8 23 -14 56.5t-6 43.5z" />
<glyph unicode="5" horiz-adv-x="854" d="M33 434q0 2 8 25.5t21.5 54.5t27.5 61.5t31 57.5q27 53 74 127t94 139q12 18 36.5 42t41.5 40q14 12 36.5 11t32.5 24q16 -8 39 -24.5t39 -24.5q4 -2 5 -9.5t9 -13.5h418q8 -6 6 -12t-2 -14q6 -6 13.5 -7.5t7.5 -9.5q-31 -6 -41 -24q0 -10 26 -17q-18 -10 -34 -26v-5 q0 -2 1 -4t1 -6v-8q-29 0 -60 -10q14 -14 15 -17q-20 0 -50 -13t-43 -13q-10 0 -15 3t-17 3q-6 0 -30 -5t-48.5 -11.5t-47 -11.5t-28.5 -5t-30.5 -1t-54.5 -6t-62.5 -15.5t-53.5 -22.5q-35 -27 -48 -73t-40 -89q59 -16 114.5 -30.5t115.5 -40.5q6 -6 11 -22.5t11 -22.5 q31 -47 39 -78t8 -64v-25.5t-4 -46t-10 -53t-16 -45.5q-16 -27 -36 -62.5t-44.5 -67.5t-52 -52t-54.5 -20h-24.5t-28.5 -9q-16 25 -44 49.5t-24 49.5q-4 0 -4 4t-12 4q-14 0 -14 -2v-8q0 6 2 12t-4 14q27 2 39 46t22 65q6 0 10 -6.5t11 -14.5q61 53 97 124t30 132 q-10 6 -19.5 11.5t-23.5 5.5q-25 0 -54.5 -14.5t-61.5 -34t-57.5 -35t-39.5 -15.5q-12 0 -32 7.5t-36 7.5q-14 0 -25.5 28.5t-13.5 38.5q-8 10 -20 37q-4 2 -13.5 9.5t-15.5 13.5q0 4 -2 5t-2 15z" />
<glyph unicode="6" horiz-adv-x="724" d="M31 156v168q0 10 5 25.5t11 27.5q4 18 5 45t9 51q6 27 23.5 71t34.5 81q59 121 156.5 265t224.5 279q20 10 52 32t60 38q2 4 9.5 12.5t13.5 14.5q4 -16 2 -35t-2 -35l8 -8q0 -39 -2 -53.5t-9 -20.5t-17.5 -19.5t-22.5 -58.5q-57 -100 -119.5 -206.5t-120.5 -211.5 q16 -8 19.5 1.5t9.5 9.5q10 0 43 -14.5t45 -14.5q14 0 9 4t9 4q10 0 21.5 -10t24 -23.5t22.5 -25.5t12 -17q8 -6 24.5 -11t26.5 -11q27 -16 40.5 -41t21.5 -43q10 -30 10 -61q0 -45 -44 -121t-99 -119q-6 -4 -11.5 -20.5t-15.5 -26.5q-16 -18 -38.5 -32.5t-41.5 -29.5 q-31 -16 -79 -34.5t-60 -18.5h-47q-41 0 -90 28.5t-76 76.5q-6 -8 -6 -21q-14 27 -21.5 58.5t-29.5 50.5zM209 162q4 0 7 -2t7 -2l4 -2q39 10 82 19t72 34q25 16 50.5 41.5t46 47t33.5 41.5t13 26q0 23 -35.5 45t-52.5 22q-14 0 -44 -10t-54 -25q-31 -20 -57.5 -44.5 t-53.5 -43.5q-8 -6 -13 -17t-5 -22v-108z" />
<glyph unicode="7" horiz-adv-x="866" d="M20 319q4 6 12.5 6.5t18.5 4.5q10 12 20.5 19t16.5 20q84 10 160 21t141 7q4 0 11.5 9.5t7.5 17.5q6 35 24.5 88t26.5 94q8 20 -6 31q4 10 8 20.5t4 24.5q0 16 -3 41t-9.5 46.5t-20.5 37.5t-43 16q-8 0 -26.5 -3t-41 -7t-39 -6t-24.5 -2q-14 0 -19.5 2t-17.5 2 q-10 0 -37.5 -12.5t-38.5 -12.5h-34l-2 2q-8 8 -11 9v47q8 14 14.5 31.5t22.5 33.5q-10 10 -10 21q12 2 41 12t61.5 19.5t64.5 18.5t60 9q12 0 44 -4t57 -6q23 -8 47 -17.5t41 -27.5q82 -76 96 -143.5t14 -131.5q0 -68 -14 -131t-31 -120q41 -8 82 -7.5t84 1.5t88 -6t90 -38 q-6 -6 -13 -24.5t-24 -28.5q-37 8 -75.5 -18.5t-75.5 -30.5q-16 -8 -10 -14q-39 -10 -95.5 -23.5t-70.5 -13.5q-25 0 -41 6q-31 -88 -72 -192.5t-84 -202.5q-8 -14 -31.5 -45t-40.5 -45q-8 0 -8 5t-4 9q-14 -14 -22.5 -27.5t-22.5 -13.5q-12 0 -14 4t-15 4q-12 0 -15 5t-7 5 q0 39 -17.5 43t-17.5 13q0 4 10.5 36.5t23.5 78.5t30.5 94.5t27.5 85.5q4 20 17.5 44.5t31.5 61.5q-49 10 -116 0q-14 0 -28.5 -4t-27.5 -4q-10 0 -31.5 13t-33.5 24q0 12 -2 18q-16 18 -43 19q-8 16 -4 33.5t6 31.5q-2 8 -8.5 9t-6.5 7z" />
<glyph unicode="8" horiz-adv-x="768" d="M27 258q0 49 8 95t53 112q8 12 27.5 29.5t37 33t32 29.5t14.5 18v207q0 10 9 42t15 55q16 10 22.5 12t14.5 18q0 10 -4 15l-14 -11q8 6 4 17.5t10 11.5t12 -4t4 -4q0 8 -3 6t-3 12q0 8 26.5 39t45.5 49q23 18 58.5 26.5t66.5 23.5q8 -4 20.5 -17.5t22.5 -13.5q14 0 11 3 t9 3q14 0 30.5 -7t33.5 -16q14 -8 33 -18q74 -37 93 -91.5t19 -107.5q0 -78 -28.5 -166t-69.5 -151q-10 -18 -25.5 -51t-33.5 -56q-8 -10 -29 -22t-33 -12q-10 0 -30.5 17t-34.5 30q0 12 -11.5 28.5t-11.5 26.5q0 20 18.5 66.5t41 102.5t42 111.5t19.5 94.5q0 25 -8.5 54.5 t-40.5 29.5q-4 0 -17.5 -10.5t-30 -24.5t-28.5 -27.5t-12 -15.5q-29 -61 -36 -96t-7 -88q0 -63 16 -135t43 -136q8 -33 18.5 -77t17.5 -87t10 -74.5t3 -37.5q0 -16 -7 -46t-20.5 -61.5t-27.5 -58.5t-25 -41q-8 -6 -50 -20.5t-56 -14.5q-12 0 -32.5 3t-35.5 3 q-8 0 -27.5 14.5t-31.5 20.5q-45 27 -79 86t-42 102l-6 36t-5 48.5t-3 43t-2 24.5zM199 225q0 -45 14 -86t53 -47q-6 61 -15 127t-18 129q-27 -55 -30.5 -75.5t-3.5 -47.5zM215 770q2 16 5 30.5t1 24.5q-4 -10 -4 -24.5t-2 -30.5zM221 834l10 -7l11 33l-9 2z" />
<glyph unicode="9" horiz-adv-x="800" d="M20 371q0 45 16.5 90t43 87t59.5 85t64 80q-10 10 -15 10l-10 2q6 8 15.5 21.5t15.5 23.5q47 47 101.5 89t111.5 79q0 8 5 11t5 9q0 -10 6 -16q6 4 11.5 17.5t13.5 23.5q68 -14 100 -10q27 -20 39 -32.5t37 -4.5q0 -18 3 -31.5t-1 -30.5q6 -6 13.5 -10t21.5 -4 q2 0 16.5 9.5t-6.5 15.5q6 4 17.5 0t19.5 -6q2 -10 14.5 -20.5t18.5 -20.5q4 -6 11 -18.5t7 -26.5q0 -12 -9 -30t-15 -28q-31 -43 -54.5 -97t-40.5 -112q-14 -51 -29.5 -119.5t-17.5 -107.5q-29 -111 -53.5 -243t-44.5 -257q-6 -23 3 -53.5t7 -56.5q-4 -27 -9 -55.5 t-7 -59.5q-14 -10 -32.5 -22.5t-29.5 -12.5q-14 0 -34.5 5t-36.5 16q-10 6 -15.5 25.5t-17.5 19.5q-14 0 -9 -4t5 -11q-27 16 -30 57.5t-3 71.5l135 682v52l-14 10q-16 -14 -33.5 -35.5t-34.5 -42.5q-4 -4 -2 -14.5t-2 -20.5q-47 -43 -97 -87t-101 -54q-6 -4 -1 -7t5 -9 q-39 2 -55.5 11t-23.5 17t-10.5 14.5t-9.5 6.5q-14 0 -11 -1t-3 -1q-10 27 -16.5 70.5t-6.5 60.5zM74 573l47 78l10 -6l-51 -76zM131 668l25 30l10 -6l-25 -30zM205 432q45 37 90 83t82 79q18 14 39.5 35.5t44 48.5t39 56.5t20.5 56.5q-41 -25 -85 -65t-86 -89t-79 -101.5 t-65 -103.5z" />
<glyph unicode=":" horiz-adv-x="395" d="M90 195q4 6 8 15t11 13q16 16 47.5 32.5t44.5 16.5q12 0 37.5 -26.5t42.5 -36.5q10 -8 15 -30t5 -38q0 -12 -1 -32.5t-7 -32.5q-10 -16 -25.5 -25.5t-29.5 -9.5q-35 0 -57.5 16.5t-37 40t-26 50t-27.5 47.5zM135 770q18 -6 30.5 9.5t12.5 23.5q6 0 6 -1t15 -1 q10 0 24.5 13t28.5 13q10 0 17 -7t16 -9q12 -27 34 -45q20 -12 22.5 -39t2.5 -41q0 -6 2 -6t2 -14q0 -20 -25.5 -43t-41.5 -23q-10 0 -33 6t-39 6q-6 6 -16.5 19.5t-20.5 28t-13 31t3 26.5q-6 12 -23 18v13.5t-4 21.5z" />
<glyph unicode=";" horiz-adv-x="352" d="M16 -170q0 2 9.5 16.5t23.5 33t27.5 35.5t19.5 28q23 43 34 68.5t16.5 47t11.5 41t14 43.5q0 4 6 8.5t12 12.5q6 14 4.5 25.5t-1.5 25.5q12 4 27.5 9t27.5 9q6 -4 5 -13t-1 -17q4 -4 2 -6t8 -2q12 0 7 3t7 3q16 0 27 -25q12 -23 16.5 -55.5t4.5 -44.5q0 -31 -18.5 -82 t-35.5 -92q-6 -14 -18 -26.5t-12 -33.5q-10 -4 -41 -15t-45 -46q0 14 -9 22q-18 -12 -20 -28v9t-12 3q-16 0 -27 -23q-6 4 -11 10.5t-18 6.5q-10 0 -14 -4t-10 -4l16 32q-10 10 -24 2q0 6 -4.5 9.5t-4.5 13.5zM160 668v67q14 0 29.5 2t37.5 15h25q-4 -8 2 -22.5t16 -14.5 q12 0 9 5t4 5q4 -8 11 -13t13 -16q4 -16 7 -39.5t3 -33.5t-1 -27.5t-7 -26.5q-6 -4 -16 -16t-23 -12l-8 8q-6 4 -7 0t-11 -4q-8 0 -18.5 7t-20.5 13q-4 0 -10.5 9.5t-14.5 17.5q0 6 5 11t12 11q-12 18 -25 15l8 14q-6 8 -10 12t-10 13z" />
<glyph unicode="&#x3c;" horiz-adv-x="655" d="M55 414q0 8 8.5 25.5t20.5 27.5q2 6 1 17.5t3 17.5q18 20 42 45.5t50 46.5q4 4 15.5 9t21.5 13q12 12 27.5 23.5t25.5 19.5q29 20 68 46t53.5 49.5t40 39t31.5 15.5q8 0 7 -2t7 -2t38 16.5t56 22.5q6 -6 8.5 -14.5t12.5 -12.5q6 -4 14 -10t19 -12q2 -10 -4 -35 q0 -10 12 -9t2 -24q0 -4 -6 -11t-13 -14q0 -6 -13 -12t-19 -12q-12 -10 -30.5 -23.5t-31.5 -21.5q-68 -53 -111.5 -96t-107.5 -93q-8 -4 -23.5 -19t-25.5 -26q43 -33 73.5 -66.5t61.5 -60.5q23 -10 36 -24.5t46 -30.5q10 -6 29.5 -18.5t38.5 -22.5l11 -13t24.5 -27.5 t20.5 -31t7 -22.5q0 -8 -5 -11t-7 -8q-4 -8 2 -15t4 -15q-6 -6 -12 -16.5t-17 -10.5q-10 0 -15 -1t-15 -1t-43 13.5t-62 23.5l-14 14q-18 27 -83 70t-116 86q-4 8 -12 16q-27 12 -57.5 50t-53.5 65q-12 16 -26.5 34.5t-14.5 37.5z" />
<glyph unicode="=" horiz-adv-x="892" d="M20 332q0 8 6.5 12t10.5 8t2 11.5t-12 19.5q14 18 31.5 38.5t29.5 20.5q10 0 5 -3t5 -3q8 0 31 11.5t39 17.5q6 0 -8 -14q6 -6 4 -7.5t10 -1.5q10 0 22.5 8.5t24.5 8.5q10 0 22.5 -6.5t20.5 -6.5q6 0 23.5 2.5t39 5.5t39 4t23.5 1q2 0 23.5 -3t46 -6.5l52.5 -7.5t50 -6 q12 -2 38 -8t51.5 -11t47 -10.5t25.5 -5.5h20l-4 5q-2 4 -7 4t-11 2l-2 2q-4 0 -5 2t-5 2q20 8 39.5 -17.5t42.5 -25.5q-6 0 -13.5 -4t-15.5 -9q0 -6 3 -11t9 -5q-10 -4 -11 -11t5 -11q-14 -6 -30.5 -18.5t-37.5 -18.5q-4 -2 -7 -8.5t-5 -10.5q-14 0 -38.5 -3t-37.5 -3h-331 q-10 0 -10.5 -3t-6.5 -5q-14 0 -35.5 -3t-44 -5t-40 -4t-21.5 -2q-10 0 -28.5 10t-35 25.5t-28 29.5t-11.5 27zM59 668q8 10 9 18q12 -4 20 2t15.5 14.5t13.5 14.5t18 6q8 0 12.5 -2t12.5 -8q6 6 10 11t14 5q8 0 22.5 -5t24.5 -9q14 -2 24.5 1t23.5 3q6 0 38.5 1t72.5 1 t74 1t38 1q16 0 77.5 -2t126 -10.5t115.5 -25.5t51 -44q0 -10 -9 -25.5t-15 -23.5q-8 -4 -18.5 -9t-20.5 -5t-32.5 1t-47.5 -4q6 -6 11 -6t12 -6h-111.5t-97.5 -4q-29 -4 -72 -9t-55 -5h-21.5t-25.5 -4q-57 -12 -112.5 -10.5t-94.5 1.5q-8 0 -33 14.5t-47 22.5q2 2 4 9.5 t-4 13.5l6 4q0 12 -10 31.5t-19 40.5zM684 426l6 4l15 -12l-7 -6zM842 616l8 -8l6 6l-8 9z" />
<glyph unicode="&#x3e;" horiz-adv-x="604" d="M16 74q0 8 17.5 36.5t25.5 45.5q27 31 78 60.5t76 49.5q45 31 88 61.5t78 69.5q8 8 2 11.5t-23 29.5q-47 59 -121.5 138t-154.5 159q-8 14 -18.5 37t-10.5 35v19.5t43 47.5q10 -4 35 3.5t35 7.5q4 -6 10 -13q16 -16 33 -16q49 -49 100 -99t97 -104l8 -18 q86 -84 128 -144.5t42 -132.5q0 -8 -4.5 -25.5t-16.5 -23.5q-59 -49 -124.5 -97t-127.5 -91l-194 -131q-4 4 -4 7t-13 3q-8 0 -11 -3t-7 -3v6q0 4 2 8l-6 6q-6 -6 -10.5 -8t-8.5 -6q-8 2 -11 15.5t-13 13.5t-9 -2t-3 -2q0 6 1 13t7 19q-4 6 -9.5 6t-5.5 11z" />
<glyph unicode="?" horiz-adv-x="839" d="M137 80v78q8 6 22.5 2t24.5 -4q8 0 35 19.5t37 19.5q12 0 16 -6.5t11 -8.5q4 -6 6 -18t6 -27q6 -4 11 -6t9 -4l5.5 -16.5t3.5 -22.5q0 -31 -15.5 -71t-60.5 -40q-8 0 -25.5 6.5t-29.5 18.5q-4 6 -10.5 18.5t-14.5 12.5q-10 0 -14 -1t0 -1l12 10q-8 20 -29 41zM137 578 q0 31 38 86t82 109t83 95t43 47q10 12 23.5 22.5t19.5 23.5q10 12 22.5 34.5t28.5 38.5q6 6 20.5 15.5t18.5 17.5q14 14 21.5 34.5t17.5 37.5l4 6v12q0 18 -22.5 36.5t-28.5 18.5q-66 0 -143 -36q-18 -8 -40 -27t-42 -14q-6 -6 -3 -14.5t3 -2.5q-4 0 -4 -4v-8q-8 6 -20.5 9 t-18.5 -3l-13 10q-6 -10 -28 -10l-11 14q-4 4 4.5 11.5t14.5 15.5q-2 8 -5 16.5t-3 20.5q0 16 24.5 35.5t56 39t58.5 33t33 13.5q18 6 45.5 11t52.5 9t44 7t26 3q16 0 40.5 -7t52 -19t51.5 -27.5t32 -32.5q6 -10 16 -48.5t10 -61.5q0 -63 -27.5 -121.5t-70.5 -116t-94 -115 t-98 -116.5q-37 -47 -75 -82t-65 -98q14 -8 25.5 -15.5t19.5 -13.5q0 -10 8.5 -25.5t8.5 -25.5q0 -12 -3 -14.5t-3 -6.5q0 -2 -1 -6t-1 -10q-14 -8 -34 -25.5t-28 -17.5h-27q-6 0 -18 6t-27.5 16.5t-29 22.5t-19.5 20q-16 37 -30.5 88.5t-14.5 88.5zM238 1090v8h18v-8h-18z " />
<glyph unicode="@" horiz-adv-x="1306" d="M59 123q0 4 4.5 24.5t8.5 45t8 52t4 44.5q0 8 10 19t12 26q10 31 37 80t52 73q2 6 0 9.5t-2 5.5q82 96 175 194.5t195 159.5q12 8 29.5 13t36.5 18q6 2 8 14t14 12q10 0 5 -2t6 -2q8 0 14 9.5t6 15.5q12 0 18.5 -2t16.5 -2q12 0 32.5 11t30.5 11q12 0 45 -13t43 -13 q14 0 15 12q25 -8 47 -8q12 0 16 4t-2 10q78 -39 154 -107.5t108 -144.5q8 -16 16.5 -40.5t15.5 -51.5t11 -47.5t4 -26.5q0 -8 -11 -32.5t-15 -47.5q-6 -16 -9.5 -38.5t-11.5 -42.5q-23 -45 -47 -95.5t-55 -99.5v-16q-18 -37 -68.5 -74t-77.5 -51q-6 -2 -9 -7.5t-5 -9.5 q-23 -6 -57.5 -10t-42.5 -4q-18 0 -33.5 13.5t-40.5 23.5q-33 16 -51.5 39.5t-27.5 51.5t-15 55.5t-8 51.5q-14 -8 -21.5 -25.5t-11.5 -21.5q-20 -18 -50 -45.5t-57 -42.5q0 -6 2 -8t2 -8q-4 0 -10 4t-18 4q-10 0 -10 -3t-7 -5q-16 18 -51 47v-16q-12 25 -24.5 57.5 t-12.5 44.5q0 43 18.5 70.5t26.5 64.5q20 14 56.5 52t62.5 69q10 14 25.5 29.5l29.5 29.5q16 16 55.5 37t57.5 51l6 -6h11q8 0 26.5 11.5t28.5 11.5q12 0 20 -3t17 -3q-6 -8 -15.5 -15.5t-19.5 -11.5q18 -8 36.5 -16t30.5 -8q10 0 14.5 1t10.5 1q-2 -10 2 -21.5t6 -19.5 q0 -6 3 -15.5t3 -21.5q0 -25 -6 -48.5t-18 -58.5q-12 -29 -24.5 -57.5t-22.5 -58.5q-4 -8 -2 -19.5t2 -21.5v-42t28 -28q6 0 34 12.5t36 28.5q-2 6 6 16q23 12 44.5 45t40 73t29.5 82t11 75q0 47 -8 55t-21 39q-2 8 5.5 19.5t3.5 19.5t-13.5 14t-13.5 19q-4 4 -4 10t-2 12 q-8 10 -13.5 22.5t-17.5 24.5q-6 2 -16.5 10.5t-25.5 16.5t-27.5 13t-20.5 5q-12 0 -20.5 -4t-16.5 -4q-72 0 -142.5 -41t-109.5 -88q-4 -6 -17.5 -10t-17.5 -8q-23 -23 -47 -53.5t-47 -61.5q-12 -10 -29.5 -26.5t-31.5 -30.5q-10 -14 -25.5 -34t-30.5 -44q-10 -16 -21 -37 t-28 -43q-6 -10 -11 -29.5t-3 -34.5q-6 -20 -11 -22t1 -23q-4 0 -9.5 -5t-7.5 -11q-4 -14 -9 -33.5t-5 -30.5q0 -55 43 -132.5t115 -127.5q2 -2 16 -5t23 -9q20 -10 46.5 -26.5t49.5 -28.5q27 -12 65.5 -23.5t51.5 -11.5q8 0 36.5 -4t38.5 -4q8 0 27.5 -2t36.5 -6 q-12 -12 -24.5 -30t-32.5 -18h-50q0 -6 -7 -11t14 -9q-6 0 -14.5 -5t-16.5 -5q-6 0 -18.5 1t-20.5 1q-6 0 -7 -2t-7 -6q-18 -2 -48 -7.5t-38 -5.5q-10 0 -36 5.5t-36 5.5q-8 0 -35 16t-35 16q-10 0 -10 -5t-6 -5q0 8 -10 12q-4 4 -14.5 5.5t-18.5 7.5q-61 47 -105.5 81.5 t-89.5 98.5q-16 20 -30.5 55t-24.5 73t-17.5 71.5t-7.5 56.5z" />
<glyph unicode="A" horiz-adv-x="929" d="M2 496q0 8 11.5 18t15.5 16q10 -10 22 -10q10 0 41 9.5t51 19.5q29 2 51.5 4t51.5 12q66 139 129 290t129 278q27 59 94 184q16 27 44 60.5t50 74.5q8 12 10.5 33.5t2.5 38.5l2 2q6 6 10 6q10 0 17 -3t18 -3q6 0 11 -2t11 2q2 -4 5 -10.5t14 -6.5q10 0 5 2t5 2 q8 0 26.5 -18t22.5 -37q8 -18 10 -41.5t4 -46t2 -40v-23.5t-3 -28t-5 -36q-4 -16 0 -33.5t2 -38.5q-10 -86 -20.5 -172t-14.5 -172q-2 -16 -6 -44.5t-9 -61.5t-9 -65.5t-8 -63.5q6 -4 22 -4q43 -6 84 -8t84 -2q0 -4 2 -9.5t8 -5.5l-10 -12q2 -10 10.5 -18.5t18.5 -14.5 q-31 -12 -79 -26.5t-91 -26.5q-6 -2 -19.5 -4t-29.5 -4q-6 -12 -10.5 -29.5t-8.5 -32.5q-6 -10 -3 -19t7 -22q-4 -6 -7 -6t-5 -4q-3 -33 -3 -71q0 -19 1 -41v-17q0 -53 -10 -100q-6 -31 -5 -55.5t2 -48t-3.5 -49t-20.5 -58.5q-4 -10 -6 -24.5t-2 -24.5q-4 0 -6 -3.5t-8 -3.5 q-14 -4 -19 -16q-8 8 -26.5 14.5t-32.5 14.5q-20 29 -26.5 55.5t-6.5 55t3 58t3 58.5q-4 18 -1 37.5t3 38.5l4 266h-76q-12 0 -44.5 -8t-67.5 -18.5t-64.5 -18.5t-33.5 -12q-23 -43 -43.5 -93.5t-53.5 -105.5l-13 -13t-13 -22q-12 -25 -21.5 -50.5t-15.5 -51.5q-6 0 -6 5 t-4 9q-10 -12 -11 -31q-4 0 -7 -2t-7 5l-10 -11q-4 8 -16.5 11.5t-22.5 11.5q-12 6 -17.5 23.5t-5.5 27.5q0 14 13.5 57t31.5 88q18 51 47 113q-23 16 -51 32.5t-47 31.5q-4 6 -11 19t-15.5 26.5t-14.5 26t-6 16.5zM430 586q39 0 79 -8q16 -3 35 -4q29 0 66 8l35 452 q-66 -102 -116 -225t-99 -223z" />
<glyph unicode="B" horiz-adv-x="714" d="M4 270q0 2 3 21.5t6 47.5t8.5 55.5t11.5 49.5q25 119 49 242t49 244q4 20 11.5 54t14.5 72t17 79t19 73q-6 10 0 21q2 12 8 30.5t12 36t11 30.5t5 17q0 8 -15 28t-15 30q0 8 13 21.5t26 23.5q8 4 16 3t14 3q51 35 106.5 45t102.5 10q6 0 39 -3t51 -5h6l13 4q0 -2 8 -12 q20 -8 45 -16.5t33 -8.5t6 3.5t-2 7.5q12 -18 32.5 -22.5t36.5 -14.5q31 -14 62 -43q2 -6 8 -15.5t10 -17.5q8 -12 15.5 -36t7.5 -34q0 -8 -11.5 -30.5t-11.5 -26.5q-18 -68 -64 -117t-85 -90q-14 -14 -40 -37.5t-56.5 -51.5t-65.5 -54.5t-63 -50.5l-19 -10 q-18 -11 -40.5 -25.5t-40 -31.5t-17.5 -32q0 -4 19.5 -24.5t48 -48t59.5 -58.5t51 -55q29 -37 39 -64.5t18 -60.5q6 -20 7.5 -49t1.5 -37t-1.5 -32.5t-7.5 -41.5q-4 -25 -12 -54.5t-20 -53.5q-23 -43 -56 -88q-4 -10 -19.5 -25.5t-27.5 -28.5q-8 -8 -26.5 -19t-37 -21.5 t-33.5 -16.5t-18 -6q-8 0 -17 -5t-17 -5q-10 0 -28.5 8t-27.5 8q-10 0 -9 -3t-9 -3t-7 5t-3 7q-25 6 -45.5 24.5t-37 43t-28.5 51.5t-18 49q-8 6 -21.5 16.5t-27.5 22.5q-8 23 -13.5 55.5t-5.5 42.5zM147 268q8 6 14.5 12.5t14.5 12.5q0 -8 -2 -11t0 -10q10 6 16.5 6.5 t10.5 4.5q0 -29 3 -58.5t3 -60.5q12 12 16 8q-13 -33 -13 -58q0 -6 1 -12q18 8 38.5 14.5t35.5 20.5q14 12 29.5 28.5t31.5 27.5q2 2 2 5t4 9q14 23 27.5 39t21.5 41q12 33 16.5 81t4.5 58q0 76 -39 128t-133 130q-12 -53 -24.5 -100t-24.5 -97q-4 -29 -16.5 -73.5 t-24.5 -83.5q-2 -6 -5 -6t-8 -5v-51zM326 1015v-8q0 -16 6 -24q4 16 22.5 25.5t22.5 11.5q41 39 79 77t74 81q6 4 6.5 13t2.5 11q10 10 22 20.5t19 18.5q25 27 48.5 58.5t35.5 60.5q-12 4 -26.5 8t-23.5 4q-10 0 -9 -5t-7 -5t-15.5 2t-15.5 2q-43 0 -79.5 -12.5t-86.5 -24.5 q-16 -4 -28.5 -15t-20.5 -11q-6 -63 -11 -128t-9 -126q-4 -12 -6 -34z" />
<glyph unicode="C" horiz-adv-x="761" d="M8 440q0 41 8.5 93.5t20.5 105.5t29.5 107.5t33.5 99.5q6 18 26.5 53t33.5 62q6 12 12 29.5t10 29.5q25 45 63 103.5t82 114.5t87 102t78 63q8 6 19 15t19 9q10 0 16.5 -7t16.5 -7t6 2t6 2q8 0 33 -6t37 -10q12 -2 24.5 -14.5t28.5 -20.5q23 -12 43.5 -24.5t32.5 -36.5 q12 -25 15.5 -58t3.5 -43q0 -27 -8.5 -31t-12.5 -20q-2 -8 -5 -22.5t-7 -26.5q-8 -20 -20.5 -38.5t-24.5 -37.5q-12 -4 -18.5 -16.5t-14.5 -12.5t-19.5 3.5t-25.5 -3.5q-4 6 -2 9.5t2 9.5q-4 4 -9 3t-12 1q-6 6 -18 19.5t-25 19.5q6 18 16.5 41.5t17.5 45t13.5 38t6.5 20.5 v27v4h-2q-2 0 -2 1t-2 1q-10 0 -30 -17.5t-40.5 -40t-34.5 -42t-14 -21.5q-14 -23 -31.5 -49.5t-30.5 -50.5q-23 -43 -49 -81t-45 -79q-16 -43 -29.5 -90t-33.5 -94q-4 -20 -13.5 -45t-13.5 -47q-12 -55 -25.5 -117t-13.5 -113q0 -8 -4 -16t-4 -19q0 -10 5 -18t5 -16v-23.5 t2 -23.5q0 -4 7.5 -29t21.5 -54.5t29.5 -53t35.5 -23.5q10 0 11.5 5t1.5 9q4 -4 7 -9t15 -5h37q33 12 74 22.5t76 24.5q23 8 54.5 23.5t59.5 27.5q6 2 12.5 10.5t12.5 12.5q25 16 50.5 27.5t49.5 23.5q23 8 31 31q4 2 22 2q8 0 6.5 -5.5t2.5 -9.5q16 12 54 37t60 27 q4 2 6.5 9t8.5 13q31 19 37 -10l-33 -25l8 -30q-25 -16 -47.5 -36t-36.5 -38q-12 -14 -34.5 -31.5t-39.5 -29.5q-8 -4 -14 -12.5t-12 -20.5q-43 -23 -89.5 -53.5t-89.5 -61.5q0 -4 2.5 -9t-4.5 -5q-4 -4 -5 -7t-11 -3t-9 0t-3 6q-6 -6 -7 -10.5t-4 -8.5q-10 -2 -24 -5 t-30.5 -8t-30 -9t-15.5 -4q-8 0 -17 -5.5t-18 1.5q-4 -6 -2 -10.5t-8 -4.5t-34.5 4t-30.5 4q-10 0 -9.5 -4t-9.5 -4q-18 0 -48 16.5t-59.5 40t-53 45t-27.5 27.5q-12 18 -28.5 41t-31.5 51q-41 68 -56 121t-28 96q4 12 -1 41t-5 39zM756 217l6 -6l8 14l-8 4zM799 250l6 -4 l16 10l-4 6z" />
<glyph unicode="D" horiz-adv-x="749" d="M0 305q0 10 3 6t7 0q4 49 18.5 106.5t28.5 121.5q2 10 18.5 67.5t38 141t49 179t49 182.5t37 152.5t15.5 86.5q0 6 -3 21t-5 30q-2 6 -12.5 16t-10.5 19q0 16 13 16q8 -4 13 -7t13 -3t35 -8.5t43 -14.5q2 0 7 -8t14 -8q8 0 31.5 -12.5t35.5 -20.5q31 -18 70 -43t76 -52.5 t68.5 -58t54.5 -61.5q49 -72 70.5 -147.5t21.5 -141.5q0 -4 -2 -23.5t-6.5 -45t-7.5 -53t-9 -46.5q-10 -35 -26.5 -65.5t-34.5 -65.5q-6 -14 -10.5 -33.5t-12.5 -37.5q-16 -39 -40.5 -77t-45.5 -69q-25 -33 -58.5 -76t-72.5 -96q-10 -12 -28.5 -26.5t-38.5 -30.5 q-18 -20 -52.5 -51t-52.5 -39q-6 -2 -7 -7.5t-5 -9.5q0 4 1 7.5t-5 7.5q-4 -6 -9.5 -17.5t-15.5 -19.5q-14 -12 -40.5 -27.5t-37.5 -15.5q-8 0 -15 2t-20 2l-10 10v-2q0 -4 -6 -4q-10 0 -29.5 18.5t-33.5 30.5q-4 6 -1 8t1 4q-12 18 -27.5 48t-15.5 42q0 6 12 31t12 35 t-13 22.5t-18 22.5q-6 8 -10 29q-6 14 2 41q0 4 -5 6t-5 12zM111 140q-1 -2 -1 -5q0 -6 3 -14q8 4 12 9t8 7q4 -4 0 -7t4 -3t7 10t3 15q6 -4 3 -4.5t8 -0.5q8 0 33.5 23t52 49.5t49 50t24.5 25.5q12 12 25.5 34.5t22.5 35.5q16 8 34.5 29.5t36 46t30.5 49t23 40.5 q-14 -14 -29.5 -33.5t-29.5 -39.5q37 63 77 123.5t68 124.5q8 18 18.5 47.5t21 62.5t17.5 68.5t7 66.5t-5 65t-17.5 64.5t-31 57t-46.5 41.5l4 4q-25 18 -56.5 43.5t-62.5 36.5q2 -21 2 -42q0 -39 -7 -80q-11 -63 -27.5 -127.5t-35 -127t-28.5 -115.5q-31 -86 -51.5 -163 t-43.5 -161q-12 -27 -29.5 -63.5t-17.5 -58.5q-2 -4 -4 -3t-4 -4q-6 -35 -13 -71.5t-18 -73.5q-2 2 -2 14q-10 -16 -16 -22q0 -6 3 -11.5t-1 -9.5q-10 8 -18 9q0 -4 -2 -12z" />
<glyph unicode="E" horiz-adv-x="772" d="M6 317v138q8 10 8 12q10 59 22.5 103t22 77t10.5 57.5t-10 45.5q4 -2 13.5 1t13.5 13q27 74 53.5 153.5t53.5 159.5q4 12 15 32.5t11 31.5q0 10 -16.5 22.5t-28.5 16.5q0 8 -13.5 21t-17.5 30q-6 18 -13 39.5t-13 44.5v14l2 2q4 6 10 6q8 0 4 -3t4 -3q10 0 11.5 4t5.5 6 q39 10 82 22.5t90 22.5q20 29 26 45.5t11.5 24.5t14.5 9t34 1q8 0 13 -4t11 -8q4 -12 17.5 -22.5t27.5 -20.5q6 -2 5 -2t8 0q4 0 19 2t34.5 4t41 6t38.5 4q43 2 99 2t107.5 -1t89.5 -2t44 -1q2 0 20.5 -3t43 -9t50 -12t45.5 -13q18 -6 46 -15t53 -28q16 -12 14 -25.5 t10 -27.5l-25.5 -17t-21.5 -9h-270q-8 0 -17.5 -6.5t-15.5 -6.5q-18 -6 -46 -6t-46 -4q-27 -8 -60.5 -12t-74.5 -10l-10 -11q-16 3 -31 3q-18 0 -34 -4q-30 -7 -67 -13v-4q0 -2 -4 -2q-10 0 -29.5 -4t-35.5 -4q-10 -4 -17.5 -9.5t-11.5 -13.5q-18 -41 -30.5 -85t-24.5 -87 q-18 -51 -33.5 -101t-38.5 -102l8 -8q18 10 29 10q10 0 10 -3t4 -7l15 14l6 -4h6t61.5 12.5t120 27t119.5 26.5t61 12q10 0 8.5 -2t4.5 -2l137 31l-10 -8q8 -6 11 -14.5t3 -16.5q0 -10 -6 -14.5t-10 -14.5q-2 -6 3 -9t5 -9q-20 -4 -40 -15.5t-38 -15.5q-2 -6 -10 -13t6 -7 q-20 0 -49 -15q4 -4 9 -3t11 1l-303 -121q-20 0 -53 -13t-57 -23q-25 -8 -60 -11.5t-43 -3.5q-10 0 -5 2t-5 2q-8 0 -15.5 -19.5t-12.5 -46l-10 -53t-7 -40.5q-4 -23 -10 -54.5t-10.5 -62.5t-6.5 -52.5t-2 -27.5q0 -10 2 -12t2 -6q2 -12 1 -24.5t22 -41.5q8 -2 12 -4t14 -2 t10.5 5t10.5 5t16 -8t15 -8q10 0 20 3t21 3q6 0 24.5 7t30.5 11q25 8 52.5 20.5t60.5 28.5q23 12 45 34t45 22q8 0 8 -5.5t6 -5.5q4 -12 -1 -22t13 -25q-6 -6 -12 -21t-18 -28q0 -4 5 -5t11 -1q-10 -6 -32.5 -30.5t-24.5 -30.5q-4 -6 -8.5 -14.5t-16.5 -16.5 q-14 -12 -37.5 -23.5t-46 -21.5t-41 -16.5t-20.5 -6.5h-78q-10 0 -11 2t-8 4q-25 0 -53.5 13.5t-52.5 34.5q-57 39 -89 79.5t-46 81.5q-6 14 -9.5 35t-7.5 41.5t-6 34.5t-2 20z" />
<glyph unicode="F" horiz-adv-x="849" d="M8 754q12 4 30.5 7t39.5 9q12 2 28.5 4t28.5 10q16 63 39 139t43 150q10 29 19.5 68t21.5 78q6 10 15.5 24t9.5 23q0 10 -9.5 34.5t-9.5 34.5v15q10 10 25 10q10 0 7 -3t7 -3q8 0 16.5 7t24.5 13q6 0 12 -8q31 2 77 7t89 11q23 6 50.5 15.5t37.5 9.5h13q2 0 29.5 3 t64.5 9t77 11.5t70 9.5q12 4 22.5 7t20.5 5q14 4 38 4h34q27 0 63.5 -3t61.5 -25q-2 -4 0 -14.5t8 -14.5q-2 0 -2 -2v-8q0 -4 4 -7.5t4 -7.5h-15t-13 -2q-20 -10 -23 -22q-16 0 -35.5 -4.5t-38.5 -16.5q-12 -4 -24.5 -11t-24.5 -13q-49 -12 -103.5 -22.5t-109.5 -22.5 q-6 0 -15 -9.5t-20 -9.5q-25 0 -38 -5t-52 -21q-20 -8 -52 -12.5t-42 -4.5q-8 0 -40 -5t-38 -24q-41 -90 -62.5 -184t-52.5 -188l484 49q2 0 29.5 1t61.5 1t61.5 1t33.5 1q10 0 10 -1t2 -1q4 -6 11.5 -14.5t-4.5 -12.5q0 -4 8 -9t14 -7q0 -6 4 -14.5t8 -16.5q-6 0 -17 -3 t-19 -3q-6 -4 2 -22h-10.5t-14.5 -7q6 -4 10 -4q-10 2 -20 -9t-27 -15q-27 -10 -65.5 -21.5t-74.5 -19.5t-62.5 -13.5t-32.5 -5.5q-10 0 -10.5 3t-8.5 3t-39.5 -14t-66.5 -18q-23 -4 -52.5 -7.5t-54.5 -5.5q-37 -4 -101.5 -12t-119.5 -24q-8 -45 -23.5 -96.5t-27.5 -96.5 q-6 -27 -8 -58.5t-6 -58.5q0 -6 -6.5 -14t-8.5 -21q-6 -8 -6 -30.5t-4 -40.5q-4 0 -10 -10q-2 -33 -9.5 -79t-19.5 -83q4 18 -12 30q-6 -12 -7 -22t-8 -23q-6 4 -6 7.5t-4 7.5q-6 -4 -10 -4t-10 -6l-29.5 29.5t-17.5 27.5q0 8 4 12t4 12q2 152 19.5 281t37.5 256 q-47 31 -62.5 71t-19.5 85z" />
<glyph unicode="G" horiz-adv-x="983" d="M6 397q0 10 2 23.5t4 25.5q4 12 1 24.5t-1 25.5q31 123 85.5 256t127.5 256v16q29 43 59.5 93t65.5 100q-6 4 -10 4h-10q12 16 28.5 34.5t32 37t29.5 33.5t22 24q8 16 21.5 31.5t29 25.5t27.5 21.5t17 25.5q20 20 42.5 21.5t43.5 7.5q4 2 3 7t9 5t6 -3t6 -3t7 5t8 5 q10 0 29.5 -8t31.5 -16q6 4 6 7t4 7q33 -12 68 -32.5t64.5 -46.5t49 -55.5t19.5 -62.5q0 -31 -13.5 -64.5t-31.5 -51.5q-6 -6 -13.5 -23.5t-19.5 -17.5q-10 0 -7 3t-3 7q-12 -16 -23.5 -33.5t-23.5 -38.5q-4 0 -8.5 5t-12.5 5q-10 0 -9 -5t1 -9q-8 0 -16 10q-12 0 -15.5 -6 t-3.5 -18l-8 12t-4 18q0 29 13.5 50.5t33.5 60.5q14 35 26.5 76t12.5 51q0 16 -9 28.5t-22 12.5q-8 0 -26.5 -8t-30.5 -15q-57 -18 -92 -61t-84 -98q-12 -14 -21.5 -35t-21.5 -41q-6 -14 -21.5 -32.5t-27.5 -41.5q-2 -4 -3 -12t-8 -12q-4 -8 -14 -17.5t-14 -17.5 q-14 -27 -36 -68t-44.5 -85t-44 -87t-35.5 -74q-12 -25 -26.5 -64.5t-26.5 -80.5q-4 -10 -4 -27.5t-4 -29.5q-4 -14 -8.5 -28.5t-6.5 -31.5q-2 -18 -6 -43.5t-6 -52.5t-4 -45t-2 -23q0 -57 15 -89.5t79 -32.5h41q10 0 11 5t7 7q47 25 96.5 41t90.5 57q0 2 -2 4h10 q8 0 20.5 15.5t24.5 21.5v4q0 2 -2 4q-6 -8 -15.5 -10t-15.5 -6q27 16 51.5 40.5t51.5 45.5q27 2 52 35t44 57q-2 2 -14 2q-10 0 -21.5 -6t-26.5 -10q-10 -4 -29.5 -6t-31.5 -6q-18 -8 -39.5 -16.5t-44.5 -19t-38 -16.5t-21 -6t-34 18.5t-44 28.5q-8 8 -13 19q10 12 0 33.5 t-22 27.5q4 16 25 31q27 12 61.5 28.5t44.5 16.5q8 0 7 -5t9 -5q4 0 20.5 8t34 19.5t32 21.5t20.5 10q8 0 6 -3t8 -3q16 0 40 12t28 17q20 6 52 13t42 7t13 -2t14 -2q10 0 53 -2t76 -14q6 -6 21.5 -15.5t23.5 -15.5q18 -12 35.5 -38t17.5 -36q0 -4 -12.5 -22.5t-27.5 -40 t-28.5 -40t-17.5 -22.5q-23 -27 -45.5 -55.5t-46.5 -52.5q-55 -51 -116.5 -104.5t-127.5 -102.5q-12 -8 -39.5 -25.5t-62.5 -36t-69 -32t-54 -13.5h-47q-47 0 -94.5 16.5t-81.5 51.5q-6 0 -13.5 -2t4.5 -12q-72 57 -94 118.5t-39 114.5q-4 16 -2 44t2 54q0 10 -3 21.5 t-3 19.5zM387 1276l4 -6l12 12l-4 6zM401 1290l9 -4l4 14l-8 3zM565 285l6 -6l17 16l-4 4zM590 309l6 -6l27 21l-5 6z" />
<glyph unicode="H" horiz-adv-x="1028" d="M6 618v17q6 4 14.5 14t20.5 17q33 12 73 21t81 22q14 49 26 95t25 107q25 109 52.5 239t49.5 241q2 12 1 29.5t1 31.5q-2 0 -2 2q-4 2 -4 3t-2 5q6 4 8 10.5t12 6.5t7.5 -2t7.5 -2t9 4t-1 10q4 -6 15.5 -4t23.5 2q6 0 14 -6t17 -6q10 0 7 2t5 2q16 0 28.5 -12.5t20.5 -27 t14 -28.5l7 -14q0 -4 -1 -26.5t-5.5 -50.5t-7.5 -57.5t-9 -45.5q-2 -4 6 -17q-10 -29 -29.5 -100.5t-40 -146t-35 -133t-14.5 -64.5q0 -10 -1 -8t3 -5q45 10 97.5 17.5t101.5 13.5q35 4 72 9t80 12l4 2l4 4q10 43 19.5 90t17.5 88q4 37 16 92t28.5 116.5t34 121t52.5 110.5 q2 6 8 14.5t12 16.5q4 12 15.5 28.5t9.5 28.5q4 -4 11 -8t13 -10q14 4 20.5 9t12.5 20q6 -10 12.5 -14.5t-0.5 -12.5q12 -8 33 2q14 -18 31.5 -48t17.5 -40t-12 -56t-20 -81q-12 -45 -39 -111q-6 -18 -15.5 -71.5t-21.5 -94.5q-4 -18 -15.5 -43.5t-19.5 -50.5 q-2 -10 -7 -26.5t-13 -28.5v-41q18 3 36.5 3t36.5 -3q-6 -20 3.5 -38t35.5 -13q-6 -4 -13 -6.5t-11 -6.5q6 -16 34 -17q-20 -6 -43.5 -18t-33.5 -12q-8 0 -8.5 2t-4.5 2q-2 -2 -6 -12q2 -4 0 -9t2 -5q-12 2 -22.5 -9.5t-14.5 -15.5t-14 -7t-14 -13q-16 -39 -24.5 -78 t-12.5 -78q-6 -35 -14.5 -96.5t-20.5 -134t-24.5 -148.5t-20.5 -143q-33 -8 -45 -23v9.5t-4 9.5q-6 -4 -2 -19q0 4 1 6t-9 2t-7.5 -4t-7.5 -4t-28.5 14.5t-22.5 26.5q2 8 -3 12.5t-5 14.5q0 8 5 16t5 17v71q0 27 -1 59.5t1 59.5q2 12 7 29.5t5 36.5v12t-8 12q12 29 12 62v10 q-1 11 -1 22q0 26 4 49q4 25 10 60t6 43q0 6 1 29.5t-17 21.5l-363 -63q-2 -2 -2 -9q0 -2 2 -2q-10 -14 -14 -47q-23 -84 -47.5 -188.5t-30.5 -198.5q0 -4 -4 -10t-4 -14q0 -12 20 -23q0 -6 -5 -17.5t-5 -15.5q2 -8 8 -16t6 -16q0 -10 -6 -24.5t-10 -29.5q-10 6 -27.5 12.5 t-27.5 6.5t-6 -2t-7 -2q-10 0 -23.5 17t-26.5 38.5t-21.5 41t-8.5 25.5q0 27 -3 63t-3 46q0 2 3 22.5t6.5 46t6.5 53.5t5 46q4 35 15 73t20 74q-25 12 -53.5 26.5t-57.5 33.5q-6 10 -12 39.5t-23 31.5zM1012 733q4 0 11 4t7 8q-6 8 -18 9v-21z" />
<glyph unicode="I" horiz-adv-x="903" d="M4 121q0 8 5 18.5t7 22.5q6 4 32 10t42 6q6 0 21.5 -8t31.5 -4q35 -11 71 -11q10 0 20 1q31 3 59 3q14 0 26 -1l3 4l43 291q8 20 10 43.5t16 50.5q0 6 -2 10t-4 4q16 29 20.5 62.5t12.5 58.5v2q0 2 -6 8l145 492q-6 6 -27 6q-10 0 -14 -5t-14 -9q-6 -2 -21.5 -3.5 t-25.5 -1.5q-8 0 -17.5 2.5t-17.5 2.5q-10 0 -34 -7.5t-32 -7.5t-26.5 11.5t-32.5 21.5q-18 18 -24.5 53t-16.5 58q4 4 19.5 5t19.5 17h13h16h18t-2 10q2 0 4 4.5t12 4.5q8 0 15.5 -2.5t25.5 -4.5q6 2 1 5l-5 2h10.5t26.5 -5q8 6 -4 7q12 0 28.5 -1t30.5 -1q12 2 25.5 6 t30.5 4q4 8 -4 8q12 -6 23 -5t20 1q10 0 40.5 7t63.5 11q27 0 71 3t81 3q8 0 23 1t26 1q6 0 25.5 -1t47 -4t59.5 -8t54 -9q8 -4 21.5 -14.5t21.5 -14.5q2 -6 4 -15t8 -20v-16q-12 -4 -21 -16.5t-18 -12.5q-10 0 -6 3.5t-6 3.5q-8 0 -13 -7.5t-13 -7.5q-66 0 -138.5 -8 t-144.5 -20l-4 -2l-6 -5q-4 -41 -12.5 -72.5t-18.5 -60t-22.5 -61.5t-24.5 -78q-6 -18 -15.5 -34.5t-15.5 -35.5q-2 -4 -2 -13t-4 -19q-41 -88 -59.5 -168t-44.5 -135q-6 -16 -8.5 -35t-6.5 -37q0 -6 4 -6q-4 0 -4 -6.5t-6 -8.5q-8 -45 -18.5 -87t-20.5 -89 q-6 -18 -11 -42.5t-5 -35.5v-36q20 0 48 2t34 2l358 -31h-2q-4 0 -8 -4q0 -8 18 -8q4 0 11.5 -1t11.5 -1v-19q-4 -6 -13.5 -7t-27.5 -7q8 -4 14 -8t15 -11h-10.5t-8.5 -4q0 -18 -18 -32q-10 -4 -28.5 -8.5t-27.5 -4.5q-10 0 -8 -5t-6 -5q-10 0 -3 5t-1 5q-10 0 -8 -3t0 -7 q-29 0 -64 -2t-65 -6q-53 -6 -105.5 -7t-107.5 -3q-8 0 -14.5 -7.5t-6.5 -15.5q0 -10 9.5 -43t9.5 -43q0 -8 -8.5 -16.5t-16.5 -20.5q-6 0 -13 3t-16 3q-10 18 -14 25q-14 6 -23.5 20.5t-17.5 28.5t-13 28.5t-14 20.5q-66 10 -126 11t-121 28q-39 25 -60 70q-6 4 -5 15t5 22 h-6q-2 0 -2 10zM309 1337v9h23v-9h-23z" />
<glyph unicode="J" horiz-adv-x="1042" d="M0 119v117q0 6 16.5 23t22.5 30q8 16 20.5 36.5t34.5 32.5q-10 -6 -15 -17t-9 -17v-2q0 -4 2 -7q12 14 27.5 35t33.5 37q10 10 22.5 13t24.5 12v-30t15 -24q-12 -8 -10.5 -19t-2.5 -22q-2 -6 -11 -13t-11 -19q4 -6 15 -2t20 8q-6 -4 -15.5 -17.5t-18.5 -31t-16.5 -35 t-7.5 -27.5t5 -8t8 -4q-4 -10 -7.5 -25.5t7.5 -15.5q8 0 7 2t3 2q-5 -20 -5 -41q0 -31 11 -66q18 -57 76 -106h2q14 -27 39.5 -44t55.5 -26.5t59.5 -12.5t52.5 -3q55 0 95 33t66.5 80t46 98t37.5 86q4 10 9.5 28.5t10.5 47t9 52.5t8 42q0 4 4 10t8 15q8 37 18.5 152.5 t14.5 154.5q4 8 1 21q-1 3 -1 9q0 18 6 58q2 8 1 20.5t1 24.5q4 4 6.5 13t4.5 14q8 199 24.5 334t26.5 245q8 0 14 2t17 2q6 0 17 -12t22 -14q12 -12 26 -27.5t33 -30.5q8 -29 17.5 -66.5t9.5 -47.5q0 -8 -4.5 -32t-4.5 -42q0 -6 -4 -25q2 -6 2 -8t2 -6q-4 -16 -7 -32.5 t-7 -37.5q2 -4 7 -15t-5 -20q-4 -43 -8 -141t-12 -151q-4 -4 -5.5 -27t-5.5 -35q0 -37 -13 -177t-22.5 -190.5t-20.5 -91.5t-28 -90q-20 -61 -44.5 -126.5t-65.5 -139.5v-9t-4 -9q-14 -31 -35 -65t-53 -56q-12 -8 -30 -15.5t-24 -7.5q-10 0 -9 5.5t-9 5.5q-8 0 -14.5 -5.5 t-16.5 -5.5t-17 4t-16 7q-76 8 -153.5 44.5t-146 94t-121 127t-80.5 141.5q-6 20 -17.5 42t-11.5 32z" />
<glyph unicode="K" horiz-adv-x="1056" d="M4 125.5v38.5q0 61 15.5 136t35 143.5t34.5 117.5t15 64q0 6 -8 13t-14 11q0 2 1 10.5t2 15.5t-3 14t-16 7q6 10 0.5 25.5t-5.5 30.5q20 12 56.5 22t46.5 39q51 123 64.5 220t52.5 229q8 27 15 64.5t19 57.5q4 6 -1 11.5t-5 9.5q14 29 20.5 76t14.5 80h29q12 0 2 10 q20 -6 28.5 0t14.5 6q10 0 29.5 -10.5t35.5 -10.5q12 -23 24.5 -56.5t12.5 -43.5q0 -8 -5 -24.5t-5 -28.5q2 -24 2 -46q0 -40 -7 -73q-11 -51 -28 -104q-20 -74 -28.5 -115t-32.5 -117l14 -12q12 23 51 41q31 20 74 41.5t86 42.5q119 59 176 93t107 54q10 4 31.5 20.5 t39.5 16.5q8 0 23.5 -7t25.5 -7t12.5 5t12.5 5q4 0 17.5 -9t27.5 -21.5t27.5 -26t15.5 -21.5q2 -4 7 -18.5t5 -22.5q0 -16 -19.5 -28.5t-42 -20.5t-46 -15t-29.5 -9q-98 -45 -139 -69t-74 -46q-31 -16 -79 -40t-107.5 -56.5t-126 -69.5t-131.5 -72q-10 -6 -28.5 -18 t-18.5 -29q0 -10 21.5 -27.5t47 -35t48 -30.5t28.5 -17q35 -23 79 -55.5t93 -67.5q12 -10 34.5 -21.5t37.5 -21.5q51 -35 100 -77t98.5 -91t89 -104.5t50.5 -106.5q-8 0 -14.5 -5t-16.5 -5q-6 0 -14.5 5t-18.5 5h-28.5t-26.5 6q-37 33 -67.5 72t-73.5 73 q-98 102 -236.5 195.5t-275.5 175.5q-4 -4 -10.5 -18.5t-10.5 -24.5q-6 0 -10 -6q-23 -92 -54.5 -201.5t-31.5 -230.5v-18.5t4 -20.5q6 -4 16.5 -14.5t10.5 -20.5t-5.5 -25.5t-13.5 -27.5q-12 6 -31.5 6t-40.5 8q-12 6 -32.5 27.5t-32.5 40.5q0 2 -3 9t-3 15 q-12 8 -17.5 25.5t-9.5 41t-4 45z" />
<glyph unicode="L" horiz-adv-x="800" d="M4 248q0 37 14.5 89t35 105.5t41 104.5t32.5 84q14 45 29.5 98t33.5 102q2 4 6.5 12.5t6.5 16.5q20 72 50 165t38 179q10 16 14 37t6 39q4 27 12.5 57.5t12.5 59.5q2 8 2 23.5v27.5h31q16 0 24 -2q66 -29 80 -72t14 -80q0 -8 -3 -23.5t-3 -25.5q-6 -51 -10 -80.5 t-14 -62.5q-20 -72 -34.5 -132.5t-30 -119.5t-32 -117.5t-41.5 -126.5q-33 -86 -68.5 -191.5t-66.5 -207.5v-12l422 38h180q6 0 43 6.5t60 8.5v-2q8 -8 15 -20.5t18 -18.5q2 -8 2 -17.5t4 -17.5q-6 -4 -16.5 -10t-22.5 -19q0 -12 10 -12q-23 -8 -51.5 -25.5t-36.5 -17.5 q-10 0 -8 3t-8 3q-4 0 -17.5 -4t-32 -9l-37 -10t-30.5 -8q-106 -10 -212 -36.5t-200 -26.5q-4 0 -18.5 1t-36 4t-43 9t-37.5 13q-18 10 -47 39.5t-45 56.5q-12 20 -17.5 46t-9.5 48q-4 4 -6 12.5t-2 18.5z" />
<glyph unicode="M" horiz-adv-x="1570" d="M0 51q6 4 10 13.5t6 13.5q2 2 7.5 5t9.5 7q-4 8 -2 14.5t-11 6.5q-8 0 -6 1t-2 -6l13 13q4 12 -0.5 28.5t2.5 28.5q18 74 47.5 148.5t60.5 146.5q2 8 10.5 21.5t18.5 27.5q0 2 -1 11.5t1 13.5q4 25 22.5 53.5t12.5 54.5q10 0 16 -8q2 -2 1 -7t5 -9q6 4 7 13t8 15 q-8 -23 -14.5 -48t-18.5 -48v-2q0 -2 2 -2q6 2 10 12q20 49 40.5 97.5t43.5 103.5v4q0 2 -2 4q-14 -14 -22.5 -37.5t-20.5 -48.5h-2q-2 0 -6 4q-6 -4 -9.5 -6t-9.5 -8q0 -14 -6 -29q-4 0 -6 2q-2 0 -3 1t-3 1q12 31 28.5 74t32.5 64q6 12 12.5 35.5t12.5 35.5q2 2 5 7.5 t9 5.5q-6 -6 -10 -20.5t-8 -20.5q-2 -6 1 -8.5t3 -4.5q-4 -12 -11.5 -23t-11.5 -16q0 -6 1 -9t1 -9q-10 10 -14 10q0 -16 -3 -36.5t-7 -45.5q12 25 24.5 53.5t24.5 57.5q0 -4 -2 -8t-2 -8l6 -9q6 8 9 16.5t9 16.5q-10 10 -18 2q0 2 2 6q0 2 2 4t2 4h2q2 0 6 -4l232 463l-6 6 l-19 -14q6 8 10.5 14.5t4.5 8.5q0 -2 4 -2h6q6 4 10 16t14 20l-6 4q-6 -4 -11 -7t-5 -7q0 4 3 4t-3 6q-8 -6 -13.5 -18t-17.5 -18v-5q0 -2 2 -4q-12 -20 -29.5 -47.5t-31.5 -50.5q0 -12 8 -22q0 2 -4 6q-27 -41 -40 -75t-46 -65q16 35 32.5 82t36.5 82q27 49 62 108.5 t59 117.5q4 4 7.5 6t7.5 6q8 -2 9 -8.5t5 -12.5l10 11q8 0 14.5 -2.5t14.5 -2.5q6 4 3 9.5t-3 9.5q23 -16 35 -21.5t24 -27.5h8q4 6 2 8t-2 8q14 -8 25.5 -22.5t18 -32t9.5 -34.5t9 -30q4 -27 13 -66.5t14 -68.5q2 -27 6 -63.5t6 -70.5t3 -59.5t1 -29.5v-170q0 -4 -1 -34 t-3 -70.5t-5 -86t-5 -79.5l8 -9q18 6 18 25v-2q0 -2 6 -6q4 2 5 5t8 9q-6 -6 2 -20q4 10 16 22v21q0 4 -13.5 0t-0.5 -11q0 -2 -2 -2h-9q16 20 32 44t30 46q-6 -14 -16.5 -32.5t-14.5 -36.5v-2q0 -2 2 -4q12 16 26.5 35.5t18.5 39.5q0 -10 4 -14q16 16 17 39l-8 -10 q25 33 41 63q4 12 13 24.5t-3 20.5q12 8 20 22.5t17 27.5q27 37 53.5 74.5t50.5 76.5q20 35 41 75t39 79q2 4 8 5t10 9q18 27 37 52.5t35 49.5q12 20 19.5 44t19.5 42q8 6 25.5 18.5t21.5 39.5q-4 0 -7 -2t-7 -2q4 8 22.5 18t14.5 33q0 -8 2 -10q6 8 12 12t6 12q0 4 -18 4 q-10 0 -16.5 -10t-12.5 -18q6 23 22.5 49t36.5 51h17v-2q0 -2 -4 -8q8 -4 18 -2t23 -4q2 2 2 6v16q10 -6 21 -11t18 -9q10 -8 18 -13q6 0 16.5 -5t14.5 -7q6 -4 8 -13t8 -16q6 -10 15.5 -26.5t13.5 -30.5q8 -27 8 -61.5v-44.5q0 -12 -4 -33t-8 -40.5t-7.5 -35.5t-3.5 -18 q-2 -10 -2 -24.5t-6 -25.5l-6 -12t-6 -14q0 -2 2 -2q0 -4 6 -4q-6 -4 -9 -12.5t-9 -18.5q-29 -125 -58.5 -253t-56.5 -257q0 10 -4 16q-6 -12 -3 -22t3 -23v2q0 2 -6 9q0 -14 -5 -22.5t1 -22.5l2 2q2 4 2 6q0 -6 -3 -12.5t1 -14.5q-2 0 -2 2q-2 2 -2 3t-4 3 q-6 -25 -9.5 -53.5t-7.5 -62.5q0 -2 1 -5.5t1 -14.5v-32.5t-2 -58.5q2 -27 7.5 -51.5t9.5 -48.5q6 -12 12 -23.5t6 -21.5v-29q0 -10 -13.5 -21.5t-23.5 -11.5q-8 0 -13 2t-13 2t-19.5 9.5t-23.5 19.5q0 6 -3 12q-20 18 -36.5 49t-22.5 58q-6 23 -10 53.5t-6 59t-4 49 t-2 26.5q0 4 3 23.5t5 42t5 42t3 23.5v23h4q4 0 8 2q8 37 2 39t-6 10t11.5 38.5t17.5 53.5t6 61q-12 0 -12 -18q-2 12 4 36.5t20 43.5q2 6 1 11t-1 16q-2 -2 6 -17q4 4 3 5t-1 7q0 8 3.5 19.5t3.5 23.5q0 2 4 8.5t2 14.5l-2 2h-4q0 14 3 32.5l6 37t6 33t3 18.5q0 10 1 11 t-3 5q-8 -6 -19.5 -12t-11.5 -12l-10 10q-4 -4 -5 -8t-7 -8q0 -8 8 -9q-2 -6 -7 -18t-14 -25q0 4 2.5 8.5t2.5 10.5q-20 -10 -30.5 -30.5t-17.5 -35.5q-6 -10 -16 -20.5t-14 -16.5q-2 -10 -11.5 -29.5t-17.5 -33.5q-4 -10 -3 -22.5t-5 -22.5q-31 -63 -66 -128t-69 -128 l-10.5 -10.5t-10.5 -14.5q-29 -49 -51.5 -104.5t-50.5 -98.5q-16 -31 -28.5 -64.5t-24 -69.5t-23.5 -67.5t-31 -60.5q-6 -4 -29.5 -8t-35.5 -4q-6 0 -11.5 10.5t-13.5 14.5q-33 16 -56.5 40.5t-25.5 53.5q-4 4 -8 7t-8 7q-4 20 -3 44t-1 44q-4 16 -8.5 38t-4.5 32 q0 8 5.5 10t7.5 6q-2 12 0 24.5t2 24.5l10 11q-13 23 -13 52v12q1 16 1 31q0 20 -2 40l4 325q0 8 -2 6.5t-4 2.5q-4 8 1 18t5 16q0 14 -6 28.5t-11 29.5q-2 10 0 23.5t2 25.5q0 37 -2 72.5t-10 68.5q-23 -16 -35 -51q-66 -158 -143.5 -340t-136.5 -354q-12 -33 -26.5 -66 t-24.5 -65q-18 -61 -34 -125t-30 -129q-4 -8 -4 -29.5t-16 -34.5q-4 0 -12.5 -9t-18.5 -9t-20.5 2t-22.5 -2q-6 18 -23.5 35.5t-31.5 42.5q-8 12 -8.5 28.5t6.5 30.5l-19 16q-4 10 3 15.5t-9 17.5zM8 94l4 8l13 -4l-5 -8zM178 483h8l11 37h-9zM186 565l7 -6l8 14l-8 5z M205 610l8 -2l8 21h-8zM225 692h11v17h-11v-17zM334 928q4 8 7 13t5 9l-6 8q0 -16 -6 -30zM340 963q4 16 12 26l10 10q0 8 -10 9q0 2 4 4q4 4 4 8v-16.5t5 -16.5q8 2 15 11.5t15 21.5q-8 -18 -17 -38.5t-20 -43.5q4 8 2 16.5t2 16.5q-4 4 -10 0zM365 1014l8 12l8 -2l-8 -14z M623 90l6 2l6 -14h-6zM795 432v12h10v-12h-10zM811 467l6 12l8 -4l-8 -12zM909 651l6 -4l7 19h-9zM934 690l18 49h9l-23 -51zM971 750q12 20 24.5 47t24.5 43q-12 -12 -29.5 -42t-19.5 -48zM1034 874l4 13l9 -2l-7 -17zM1044 903l13 12l4 -4l-12 -12zM1075 961q6 4 18.5 14 t12.5 14q0 -4 -8 -15t-11 -22q-2 0 -4 2q-2 0 -2 2t-4 2q-2 0 -2 3zM1110 979l8 12l6 -2l-6 -12zM1110 1004l4 -5l10 21l-6 2zM1139 1069h4q2 0 6 -6l2 2q4 4 4 6q0 -8 -3 -10t-3 -8q-10 10 -10 16zM1169 1087q4 8 4.5 15.5t0.5 11.5q0 -6 -2.5 -13t-2.5 -14zM1241 1198v8 q0 11 6 17q0 -4 -1 -11.5t-5 -13.5zM1249 215h11l6 -31h-9zM1270 1255l8 13l6 -2l-6 -13zM1292 1298q12 8 23.5 20.5t17.5 20.5q-6 -12 -15 -23t-13 -24q-2 0 -7 2q-2 0 -6 4zM1327 983l12 14q0 -6 -3 -10t-9 -4zM1331 1346q4 6 13.5 18t13.5 18q-10 -18 -10 -39 q-4 4 -8.5 3.5t-8.5 -0.5zM1341 997q11 27 31 41q-6 -6 -12 -17t-19 -24zM1354 881v12h6v-12h-6zM1405 1421q16 25 16 37q-4 0 -6 4q-2 0 -6 2q0 -10 -2 -22t-2 -21z" />
<glyph unicode="N" horiz-adv-x="1112" d="M2 160q0 10 6 34.5t12 38.5q4 20 5.5 43t7.5 48q29 104 59.5 211.5t65.5 212.5v30q18 82 41.5 165t46.5 169q12 41 28.5 99.5t30.5 107.5q2 8 3 19.5t-1 21.5q-2 8 -1 18.5t-1 22.5q14 41 32.5 56.5t35.5 27.5l18 -4q18 18 31 18q10 0 17 -4t16 -10q10 -2 21 -2t24 -4 q12 -6 24.5 -20.5t18.5 -26.5q2 -8 0 -20.5t0 -18.5q0 -25 -3 -46.5t-8 -43.5q-4 -18 8.5 -41t16.5 -45v-15.5t4 -17.5q18 -66 41 -134.5t41 -134.5q23 -84 51.5 -190.5t55.5 -196.5q2 -4 8 -11t12 -15q14 12 16 27.5t9 31.5q-6 -16 -8.5 -34.5t1.5 -39.5q12 49 22.5 97.5 t25.5 89.5l114 477q12 35 24.5 48t8.5 38q14 27 23.5 69t27.5 56q10 35 23.5 69.5t27.5 71.5q-4 4 -8 2t-4 -8q0 12 10 23q0 -10 7 -15q6 6 6 23q0 20 -13 28q18 -4 35 -2t37 -2q8 6 8 13q-6 8 -20 2l20 4q12 -6 20.5 -4t18.5 -15q4 0 8 4.5t9 10.5q8 -14 8 -31q6 -4 11 -9 t13 -7q0 -14 6.5 -20.5t12.5 -11.5t11 -10.5t5 -15.5q0 -4 -10 -22.5t-22.5 -45t-27 -55t-22.5 -51.5t-20.5 -57.5t-20.5 -63.5q-6 -8 -7 -22.5t-3 -26.5q-12 -37 -33.5 -92t-21.5 -96q0 -4 -3 -9.5t-10 -15.5q-16 -53 -20 -114q-10 -20 -19.5 -53t-9.5 -44q0 -8 -6 -34.5 t-12 -49.5q0 -2 6 -10q-4 -35 -14.5 -81t-16.5 -83q-6 -6 -7 -4t-5 -4q0 -2 2 -2q0 -2 4 -2q-2 -18 -5 -36.5t-11 -37.5q0 -2 8 -10q-12 -84 -20.5 -157.5t-14.5 -176.5q-10 -8 -23.5 -16t-23.5 -8h-51q-6 0 -14.5 5t-16.5 9q-27 14 -48.5 36.5t-41.5 41.5 q-12 10 -23.5 28.5t-15.5 32.5q-12 33 -27.5 86t-33.5 94q4 4 4 9q-12 12 -20.5 42.5t-14.5 47.5q4 4 0 12q-4 10 -8 10q-6 10 0 19q-16 45 -36 96t-32 94q-18 63 -38.5 132t-39.5 138q-2 4 -5 8.5t-9 8.5l-6 -2q-18 -86 -42 -180.5t-48 -174.5q-2 -6 -7.5 -14t-11.5 -12 q-14 -39 -26.5 -82t-24.5 -82q-2 -4 -4 -5t-6 -5q-4 -20 -9 -35.5t-8 -38.5q-4 -6 -7 -10t-5 -10q-15 -63 -33 -113q-15 -42 -15 -78q0 -8 1 -16q2 -12 1 -37t11 -29q-10 -10 -16 0q-6 -8 -8 -15t-12 -7t-20.5 -2t-20.5 -2q-8 0 -15.5 8t-17.5 8q-6 0 -5 0t-5 -4 q-8 18 -23.5 41.5t-32.5 50.5q6 8 4 12q-2 12 -7 34t-5 28zM29 250l8 -4l4 12l-4 4zM37 276l14 11q0 6 -1 15t-1 15q-4 -12 -8 -23t-4 -18zM53 344h8l5 23h-7zM106 508q6 18 10.5 41t8.5 41q-6 -18 -10 -41t-9 -41zM131 600l13.5 31.5t7.5 27.5t-3.5 10.5t-3.5 4.5 q0 -18 -5 -37t-9 -37zM1024 1395l8 26h8l-8 -26h-8zM1044 1448l9 12l6 -2l-6 -12z" />
<glyph unicode="O" horiz-adv-x="995" d="M4 481q0 6 2 51.5t8 100.5q4 23 13.5 59.5t21.5 69.5q4 8 4 21.5t6 25.5q10 35 25.5 73t26.5 74q14 10 26 48q6 25 28.5 69.5t55.5 100t72 112.5t80 103.5t81 77t72 30.5q10 0 33 -10t33 -10q6 0 20.5 7t26.5 7q6 0 22.5 -3t32.5 -7q12 -6 29.5 -6t30.5 -2 q27 -6 51 -19.5t47 -28.5q31 -20 52.5 -42.5t43.5 -43.5q0 -4 -1 -12t3 -12q12 -20 28.5 -47t33.5 -47q6 -27 14 -56.5t14 -58.5q10 -31 11 -69v-5q0 -35 -7 -65q4 -4 7 -10.5t2 -14.5q-2 -18 -13.5 -37.5t11.5 -44.5q8 10 12 10q-6 -14 -12.5 -36.5t-22.5 -28.5 q12 -12 8 -21q-35 -96 -84 -192t-102 -185.5t-112.5 -167t-119.5 -137.5q-10 -12 -25 -20t-28 -14q-4 -4 -10 -14.5t-16 -14.5q-33 -23 -51.5 -34t-35 -17t-33 -7t-44.5 -1h-78q-8 0 -18.5 7t-22.5 17q-8 4 -22.5 7t-24.5 14q-25 20 -50.5 44.5t-49.5 55.5q-14 20 -27.5 44 t-26.5 44q-10 33 -23.5 69.5t-17.5 71.5q-6 31 -8 74t-2 53zM180 375q0 -20 5 -60.5t14.5 -83.5t23 -76.5t29.5 -43.5h5q41 -1 88 29q50 32 99.5 78t95.5 98.5t78 91.5q10 12 11.5 26.5t9.5 18.5q10 12 19.5 20t17.5 21q4 8 5 20t7 18q2 10 14.5 15.5t24.5 9.5q0 4 -2 9t0 9 q41 78 85 162t73 172q2 12 6 30.5t7 39t8.5 38.5t13.5 30q-2 0 -15 12q0 33 -5 76t-11 77q0 2 -8.5 26t-21.5 49.5t-32.5 48t-40.5 22.5q-39 0 -63.5 -17.5t-75.5 -56.5q-10 -6 -20.5 -10t-14.5 -6q-23 -18 -41 -46t-45 -44q-6 -4 -7 -11.5t-7 -13.5q-6 4 -9 8t-9 0 q-6 -10 -13.5 -20.5t-17.5 -10.5q-8 0 -4 3.5t-4 3.5q-10 0 -10.5 -7.5t-10.5 -7.5q-8 0 -6 4t-6 4q-10 0 -22.5 -19t-20.5 -34v-18q-12 -31 -23.5 -56.5t-23.5 -50.5q-10 -23 -18.5 -52.5t-16.5 -47.5q-8 -20 -20.5 -38.5t-18.5 -37.5q-14 -41 -21.5 -84t-17.5 -84 q-12 -39 -19.5 -89t-11.5 -83q-2 -12 -4 -32.5t-2 -28.5z" />
<glyph unicode="P" horiz-adv-x="825" d="M6 96q0 14 7 32.5t16.5 37t17.5 35t10 28.5q25 94 52.5 188.5t50.5 186.5q39 162 81 327t83 326q4 20 6 51t6 60q-50 20 -68 74q-15 45 -15 80q0 7 1 14q8 4 16.5 9t16.5 7q29 10 74 11.5t53 1.5q10 0 7 -2t1 -4q25 0 59.5 -16.5t61.5 -29.5q4 -4 19.5 -8t21.5 -8 q76 -49 142.5 -103.5t114.5 -113.5t76.5 -121.5t28.5 -128.5q0 -10 -6 -36.5t-12 -49.5q-4 -8 0 -14q-18 -66 -65.5 -145.5t-112.5 -141.5q-80 -70 -169 -128t-149 -81q-10 -4 -27.5 0t-27.5 4q-12 0 -30.5 -9t-27.5 -9q-20 0 -24 10v4q-12 -6 -17.5 -17t-7.5 -22 q-10 -25 -16 -63.5t-18 -75.5q-6 -20 -20.5 -51t-18.5 -55q-6 -37 -8.5 -70t-28.5 -80q-6 -8 -9.5 -12t-9.5 -13q-4 0 -8 -2t-14 -2q-6 0 -13.5 6.5t-15.5 6.5q-10 0 -12 -4.5t-8 -4.5q-4 8 -5.5 17.5t-11.5 9.5t-9 -1t-3 -1q0 4 2 3t2 9t-12.5 23.5t-24.5 34.5q4 6 1 11 t-3 15zM350 629q14 0 35 5t33 9q-6 10 -3 16.5t10 10.5t15.5 7t14.5 9l2 -6v-2q-6 -4 -1 -5t11 -1q8 6 28.5 22.5t24.5 22.5q-2 0 -3 -1t-5 -1h-4q-4 6 -1 6t3 4q55 27 106.5 77t90 110.5t63.5 123t25 119.5q0 27 -33 67t-78 76.5t-93 62t-81 25.5q-4 0 -1 2.5t-5 2.5 t-15.5 -2.5t-13.5 -2.5v-24q0 -12 9.5 -43t7.5 -51q-6 -49 -14.5 -99.5t-16.5 -91.5q-16 -72 -38 -151.5t-34 -130.5q-6 -35 -21.5 -83t-17.5 -83z" />
<glyph unicode="Q" horiz-adv-x="1001" d="M4 332q0 133 41 250.5t109 255.5v10q4 12 15 25.5t15 23.5q6 8 7.5 16.5t1.5 12.5q12 6 22 16q-6 4 -8 3t-6 -1q27 41 50 84t50 68q2 6 4 10t0 10q6 4 15.5 13.5l15.5 15.5q27 49 81 115.5t116.5 126t123 100.5t99.5 41q10 0 8 -4t8 -4t8 4t6 4t19.5 -7.5t21.5 -7.5 q8 0 5 3.5t8 3.5q20 0 43.5 -10.5t43 -22.5t35 -22.5t19.5 -12.5q6 -4 14.5 -11t8.5 -18q0 -10 -5.5 -9t0.5 -17v-8v-5q-8 -6 -20 -6t-21 -6q-25 -25 -50 -58.5t-50 -68.5q6 6 6 19q-6 4 -11 2t-9 -2q8 27 26.5 64.5t18.5 47.5v17q-6 6 -23 6q-12 0 -36.5 -13.5t-49 -30 t-46 -32.5t-25.5 -20q4 -4 19 -10.5t30 -6.5l114 -82q84 -51 125 -123.5t41 -146.5q0 -23 -17 -74t-37.5 -105.5t-41 -96.5t-22.5 -46q-12 -18 -30 -42.5t-34 -50t-31.5 -47t-21.5 -38.5q0 10 -6 17q-6 -8 -12.5 -13.5t-6.5 -15.5q0 -8 2 -11t6 -14q-4 -12 -2 -24 q12 -49 23.5 -108.5t15.5 -117.5q0 -10 6.5 -24t12.5 -31.5t9 -34t-5 -28.5q10 -14 17 -41t16 -54q-10 -12 -6 -28.5t8 -28.5q0 -12 -10.5 -20.5t8.5 -28.5q-12 4 -25.5 15.5t-22.5 21.5q-14 20 -30.5 51t-30.5 63.5t-27.5 65.5t-21.5 57q-12 45 -30.5 87t-33.5 85 q-12 -8 -19 -19t-17 -24q-14 -12 -36 -29.5t-40 -37.5q-4 -2 -4 -10.5t-4 -14.5q-10 -6 -21.5 -16t-23.5 -17l8 13q-8 4 -11.5 -2t-9.5 -8q-12 -12 -27.5 -30t-29.5 -30q-6 -2 -23.5 -11t-38 -18.5t-40 -16.5t-29.5 -7q-8 0 -35 2t-53 2q-59 20 -98 61t-62 90.5t-31 97.5 t-8 83zM168 207q0 -10 5 -36t9 -46q8 0 14.5 -2t12.5 -2q10 0 8 2t2 4q47 12 95 48t112 87q23 18 42 37.5t30 30.5q4 4 4 10t6 12q2 -4 6 -4h6q-8 8 0 17q14 16 32.5 35.5t33.5 39.5q4 -6 8 -6h2v8q-2 8 5 17.5t7 19.5q0 2 -6 27.5t-13 60.5t-16.5 72t-11.5 63 q-2 25 -5 52.5t-4 50t-2 39t-1 20.5q0 12 8 34t41 22h21.5t15.5 -7q0 6 2 9q0 2 2 2q25 -18 53.5 -37t48.5 -41q6 -8 10.5 -19.5t10.5 -17.5q-4 -6 -14.5 -37t-10.5 -43q0 -8 5.5 -23.5t13.5 -25.5q4 6 13 20.5t22 24.5q14 35 31.5 68.5t29.5 74.5q4 16 12 41t8 33 q0 18 -6 46t-13 54.5t-15.5 50t-16.5 35.5q-18 37 -65 67t-80 30q-8 0 -26.5 -17.5t-35.5 -31.5q-4 4 -9 6t-5 8q-4 -8 -14.5 -11t-10.5 -8q-12 -12 -23 -25t-15 -24q-20 -51 -59.5 -97t-67.5 -114q0 -4 -5.5 -5t-7.5 -5q-82 -143 -143 -275t-74 -266q-2 -4 -5 -9t-7 -9 v-135z" />
<glyph unicode="R" horiz-adv-x="921" d="M4 145q0 78 13.5 183.5t35 213t43 203t35.5 156.5q6 18 19.5 58t30 88.5t34.5 98.5t33 93q-20 6 -41 9t-41 16q-14 12 -16.5 30.5t-22.5 22.5v2q0 4 -4 8q0 4 4 9t4 12q6 12 5 21t1 22q14 12 26.5 25.5t24.5 25.5q10 8 25.5 13t28.5 7q6 0 8 7.5t10 7.5q16 2 41 6t47.5 6 t40 4t21.5 2q39 0 97 -15.5t116.5 -39t107.5 -50t70 -51.5q2 -4 4 -9t2 -11q35 -31 51 -61.5t29 -65.5q2 -4 8 -16.5t6 -22.5q0 -8 -4 -22.5t-8 -26.5q-4 -20 -15.5 -46t-23.5 -46q-8 -12 -22.5 -24.5t-24.5 -24.5q0 -2 -4 -10.5t-8 -14.5q-14 -12 -26.5 -25.5t-27.5 -25.5 q-29 -27 -69.5 -59.5t-75.5 -57.5q-31 -20 -64.5 -42.5t-68.5 -43.5q-14 -10 -39 -17.5t-45 -19.5q-4 -6 -11.5 -11t-15.5 -9q53 -51 114.5 -112.5t126 -123t133.5 -115t142 -83.5q27 -12 60.5 -27.5t65.5 -30t61.5 -31t50.5 -32.5q6 -6 8 -20.5t2 -24.5q0 -6 -7 -9.5 t-5 -5.5q-2 -2 -8.5 -7t-16.5 -5h-43q-10 0 -38.5 7t-53.5 16q-10 2 -22.5 2t-20.5 4q-117 47 -239.5 139t-239.5 213q-33 35 -88.5 78t-104.5 82q-4 0 -6 -4.5t-6 -8.5q-12 -59 -22.5 -116.5t-18.5 -114.5q-4 -12 -6 -21.5t-6 -21.5q2 -12 2 -22.5v-22.5q0 -20 -7.5 -39.5 t-13.5 -36.5q-7 -31 1 -63q4 -17 4 -34q0 -16 -3 -32q-18 -14 -37 -14q-12 0 -32 22q-6 4 -21.5 12.5t-21.5 20.5q-12 25 -19.5 57.5t-7.5 42.5zM315 836q10 8 19 0q0 8 9 16t15 12q63 45 125 80t125 98v19q43 43 83 91t50 89q-20 23 -53 43.5t-74 36.5t-84 24.5t-79 8.5 q-8 0 -16.5 -3t-12.5 -3q8 -18 15 -40t7 -32t-1 -42t-7 -56q-10 -49 -31.5 -103.5t-33.5 -89.5q-14 -37 -28.5 -76t-27.5 -73z" />
<glyph unicode="S" d="M2 432q0 10 3 12t3 9q4 0 5 -5.5t10 -9.5q0 14 -3.5 29.5t3.5 36.5q2 0 12 -17q6 16 2 35t-10 35q6 0 4 5t8 5t8 -2t4 -2q0 10 4 19.5t4 21.5q0 -10 -3 -20.5t1 -22.5q2 -6 4 -5t5 -1q6 -4 5 -22.5t15 -20.5q2 -20 12 -45l11 10q0 -20 5 -45.5t12 -50.5t16.5 -44.5 t17.5 -27.5q10 -10 22.5 -35.5t22.5 -25.5q8 0 5 3t-3 7q6 -14 30.5 -29.5t57.5 -28t65.5 -20.5t55.5 -8q14 0 24 4l11 -8q4 4 18 9t23 9q12 8 26 23.5t21 34.5q4 12 4 25.5v25.5q0 10 -2 9t-2 1q2 12 3 27.5t-3 27.5q-12 41 -29.5 92.5t-37 106.5t-42 109.5t-45.5 101.5 q0 4 -18.5 60.5t-40 130t-40 146.5t-18.5 110q0 4 3 45t10 67q4 27 22.5 67t38.5 74q0 4 -3 5.5t-3 7.5q12 4 23.5 16t19.5 12q10 0 4 -5t2 -5q10 0 33.5 23.5t38.5 23.5q33 2 75.5 5t53.5 3q2 0 15 -4t29.5 -10t32 -12t25.5 -8q12 -6 32.5 -18.5t39.5 -14.5q35 -4 60.5 -44 t43 -91t25.5 -102.5t8 -82.5q0 -6 -4 -32.5t-8 -42.5q-2 -4 -7.5 -14.5t-9.5 -22.5q-8 0 -18 10q-4 -6 -8 -9t-8 -9h2q0 4 2 6v2q0 2 -2 4q-12 -4 -19.5 -10.5t-15.5 -14.5v11.5t-2 9.5q-10 4 -24.5 18.5t-24.5 26.5q-2 4 -2 6t-3 8q2 6 2.5 16.5t4.5 18.5h-4q-6 0 -7 6 v20.5t4 22.5q2 2 4.5 1t4.5 3l6 10q-2 4 0 2t2 9q0 14 -4 35.5t-11.5 45t-16.5 42t-19 26.5q-14 12 -39 26.5t-33 14.5q-10 0 -6 -2t-6 -2t-12.5 5t-8.5 7q-2 2 -20 2q-8 0 -26.5 -10t-38 -23.5t-36 -25.5t-18.5 -16q-12 -20 -24.5 -46t-16.5 -49q-8 -18 -8 -38q0 -10 1 -41 t7 -54q0 -8 8 -19t10 -24q6 -23 7.5 -53.5t19.5 -54.5q10 -33 23.5 -73t23.5 -75q0 -4 5 -10t9 -14q12 -35 22.5 -67t21 -63.5t23.5 -68.5t32 -82q10 -18 19 -54t16.5 -77t12.5 -80t5 -69q0 -6 -4 -40t-12 -59q-2 -6 1 -13t-1 -15q-4 -20 -22.5 -45t-43.5 -41 q-4 -4 -13 -14.5t-20 -18.5h-7t-9 -2q-23 -12 -55.5 -19.5t-55.5 -7.5h-45q-4 0 -20.5 5t-32.5 12.5t-32.5 12.5t-20.5 5q-10 0 -5 -3t-5 -3q-6 0 -18.5 12t-16.5 21q-12 12 -45 28.5t-56 42.5q-20 23 -51 66t-37 74q-8 12 -15 30.5t-19 36.5q0 4 5 9t1 10q-2 6 -13 14 q6 12 2 33.5t-4 36.5q0 8 -6 12t-6 14z" />
<glyph unicode="T" horiz-adv-x="817" d="M2 1409q0 4 3 12.5t13 8.5t34 -4.5t30 -4.5q23 0 41 4.5t27 14.5l2 -2q0 -4 4 -4q12 -4 25.5 -4t25.5 -5l463 60q27 4 57.5 4h54.5v6q0 4 11 4h135t119.5 -4t130 -14.5t165.5 -30.5q-8 -8 3 -14q2 -6 -17 -21q4 -4 9.5 -10t11.5 -8q-14 -6 -38 -14.5t-44.5 -15.5t-38 -12 t-21.5 -5q-10 0 -10 5t-8 5t-28.5 -11.5t-35.5 -11.5q-90 -10 -164.5 -21t-152.5 -34q-4 -33 -8 -74t-13 -80q-6 -14 -11 -36.5t-9 -38.5q-8 -35 -16.5 -67t-12.5 -64q-6 -35 -17 -79t-20.5 -92.5t-15.5 -93.5t-6 -79l-84 -564q-14 -4 -23.5 -13t-15.5 -15l-10 10 q-10 -10 -15.5 -20.5t-17.5 -10.5q-8 0 -36.5 22.5t-51.5 41.5q8 12 20.5 23t12.5 22q4 59 7 116.5t7 116.5q2 25 2 60.5t2 70.5q12 119 27.5 241t30.5 243l73 321h-33.5t-37.5 -2q-16 -2 -46 -7l-66 -11t-73 -12.5t-67 -8.5q-4 0 -10.5 1t-18.5 1l-8 -10q-18 6 -44 1 t-38 -5q-4 0 -18.5 6t-30 14.5t-28.5 18.5t-21 14q-16 14 -27.5 34.5t-22.5 39.5q-10 20 -10 46t-6 46z" />
<glyph unicode="U" horiz-adv-x="1210" d="M4 260q0 2 1 20.5t2 43t5 50t8 46.5q2 12 7.5 29.5t9.5 35.5v15l110 364l154 365q18 8 24.5 31.5t18.5 44.5q6 4 14.5 13t10.5 21q4 12 4 25.5t4 28.5q0 -2 2 -2q2 -2 10 -2q10 0 9 -3.5t8 -3.5q8 0 13 7.5t11 7.5q10 0 8 -4t8 -4q8 0 8.5 2t10.5 2q31 0 41 -23.5 t10 -36.5q0 -16 -9 -56t-21.5 -79t-23.5 -67.5t-13 -22.5q-2 -6 1 -9t1 -9q-23 -66 -49.5 -131.5t-53.5 -129.5q-6 -12 -7 -32.5t-5 -34.5q-16 -45 -32.5 -88t-33.5 -88q-2 -6 -3 -21.5t-3 -27.5q-12 -33 -29.5 -72t-27.5 -76q-4 -25 -8 -57.5t-6.5 -63t-3.5 -53t-1 -27.5 q0 -16 2.5 -30.5t24.5 -14.5q25 0 61.5 23.5t59.5 48.5q2 2 12 2q55 66 122 136.5t116 154.5q25 39 54.5 76t57.5 73q2 0 2 9.5t7 13.5q23 29 48 64.5t44 70.5q10 16 23.5 44t28.5 53.5t29.5 48t26.5 28.5q-4 23 21.5 55.5t36.5 53.5q4 10 13 28.5t17.5 43t18.5 49t18 47.5 q8 16 16.5 35.5t20.5 37.5q6 -4 12 1.5t17 5.5q8 0 4 -5.5t4 -5.5q10 0 9 3t-1 5q10 -4 24.5 -0.5t24.5 3.5q2 0 13.5 -9.5t23.5 -24t24.5 -28.5t20.5 -22q2 -6 2 -16.5v-20.5q0 -29 -9 -74t-21.5 -92t-24.5 -92t-16 -76q-4 -23 -16.5 -51.5t-8.5 -48.5q-14 -57 -21.5 -98.5 t-15.5 -90.5q-4 -29 -10 -65.5t-11.5 -69.5t-10.5 -57.5t-5 -28.5v-123q0 -10 -5 -8t-5 -8q0 -33 11.5 -64t23.5 -49q14 -16 33.5 -26.5t35.5 -22.5q4 -16 27 -43q-6 -8 -7 -22.5t-11 -14.5h-21q-4 -4 6 -12q-6 0 -12 -6.5t-14 -6.5q-10 0 -10.5 4.5t-10.5 4.5 q-6 0 -43 20.5t-59 36.5q-12 8 -24.5 22.5t-20.5 22.5q-4 2 -9.5 7t-9.5 -1v6q0 2 4 6q-18 20 -28 56.5t-21 75.5q0 10 2 14q-2 10 -7 22.5t-5 22.5v315q-2 6 -1 7t-3 6q-59 -78 -119.5 -168t-125 -177.5t-137.5 -160t-157 -111.5q-6 -4 -14 0q-8 -6 -26.5 -10t-38 -5 t-40 -1h-30.5q-12 0 -24.5 8t-24 19.5t-22.5 21.5t-17 10q-8 0 -4 -3t-4 -3q-10 0 -35 29.5t-33 50.5q-10 14 -16 33q-2 6 -3.5 17t-5.5 24q-4 6 -6 13t-4 15q0 4 -1 14.5t-1 20.5z" />
<glyph unicode="V" horiz-adv-x="681" d="M2 1327q0 10 6 19.5t8 21.5q8 4 30 10t34 6t41 -19t33 -32q6 -18 14 -40.5t14 -45.5q12 -63 14.5 -133t4.5 -135q2 -49 6 -114.5t4 -106.5q-2 -74 -5 -158v-27q0 -72 13 -151q27 18 39 48t31 56q8 12 19 22.5t22 26.5q4 10 8 22.5t8 20.5t18.5 20.5t22.5 29.5 q37 68 79 140.5t85 135.5q12 23 37.5 54.5t44.5 64.5q20 31 44.5 66.5t47.5 68.5q2 2 7 3t7 7q16 33 44 73t46 69h7q27 23 59.5 60.5t44.5 74.5q16 0 25 20q6 0 12 -1t6 -7t4 -12h2q6 -12 5 -14.5t-5 -10.5v-4q8 4 17 0l20 19q-4 -18 -21.5 -31.5t-11.5 -30.5h2q2 0 3 2t3 2 q-6 -8 -14 -4q-6 -14 -16 -29.5t-21 -35.5v-2q0 -2 2 -7q8 8 16.5 18.5t20.5 16.5q-2 -6 -13 -24.5t-1 -22.5q-12 -18 -38 -52t-34 -52q-18 -57 -50 -90t-42 -70q-2 -8 -10 -17.5t-10 -17.5q-2 -12 -4.5 -25.5t-8.5 -23.5q-10 -20 -20 -35.5t-23 -34.5q-12 -14 -20 -37.5 t-21 -42.5q-12 -25 -32.5 -49t-34.5 -51q-8 -16 -2 -29q-12 -14 -14.5 -23t-10.5 -28q-23 -4 -33 -26q4 -4 15 -5q-6 -12 -14.5 -23t-16.5 -17q-4 -2 -1 -7.5t1 -7.5q-4 -2 -6 -1t-4 -3q-27 -57 -64 -123.5t-67 -128.5q-4 -12 -11.5 -28.5t-17.5 -28.5q-6 -8 -14.5 -16.5 t-10.5 -14.5q-23 -49 -41 -104.5t-45 -104.5q-6 -6 -28.5 -17t-32.5 -11q-8 0 -17.5 8t-19.5 14q-6 2 -10 2h-10q-23 18 -35.5 39t-48.5 35q2 21 2 47q0 49 -8 115q-12 102 -15 211q-4 27 -5 56.5t-1 59.5q0 37 -2 102.5t-5 132t-4 116t-1 55.5zM764 1276l12 18l4 -6l-8 -16 zM883 1425l8 13l6 -4l-12 -13zM913 1466l13 13l6 -6l-12 -13zM932 1327q12 0 12 12zM952 1509l43 39l4 -4l-41 -39zM963 1401l6 -2l6 12l-6 2zM975 1507v9l10 6l2 -6z" />
<glyph unicode="W" horiz-adv-x="1400" d="M6 184q-2 14 -2 26.5t2 22.5q2 127 34 255t81 254t108.5 242t128.5 247q0 2 1 8t-3 14q12 2 14.5 9.5t8.5 19.5q2 12 10 22.5t14 16.5q2 6 2.5 15.5t4.5 15.5q23 37 43 71.5t53 65.5q10 12 29.5 14t39.5 8q18 -18 40 -58t22 -75q0 -2 -12.5 -30.5t-29.5 -65.5t-35.5 -78 t-33.5 -67q-10 -23 -27.5 -51.5t-36 -62.5t-28.5 -57.5t-16 -52.5l-10 -20q-43 -111 -93.5 -224.5t-81.5 -224.5q-4 -14 -13 -43.5t-16 -59.5t-13.5 -53.5t-6.5 -25.5v-90v-4q0 -2 9 -2q6 0 23 24.5t30 38.5q49 59 104.5 149.5t112.5 174.5q4 4 10 25q2 6 -4 6h4q2 0 4 -2 q8 12 11.5 32.5t13.5 20.5q8 0 3 -2t-1 -6q8 12 19.5 21t23.5 24q14 23 21 48t32 44q2 0 2 2q0 4 -4 4q-10 0 -9 -1t-3 -1q4 8 10 20.5t12 12.5q8 0 4 -3t0 -7q8 10 6 16t5 12q4 -4 12 -4q6 10 8 18.5t19 28.5q2 6 -1.5 11.5t1.5 13.5q0 -8 4 -13q16 12 8 37v-2q0 -4 4 -8 q0 2 9 17.5t-3 7.5q12 8 18.5 18t16.5 23q-8 0 0 14t20 20l-8 -10v-2q0 -2 2 -4q12 12 23 16q0 10 -11 11q12 -4 26.5 -3t29.5 3q6 -2 11 -9.5t9 -7.5q10 0 6 2t4 2q6 0 24.5 -8t31.5 -14q12 -2 26.5 -25.5t18.5 -36.5q4 -18 10 -39.5t6 -31.5l-24 -395q0 -4 2 -22.5 t3 -43.5t2 -52.5t-1 -47.5q4 -6 3 -8.5t9 -2.5t31.5 31t46 69t44 73.5t28.5 46.5q4 6 6 22t10 29q20 23 37 53q6 12 9 34.5t9 37.5q6 23 18.5 47t20.5 47q8 25 21 51q12 35 14 73t6 72q10 4 10 15q8 41 14.5 91t16.5 93q4 14 11.5 32.5t13.5 31.5q16 0 18 -23.5t10 -23.5 q20 0 29 2q6 -8 9 -23.5t9 -30.5q4 -8 13.5 -10t13.5 -6q2 -16 1 -34.5t3 -37.5q6 6 17 27q-4 -20 -4.5 -38.5t6.5 -45.5q2 -4 4 -4t2 -10v-28t-1 -54.5t-3 -61.5t-4 -45q-6 -20 -13.5 -42.5t-15.5 -47.5q-2 -8 2 -20.5t2 -24.5q-12 -61 -41 -107.5t-57 -101.5 q-10 -12 -6 -37q0 -8 -9.5 -14t-15.5 -19q-2 -2 0 -7t2 -9q-18 -41 -46 -84t-54 -70q-2 -4 -6.5 -15t-10.5 -21q-8 -10 -22.5 -26.5t-32.5 -35t-36.5 -34t-33.5 -19.5q-8 -6 -22.5 -7t-24.5 -1h-39q-10 0 -47 15t-57 30q-12 12 -27.5 33.5t-36.5 33.5q-20 43 -27 107.5 t-7 105.5q0 2 -1 17.5t-3.5 33t-4.5 33t-2 19.5v145q0 6 4.5 22.5t-0.5 28.5q-29 -27 -51 -50t-43 -50q-47 -68 -98 -148.5t-88 -156.5q-2 -4 -7 -8t-12 -13q-6 -16 -17 -42.5t-24 -47.5q0 -2 -20.5 -33.5t-49 -70.5t-59 -70t-47.5 -31q-8 0 -20 8.5t-21 8.5q-8 0 -12 -5 t-8 -5q-68 61 -104.5 106t-41.5 88q-10 20 -14 49zM584 713l6 -6l12 18l-6 4zM633 848l12 12l4 -6l-12 -12z" />
<glyph unicode="X" horiz-adv-x="987" d="M4 121q0 6 12.5 28.5t32 56.5t43 70.5t43.5 67.5q68 98 142.5 206.5t146.5 217.5q6 10 6 27l-88 600q8 6 19.5 10t17.5 12q6 -6 13 -15t18 -16q12 -6 25.5 -11t23.5 -11q18 -12 36.5 -32.5t39.5 -43.5q2 -4 2 -14q29 -35 38 -86t15 -98q4 -2 12 -3q0 -6 -3 -9t-3 -13 q0 -8 5 -16.5t11 -20.5q47 53 98.5 116.5t96.5 119.5q4 8 28.5 41.5t54.5 70.5t59.5 67t43.5 30q10 0 36 -8.5t40 -16.5q-2 0 -2 -2q-2 -2 -2 -8q12 -27 22.5 -38.5t10.5 -31.5q0 -8 -12.5 -38t-22.5 -52l4 -8q-74 -94 -125 -182.5t-94 -153.5q-51 -61 -92 -113 q-35 -43 -64.5 -86t-29.5 -59q0 -8 4 -13.5t4 -13.5q2 -51 8 -74.5t16 -54.5q-2 -6 -5 -11t-3 -9q12 -10 15.5 -32t5.5 -32q6 -20 12 -39.5t12 -36.5q18 -53 40 -106t48 -109q16 -35 41 -74.5t41 -70.5q6 -12 23.5 -33.5t38.5 -34.5q4 -2 2 -5t6 -3t25.5 5t29.5 10 q-6 -4 -6 -9.5v-9.5q8 -6 16 -8t8 -6q6 -12 13.5 -22.5t7.5 -20.5q0 -12 -16.5 -27.5t-24.5 -15.5q-10 0 -17.5 2t-17.5 2h-26q-8 0 -26.5 14.5t-31.5 22.5q-27 16 -56.5 44.5t-58 59.5t-51 62.5t-34.5 58.5q-4 6 -8.5 8t-8.5 8q-25 45 -58.5 104.5t-58.5 108.5 q-12 25 -22 61t-29 54q0 12 -6 33q-12 -2 -18.5 -9.5t-10.5 -13.5q-25 -35 -50 -60.5t-48 -51.5q-20 -23 -33.5 -52.5t-38.5 -54.5q-61 -63 -84.5 -102t-54.5 -82v4q0 2 -6 6q-14 -10 -31 -35q-23 8 -55 0q-10 10 -14 25q0 10 -21 10q-12 20 -28.5 42t-16.5 32z" />
<glyph unicode="Y" horiz-adv-x="958" d="M2 465q0 6 3 26.5t3 32.5q0 66 16.5 132.5t30.5 129.5q10 35 28.5 85.5t35.5 91.5q-2 0 -2 4q0 2 -1 2t-1 2q20 41 53 117.5t67.5 150.5t63.5 129t45 55q8 0 28.5 -4t35.5 -8q6 -18 22 -37.5t16 -30.5q0 -25 -7 -39l-13 -26q0 -4 8 -12q-20 -47 -47 -107.5t-35 -91.5 q-4 -14 -11 -30.5t-13 -28.5q-25 -49 -46.5 -109.5t-35.5 -114.5q-18 -57 -33.5 -107t-24.5 -95q-2 -8 -9 -19.5t-13 -23.5q-12 -35 -14 -73t-9 -81q25 18 52.5 48t50.5 54q4 2 12 5.5t14 11.5q55 63 106.5 113.5t100.5 99.5q127 127 220.5 260t166.5 278q6 12 4 28.5 t-8 23.5q4 6 7 9t12 3q8 0 19 -7t18 -9q10 -2 25 -1t30 -8q4 -4 11 -14t17 -16q8 -8 20.5 -11.5t16.5 -15.5q6 -6 9.5 -20.5t3.5 -24.5q0 -4 -7.5 -45t-18.5 -97.5t-23.5 -118t-22.5 -106.5q-18 -63 -39.5 -132.5t-40.5 -129.5q-6 -14 -9 -44t-22 -50q-2 -35 -19.5 -102.5 t-35.5 -122.5q-6 -20 -15.5 -52t-15.5 -59q-14 -70 -32.5 -157t-40.5 -177q-2 -12 -9.5 -26.5t-9.5 -28.5q-8 -39 -14 -81t-12 -85q14 6 20 21q-8 -18 -2 -29l10 8q-4 -10 -1 -20.5t9 -16.5q-4 -4 -4 -8v-10v-2q0 -4 4 -4q-4 -4 -4 -21l6 -2q0 -10 -5 -18t-9 -17q4 -4 6 -3 t8 1q-6 -27 -15 -54.5t-17 -49.5q-6 -12 8 -19q-2 0 -10.5 1t-14.5 1q-10 0 -12 -2t-12 -2t-21.5 7.5t-21.5 7.5q-8 0 -4 -3t-4 -3t-20.5 12t-24 28.5t-19.5 31t-8 18.5q-6 20 -12.5 44.5t-8.5 45.5l86 452q23 98 46.5 198.5t50.5 199.5q12 51 32.5 111.5t28.5 119.5 q2 12 1 37t3 47q4 12 11.5 35.5t11.5 44.5l-2 18q-25 -35 -70 -88t-102 -94q-14 -12 -26.5 -29.5t-31.5 -33.5q-6 -8 -17 -14.5t-20 -12.5q-12 -12 -49 -60.5t-84 -100.5t-98 -93t-88 -41q-6 0 -36 7t-42 20q-23 16 -44 56t-34 73q-8 20 -9 51t-1 41z" />
<glyph unicode="Z" horiz-adv-x="978" d="M-2 37l2 2q2 2 2 3t2 3q2 12 5 21.5t3 21.5q-2 -2 -2 0q-4 0 -4 10q0 8 9.5 14.5t19.5 16.5q2 6 5 9t3 5q16 25 37.5 57.5t45.5 65.5t49.5 64.5t47.5 58.5q14 20 33.5 43t32.5 41q78 96 164 215t165 236q2 2 2.5 9t6.5 15q16 27 39.5 58.5t48.5 66.5q2 4 2 9t2 8 q12 18 22.5 37.5t14.5 31.5q6 10 20.5 21.5t22.5 23.5q23 33 43 73t41 75q-6 8 -26.5 10t-29.5 2q-27 0 -58.5 -5t-65 -11.5t-62.5 -13.5t-51 -15q-35 -12 -78 -29.5t-78 -34.5q-14 -8 -33.5 -19t-38 -21.5t-35 -18.5t-22.5 -8h-31q-6 0 -17 10t-21 23q-2 20 -12.5 41.5 t-10.5 33.5t9 18.5t22 24.5q4 6 9 22.5t9 31.5q2 0 12 -11q37 14 75 28.5t81 31.5q10 4 25 20q4 -6 8 -11t14 -5q6 0 16.5 4t14.5 8q-4 6 -14.5 2t-22.5 -8q8 10 22.5 17.5t30 12.5t25.5 8t14 3q8 0 8 -6t11 -6q10 0 39.5 15t58.5 22q2 0 8 2q4 0 9 2t16 2q-2 -6 -10.5 -7 t-14.5 -10q47 0 98 9q6 0 17.5 8t21.5 8t16.5 -9.5t16.5 -9.5q8 0 18.5 2.5t20.5 2.5t25.5 -7.5t29 -15.5t24.5 -17l11 -10q8 -27 23.5 -53t15.5 -59q0 -37 -13.5 -69t-31.5 -61.5t-39.5 -61t-38.5 -70.5v2q0 2 -4 6q-8 -4 -6 -15.5t-4 -17.5q-6 -8 -17.5 -19.5t-21.5 -23.5 q-16 -18 -27.5 -41.5t-23.5 -44.5q-6 -4 -14.5 -9t-12.5 -16q-6 -4 -5 -14t-3 -14q-8 -14 -20.5 -30.5t-24.5 -25.5q6 -4 -1 -15t-16 -15h-2q-6 0 -6 -6q-4 -25 -29.5 -51.5t-33.5 -53.5q-14 -12 -30.5 -34.5t-29.5 -39.5q0 -2 -1 -11t-5 -13q-25 -35 -50.5 -65.5 t-53.5 -65.5q-4 -4 -8 -16.5t-9 -22.5q-45 -63 -96 -124.5t-100 -125.5q8 -6 16 -3t17 -15q2 0 2 2q0 4 2 6q25 4 51 10t55 12l2 2q2 2 3 2t3 2q41 8 53.5 11.5t43 4.5t67.5 9t66 12q10 0 28.5 2t37 4.5t32.5 3.5t21 1q6 0 13 -5.5t17 -5.5q8 0 17.5 5.5t17.5 5.5 q12 0 22.5 -3.5t20.5 -3.5q4 0 20.5 2.5t43 4.5t32.5 3t13 1q4 0 22.5 -3t36.5 -7.5t36.5 -8.5t22.5 -4q10 0 10.5 4t10.5 4q6 0 27.5 -1t29.5 -1h13q10 0 25.5 -5t27.5 -9q-10 4 -25 0q4 -8 5 -18.5t10 -22.5q-12 4 -22.5 2t-20.5 -2q-12 0 -13 -8q-4 0 -8 4t-8 10 q-4 0 -4 1t-6 -3q8 -8 8 -12q-6 4 -15.5 2t-19.5 2q-2 0 -2 -2l-6 -6q0 -4 3 -10.5t3 -10.5q-8 0 -15.5 -3t-17.5 -3t-5 3t1 7q-2 0 -10 -8q-20 0 -44 -3t-34 -7t-30.5 -7t-24.5 -3q-8 0 -16.5 -6.5t-16.5 -6.5q-27 -4 -64.5 -10t-74.5 -20q-72 -12 -137.5 -19.5 t-104.5 -15.5l-145 -51q-25 -2 -47.5 -17.5t-34.5 -23.5q-20 -12 -45 -17.5t-43 -15.5q-10 -2 -20.5 -7t-22.5 -9q-16 -4 -43 -4.5t-37 -0.5q-2 0 -18.5 16.5t-28.5 16.5q-14 10 -17.5 26.5t-3.5 34t-1 32t-7 22.5zM268 1364l15 4l-2 8l-13 -6v-6zM526 1464l13 4l-4 9l-9 -7 v-6zM592 1491q0 2 2 4q0 4 6 8q4 -4 0 -8t-8 -4zM631 1493l14 6l-2 6l-12 -4v-8zM651 1499h17v6h-17v-6zM670 1503h12v8h-12v-8zM805 1518h22v8h-22v-8z" />
<glyph unicode="[" horiz-adv-x="786" d="M55 -57q0 10 6.5 26.5t6.5 28.5q-2 23 -7.5 51.5t-5.5 40.5l105 739q0 6 3 37t10 73t13.5 89t6.5 80q2 31 4 65.5t4 67.5q2 23 1 53.5t-2 59t-2 51t-1 27.5q-2 8 4 31.5t14 41.5q6 -2 5 -5t5 -9q6 10 6 25.5v29.5l29 -2q8 0 13.5 -12t7.5 -19q8 -2 13 -6t15 -6q12 2 35 7 t35 3q10 -2 48 2.5t65 8.5q20 0 40.5 -1t40.5 -1v6q0 2 11 0q10 2 10 -1t12 -3l23 -2q8 0 14 -14.5t16 -14.5q12 0 13.5 3t7.5 3q6 -8 9 -9t3 -7q-2 -6 -3 -11.5t-5 -9.5q-4 -14 10.5 -13t44.5 -15l2 -21l-12 -8q-25 -8 -41 -26.5t-47 -8.5q2 -12 10 -22q-18 0 -41.5 -1.5 t-45 -3.5t-41 -4t-23.5 -2q-12 0 -36 5.5t-34 5.5t-32.5 -3.5t-35.5 -7.5q-4 -33 -6 -79t-2 -56l-8 -151q0 -6 -5 -46t-9 -88.5t-8.5 -88.5t-4.5 -46q0 -2 -4 -37.5t-16 -134t-18.5 -147.5t-12.5 -86q0 -4 3 -7t1 -10q-8 -43 -17 -95t-13 -91q-8 -18 -14.5 -49t-8.5 -41 l-2 -55q18 -8 46 -9.5t54 -5.5q10 -4 38 -7t51 -7q6 -20 29.5 -24.5t35.5 -8.5q12 -16 14 -39q4 -8 18.5 -11t22.5 -9q-16 -12 -41.5 -30.5t-42.5 -31.5q-6 0 -14 -4t-18 -4q-29 2 -64 7t-66.5 10.5t-59 7.5t-42.5 2q-27 0 -52.5 9t-43.5 13q-12 10 -19.5 26.5t-7.5 31.5z " />
<glyph unicode="\" horiz-adv-x="632" d="M20 1200q0 16 1.5 27.5t19.5 36.5q-2 29 18 61q8 -12 37 -17t39 -26q12 -14 25.5 -67.5t29.5 -94.5q25 -57 51.5 -112.5t30.5 -108.5l131 -438q12 -12 15 -12q-2 -6 3 -19.5t5 -30.5q14 -78 37.5 -127t44.5 -108q-8 -10 0 -19q12 -25 36 -68.5t44 -53.5q-8 -12 -38 -31 t-22 -37q-8 10 -30.5 17.5t-28.5 15.5q-31 31 -61.5 70.5t-47.5 72.5q-14 35 -39.5 90t-51 120t-49 133.5t-42.5 129.5q-23 63 -44 155.5t-44 172.5q-23 66 -46.5 136.5t-23.5 131.5z" />
<glyph unicode="]" horiz-adv-x="753" d="M6 -68l10 9q27 8 43.5 26.5t44.5 7.5q0 10 -8 23q18 0 42 1t45.5 3t40 4t22.5 2q12 -2 36.5 -6t34.5 -4t32 3t34 7q6 33 8 79t2 56l8 152q0 6 5.5 46t8.5 88t7 87t6 45q0 2 4 39t16.5 135.5t18.5 147.5t12 84q0 4 -3 8t-3 10q10 41 19.5 94.5t13.5 91.5q8 18 14 48t8 41 l2 55q-18 10 -45.5 11t-54.5 5q-12 4 -38.5 7t-49.5 8q-6 18 -29.5 23t-38.5 9q-10 16 -14 39q-2 6 -16.5 10.5t-22.5 8.5q16 14 42 32.5t42 30.5q6 0 14.5 4t18.5 2q29 0 62.5 -5t66.5 -10t60.5 -7t41.5 -4q27 2 52.5 -8.5t44.5 -12.5q10 -10 18 -26.5t8 -30.5 q0 -10 -6 -26.5t-6 -28.5q2 -25 7 -53t5 -40l-106 -741q0 -6 -2 -37t-9.5 -72t-13.5 -88t-8 -79q0 -31 -2 -66t-4 -68q-4 -23 -2 -53.5t2 -59t2 -51t2 -26.5q2 -8 -4 -31.5t-15 -42.5q-6 0 -6 3t-4 12q-6 -10 -6 -25.5v-30.5h-29q-8 2 -13 14.5t-7 18.5q-8 2 -13 5t-16 7 q-12 -2 -34.5 -7t-34.5 -5q-10 4 -48 0t-65 -10q-20 2 -40.5 3t-41.5 -1l-2 -6q0 -2 -10 2q-10 -2 -9 1t-12 3l-22 2q-8 0 -14.5 13t-16.5 16q-12 0 -13 -3.5t-7 -3.5q-6 6 -10.5 8.5t-2.5 8.5q2 4 3 9t5 11q2 14 -12 13.5t-43 15.5z" />
<glyph unicode="^" horiz-adv-x="780" d="M21.5 786.5q-1.5 8.5 1.5 16.5q4 23 10 44t12 44q6 14 11 31.5t12 31.5q33 82 75.5 167t83.5 165q6 2 7.5 1t7.5 5q14 41 39.5 103.5t50.5 109.5q6 8 -2 17q6 0 11 2t11 2q6 8 3 17t-3 18q31 10 49 38h21q4 -10 7 -16t13 -6q12 0 17.5 5t13.5 11q8 -12 25.5 -25.5 t25.5 -27.5q12 -23 18.5 -50.5t10.5 -47.5q4 -6 6 -12.5t8 -10.5q20 -109 61.5 -251t88.5 -271q2 -14 11 -33.5t17.5 -38t13.5 -35t5 -18.5q0 -12 -3 -36.5t-13 -24.5l-11 6v-25q-20 4 -32.5 0t-20.5 0q-6 2 -3 5t-9 3q-29 0 -36 13.5t-13 13.5q-10 0 -9.5 -2t-5.5 -2 q-59 139 -102 275.5t-92 285.5q-39 -68 -78 -166t-92 -186q-31 -51 -59.5 -111.5t-28.5 -105.5q-6 0 -10.5 -2t-8.5 4q-6 -6 -9 -11.5t-9 -11.5q-8 10 -17.5 15.5t-17.5 9.5q0 8 4 18.5t-2 22.5q-4 -4 -4 -10.5t-6 -10.5q-6 8 -21.5 19.5t-25.5 19.5q-6 0 -7.5 8.5z" />
<glyph unicode="_" horiz-adv-x="1146" d="M125 80q-2 6 3 10t11 8q6 0 13.5 5.5t16.5 10.5t16.5 11t11.5 6l385 12h30.5t63.5 -3t73.5 -6t61.5 -3q14 -4 28.5 -5t28.5 -5q51 -2 108.5 -13.5t108.5 -19.5l2 -12q-20 -4 -17 -15.5t-5 -17.5q2 -4 18 -12q-6 -2 -12 -5t-12 -10q6 -4 8 -6l6 -6q-16 2 -36.5 1t-26.5 -3 q-4 0 -11.5 -3t-13.5 -5l-219 16q-12 0 -21.5 1t-17.5 1q-6 0 -5 -4t-5 -4t-37 1t-49 1h-43t-49.5 -1t-41 -1h-20.5q-6 0 -8 -3t-2 -5l-268 -16q-25 10 -38.5 21t-33.5 28z" />
<glyph unicode="`" horiz-adv-x="964" d="M414 1458q0 10 8 22.5t2 24.5q12 0 16 4q-4 8 -11 11.5t-15 9.5v24q23 6 27.5 2t13.5 -4q8 0 16 5.5t16 11.5q4 -6 14.5 -14.5t22.5 -8.5q8 0 16.5 5t16.5 5q6 -4 4 -8t-2 -10q8 -6 22.5 -18.5t24.5 -26.5q29 -31 68 -73t63 -87q4 -6 3 -16t-1 -21q0 -4 11.5 -10 t13.5 -14q4 -8 6 -16.5t2 -18.5q0 -12 -10 -26.5t-10 -28.5h-22.5t-22.5 -4q-16 -4 -7 -11q-14 2 -34.5 11.5t-34.5 21.5q-41 41 -96.5 101.5t-110.5 115.5q-2 4 -6 16.5t-4 24.5z" />
<glyph unicode="a" d="M4 127q0 45 26.5 116.5t64.5 144.5t78 137.5t67 99.5q10 14 35.5 38.5t46.5 38.5q14 6 29.5 22.5t29.5 29.5q4 4 2 9t2 9q14 6 24.5 6t18.5 6q16 10 25 29h16q20 -18 35 -18q8 0 16 -2t17 -2q18 20 16 30t18 10q10 0 9.5 -8t9.5 -8q12 0 8 3t4 3q18 0 48 -13t42 -28 q4 -8 9.5 -24.5t-1.5 -22.5q0 -6 3.5 -1t3.5 -7q0 -6 -6.5 -30.5t-17.5 -58.5t-20.5 -72t-15.5 -66q-8 -39 -17 -94.5t-15.5 -104.5t-9.5 -86t-3 -41q0 -8 3 -28.5t3 -34.5q16 -6 32.5 -2t29.5 4q12 0 53 16t88 36.5t86 39t43 20.5q-4 -12 -18.5 -20t-18.5 -19 q-16 -14 -8 -28q-12 -14 -33.5 -33t-44.5 -35q0 -2 6 -8t11 -6q-16 -2 -36 -14.5t-39.5 -24.5t-34.5 -21.5t-22 -9.5h-86q-31 0 -60.5 26.5t-51 59.5t-34.5 63.5t-13 34.5q0 18 -1 47t-5 58q-16 -29 -34 -53.5t-36 -55.5q-8 -12 -29.5 -42.5t-49.5 -62.5t-57.5 -56.5 t-51.5 -24.5q-8 0 -21.5 -4t-21.5 -4q-51 0 -76 25.5t-54 50.5q-2 12 -9 32.5t-7 28.5zM254 301l12 -14q49 59 92 139t88 154l-12 -13q-6 6 -3 12.5t3 10.5q-51 -61 -97 -139t-83 -150z" />
<glyph unicode="b" horiz-adv-x="716" d="M82 328v7q0 15 6 46q8 39 19.5 80t21.5 74.5t10 35.5q31 102 66 222t70.5 242t69.5 236.5t61 207.5q10 31 20 71.5t29 73.5q12 6 27.5 7t25.5 1h2q6 0 16 -9q12 -11 23.5 -24.5t16.5 -19.5l14 -18q2 -12 -3.5 -14.5t-9.5 -8.5q10 -20 10 -47q0 -15 -3 -32q-9 -48 -13 -70 q-12 -55 -31.5 -131t-39 -157t-43 -165t-44.5 -158q-8 -39 -26.5 -86t-34.5 -96l8 -8q18 18 39 25.5t45 11.5q10 1 20 1q29 0 60 -8q41 -12 75 -34.5t57.5 -57t27.5 -75.5q0 -2 1 -5q0 -12 -6 -44q-7 -40 -16 -72q-8 -23 -23.5 -63t-27.5 -68q-8 -12 -26.5 -46t-42 -71 t-44 -64.5t-28.5 -29.5q-10 0 -7 5t-10 5q-8 -2 -23 -18.5t-30 -20.5l4 2v6q-10 2 -20 7.5t-21 2.5q-12 -2 -8 -4t-6 -4q-10 0 -17.5 7.5l-13.5 13.5q-2 2 -14 15t-23.5 29.5t-20.5 36t-9 27.5q-2 12 8 39t16 33q14 -8 17.5 -18.5t6.5 -18.5t7 -11t16 -3q10 2 25.5 21.5 t32 45t31 53t20.5 44.5q20 41 36.5 96t30.5 94l-4 27q-10 0 -16 -16.5t-20 -24.5q-29 -16 -43.5 -33.5t-20.5 -38.5q-6 -2 -8 0t-8 2q4 -12 -7.5 -31.5t-28 -42t-31.5 -44t-21 -38.5q10 -12 18 3q-12 -10 -27.5 -28t-25.5 -20q-12 -2 -36 1.5t-34 0.5q-10 0 -26.5 20.5 t-32 47.5t-25.5 48z" />
<glyph unicode="c" horiz-adv-x="600" d="M6 248q0 45 14.5 124t45.5 132q4 2 4 10t2 16q14 31 29.5 59.5t35.5 53.5l26.5 26.5t20.5 28.5q0 4 -2 7q-8 -8 -8 -11q18 23 40 60t46 63q6 10 20.5 12t26.5 9q10 6 16.5 14t18.5 8q8 0 39 -6t47 -14q16 -10 43 -33t37 -47q8 -16 14 -41t6 -37q0 -8 -4 -31.5t-10 -48 t-14 -47.5t-17 -27q-8 -6 -30 -6q-25 0 -38.5 16.5t-19.5 39.5q-6 16 -15 31.5t-3 31.5v2h-6q-57 -72 -100.5 -146.5t-69.5 -131.5q-8 -18 -17.5 -46t-17.5 -55.5t-14.5 -49t-6.5 -26.5v-28q14 -6 33 -10.5t27 -4.5t36.5 13.5t53.5 23.5q55 23 123.5 48.5t140.5 62.5 q18 10 60 34t79 40q-8 -8 -14 -24.5t-18 -16.5q-10 0 -9.5 3t-3.5 -3q0 -6 -3 -8.5t5 -2.5q10 0 9.5 1t5.5 1q-6 -6 -11.5 -19t-1.5 -19q-18 -16 -40.5 -33t-38.5 -33q0 -8 10 -8v-21q-37 -20 -79 -46.5t-97 -59.5q-6 -6 -11.5 -17.5t-13.5 -17.5q-8 -4 -30.5 -12t-48 -16.5 t-52.5 -14.5t-43 -6q-41 0 -77 19.5t-63.5 48t-45 65.5t-19.5 70q0 12 -1 26.5t-1 24.5z" />
<glyph unicode="d" horiz-adv-x="894" d="M4 98q-1 14 -1 29q1 48 15 106q20 76 51 152t65 146.5t61 117.5q12 20 28.5 42t36.5 42q4 6 17.5 14.5t21.5 12.5q6 4 19.5 6t25.5 2q8 2 9 -7t14 -9q10 2 9 5t-1 9q14 -12 37.5 -17.5t40.5 -15.5q8 -8 19 -22.5t28 -26.5q4 6 5 6t5 4q31 94 57.5 174t55 159t63.5 157 t80 164q12 0 36.5 -4.5t48 -10.5t43 -22t21.5 -43q0 -8 -4 -24.5t-8 -26.5q-6 -8 -17.5 -23.5t-11.5 -24.5q-2 -57 -31.5 -115.5t-66.5 -162.5q-4 -6 -2 -20.5t-2 -24.5q-6 -20 -13 -49t-14 -49q-4 -16 -12 -37t-12 -35q-14 -63 -31.5 -126t-32.5 -208q4 -8 8.5 -16.5 t0.5 -14.5q0 -16 -3.5 -39.5t-8.5 -45t-7 -38t-2 -22.5l4 -35q14 -6 38 -11t36 -3q33 4 77 21.5t86 40t75.5 40t42.5 25.5q-4 -16 -6.5 -35t-4.5 -33q-4 -16 -22.5 -35.5t-30.5 -29.5q-6 -4 -10 -13.5t-8 -23.5q-18 -8 -41 -17.5t-27 -23.5q-27 -10 -65.5 -21.5t-47.5 -11.5 l-51 -6q-10 -2 -6 2t-6 2q-6 0 -19.5 5t-31 11t-31.5 16.5t-25 16.5q-8 12 -25.5 33.5t-33.5 49.5t-29.5 97.5t-17.5 96.5q-14 -18 -29.5 -45t-29.5 -60q-18 -33 -42 -70.5t-51 -66.5q-10 -10 -25.5 -26.5t-19.5 -28.5q10 -12 19 -4q-20 -18 -39 -34t-28 -28t-17 -19.5 t-29 -9.5q-8 0 -29.5 3.5t-38.5 3.5q-53 47 -75.5 80.5t-26.5 78.5zM217 240q14 25 35.5 52t36.5 34q2 10 6 26.5t12 16.5q6 2 11.5 -2.5t3.5 2.5v12q18 8 19 20.5t9 34.5q6 -6 1 -10t7 -2q8 0 11.5 13.5t-0.5 21.5q6 6 18 13t16 28q-6 8 -4 18.5t2 18.5q-2 10 -3 25.5 t-9 29.5q-8 -8 -20.5 -18.5t-18.5 -8.5q2 -6 2 -11t-6 -11q-12 -20 -32.5 -47t-30.5 -50q-18 -33 -30.5 -66.5t-23.5 -64.5q0 -4 3.5 -7t3.5 -9q-6 -14 -11.5 -31.5t-7.5 -27.5z" />
<glyph unicode="e" horiz-adv-x="544" d="M8 217q-4 29 -4 52q0 26 5 45q9 36 16 61q6 29 26.5 82t42.5 100q12 25 28.5 58.5t39.5 70.5q10 14 26.5 34.5t26.5 41.5q23 20 34 36.5t42 35.5q14 6 36.5 16t18.5 27q-4 -2 -4 -5q0 -6 8 -6q12 0 6 3t6 3q8 0 26 -10t32 -14q4 -14 4 -26.5t10 -12.5q12 0 8 3t7 3 q8 0 13 -6t11 -12q0 -31 5 -43.5t13.5 -16.5t15.5 -9t7 -26q0 -4 -4 -23.5t-9 -45t-12.5 -51t-13.5 -45.5q-12 -25 -39.5 -65t-54.5 -73q-25 -25 -53.5 -59.5t-57 -64t-47 -52t-18.5 -30.5q0 -12 21.5 -27.5t39.5 -24.5q10 -6 29.5 -6h30.5q16 0 31.5 8.5t39.5 -2.5 q41 12 79 24.5t69 20.5q10 -8 20 -8q-16 -6 -26.5 -15t-24.5 -13q0 -14 23 -21q-6 -8 -11.5 -21.5t-11.5 -27.5q-27 6 -40 -19.5t-13 -50.5q-18 -6 -38 -9t-42 -3q-8 -4 -3 -6t11 -2q-16 -2 -37.5 -11.5t-38.5 -11.5v-6q0 -4 -8 -4t-23.5 6t-28.5 9t-24.5 1t-13.5 -16 l-22 31q-45 10 -67 26.5t-60 57.5q-14 8 -19.5 12t-8.5 12t-10.5 33t-19.5 88z" />
<glyph unicode="f" horiz-adv-x="839" d="M2 502q0 6 11.5 8t0.5 25q20 -14 31.5 -16.5t19 -1.5t16.5 4t28 3q10 0 7 5.5t5 5.5q14 0 32.5 -1.5t43.5 7.5q23 10 69 10q16 78 32.5 162t35.5 155q12 43 22.5 91.5t24.5 89.5q20 63 44 137t49.5 146.5t56 143t67.5 130.5q4 8 16.5 22t26.5 29.5t26.5 26t20.5 10.5 q10 0 16.5 -4t14.5 -11q10 -6 25.5 -6t29.5 -2q14 -6 29.5 -14t23.5 -15q20 -16 44 -37.5t38 -37.5q10 -23 25.5 -53.5t15.5 -40.5q0 -12 -13 -52.5t-22 -66.5q-14 0 -27.5 -14.5t-25.5 -30.5q-6 0 -11 5t-7 5l-17 -10q-6 6 -12 6h-10l10 10q-10 6 -21.5 11t-17.5 12 q-8 14 -15 34.5t-7 30.5q0 12 5 16.5t9 8.5q6 -4 6 -7.5t6 -9.5q12 23 13 52q0 8 -1 16t-12 8q-14 0 -30.5 -29.5t-32 -65.5t-29.5 -72t-16 -46q-10 -29 -42 -100.5t-52 -134.5l-34 -119t-32 -133q-8 -31 -18.5 -67t-24.5 -75q-4 -4 -8 -4t-10 -6q0 -10 8 -18q2 -6 -3 -14.5 t-12 -16.5v-14q17 -6 38 -6q17 0 36 4q43 8 76 12q39 6 83 6t87 6q18 0 29 10q18 -1 39 -1q31 0 68 2q63 3 118 3q4 2 10 2.5t8 6.5q23 -6 49.5 -3t51.5 5l2 2q6 6 12 6q10 0 3 -5t5 -5q8 0 27.5 5t30.5 5q10 0 13 -5t9 -5q-14 0 -29.5 -8.5t-38.5 -22.5l-10 -12 q6 -4 11.5 -8.5t5.5 -12.5q-14 -4 -31 -11t-31 -9q-2 -14 -13 -18.5t-24.5 -5.5t-31 -1t-27.5 -2q-25 -6 -59.5 -21.5t-45.5 -15.5q-12 0 -9 3t-7 3q-6 0 -22.5 -6t-40 -12t-47 -15.5t-44.5 -13.5q-84 -25 -178 -44t-182 -44q-6 -6 -13 -16t-7 -15q-14 -53 -31 -123.5 t-30 -145.5t-25.5 -147.5t-22.5 -133.5q-2 0 -10 20q-8 -12 -15 -37q-2 -23 -6 -57.5t-4 -44.5v-135q16 -8 21.5 -20.5t5.5 -27t-2 -27.5t0 -28l10 10q-4 -20 3 -20t7 -6q0 -12 -7 -28.5t-13 -31.5h-6q-2 0 -9 7q-4 0 -6 -5.5t-2 -11.5q-23 14 -48 36t-42 44q-4 20 -8 48 t-6 53.5t-4 47t-2 25.5l37 402q0 6 8 42.5t19 87t22.5 105.5t15.5 96q-16 6 -31 -8q-4 8 -15 12.5t-24 4.5q-10 0 -6 -3.5t4 -7.5q-10 10 -22 11q-10 0 -18.5 4t-16.5 10t-19.5 16t-17.5 17q-2 2 -10 19.5t-16.5 39t-14.5 44t-6 30.5zM197 -303v-33h10v33h-10zM236 -313h8 v-35h-8v35zM1196 621h21v8h-21v-8zM1233 631v8v-8z" />
<glyph unicode="g" horiz-adv-x="788" d="M4 111v10q0 33 12 73q13 46 32.5 94t44 91t40.5 67q59 80 104.5 152t88.5 126t92 88t117 38q8 0 24 -21.5t25 -31.5q-4 -12 0 -18.5t8 -18.5q6 -2 16 -10.5t21 -10.5q14 -4 31.5 -12t31.5 -16q-2 -6 18.5 -29.5t22.5 -50.5q0 -4 -2 -19.5t-5 -36t-7 -44t-6 -39.5 q-12 -88 -34 -177.5t-44 -179.5q-18 -102 -41 -205.5t-49 -205.5q0 -4 2 -10.5t0 -12.5q-6 -33 -15.5 -78t-19.5 -92t-19.5 -97t-15.5 -93q0 -8 2 -22.5t-2 -25.5q-2 -20 -10 -45.5t-6 -46.5q0 -8 4 -23.5t4 -29.5v-2h8l8 6q8 2 15 12q12 -10 19 -20t20 -25l4 -71 q-18 -2 -58 12q-4 -6 -3 -10t-7 -6q-6 0 -18.5 7t-22.5 15q-4 6 -15 11t-18 8q-12 20 -26.5 40.5t-16.5 40.5q-8 29 -13 65t-5 46q0 6 1 27.5t1 38.5q2 133 20.5 260t45 256t56.5 264t62 283l-2 2q0 2 -2 4q-6 -4 -12 -15.5t-12 -25.5q6 0 9 5t7 9q-4 -4 -11 -15.5 t-22 -27.5q6 8 9.5 17.5t-1.5 15.5q-10 -18 -25 -35.5t-30.5 -36t-26 -39t-14.5 -41.5q-33 -41 -67.5 -80t-65.5 -75q-12 -10 -33.5 -33t-42.5 -43q0 -4 3 -8t3 -9q-12 -6 -27.5 -11t-25.5 -5q-8 0 -34.5 9t-45.5 18q-6 6 -11 13t-13 15q-2 6 -6 11q-16 31 -18.5 46t-4.5 40 zM193 203q41 43 85 90t74 82q2 2 24.5 34.5t50.5 71.5t49.5 75t21.5 46v16q-6 0 -6 -5t-7 -11q-8 10 -18 10l-2 25l-8 -10q-8 14 2 35q-20 -18 -44 -53.5t-34 -57.5q-12 -27 -33.5 -48.5t-30.5 -39.5q-33 -57 -65.5 -132t-58.5 -128zM399 252l23 24l6 -6l-22 -20zM436 289 l39 47h2l-39 -51z" />
<glyph unicode="h" horiz-adv-x="815" d="M6 217q0 33 16.5 137.5t37 169t39 113.5t18.5 51q0 14 7 29.5t9 27.5q8 8 12 15q8 41 25.5 94t34.5 92q6 18 -2 33q10 31 25.5 71t31.5 83t33.5 82.5t30.5 72.5q23 47 38 74t56 27q12 0 26.5 -8.5t26.5 -8.5q6 -12 10 -12q12 -23 16.5 -58.5t4.5 -50.5q0 -10 -4 -33.5 t-13 -39.5l-288 -785q14 0 27.5 19.5t23.5 29.5q12 14 33.5 32t33.5 32q4 6 28 31.5t51.5 56.5t52 54.5t32.5 23.5t15.5 -10.5t15.5 -12.5q12 -2 31.5 -1t33.5 -7q55 -39 69.5 -78t14.5 -82l-34 -288q0 -8 2 -24.5t10 -31.5q18 6 21.5 3t13.5 -3q6 0 25.5 8.5t44 19.5 t50 21.5t37.5 12.5q14 2 30 8t30 12q-20 -20 -68 -47v-4q0 -2 4 -4q12 8 25.5 9t26.5 7q-12 -6 -18.5 -24.5t-16.5 -28.5q-8 -8 -20.5 -12t-18.5 -17q-6 -4 -7 -16t-5 -21q-12 -6 -24.5 -21t-35.5 -32q8 -8 12 -8q-12 -6 -35.5 -21.5t-35.5 -15.5q-10 0 -35 3t-37 3 q-2 0 -14.5 7.5t-24.5 15.5t-23.5 16t-15.5 10q-4 8 -10 22.5t-14 25.5q-4 12 -15.5 27.5t-17.5 27.5q-23 68 -25 133q-1 22 -1 43v21q1 32 7 67l-4 29q-88 -57 -155.5 -184.5t-147.5 -198.5v-2q0 -2 6 -2q-6 0 -5 1t-9 1q-8 0 -20.5 -7.5t-26.5 -15.5q-8 16 -17.5 28.5 t-19.5 28.5q-8 12 -12 29t-19 31q0 23 -5 52.5t-5 41.5z" />
<glyph unicode="i" horiz-adv-x="403" d="M4 246q-1 6 -1 15q0 18 3 47q4 44 12.5 74t14.5 53.5t8 31.5q29 131 68 215q0 8 2 29q6 4 10 15t14 22q12 0 23.5 4t23.5 6h4q37 0 79 -33q44 -35 48 -74q0 -8 -4 -17t-6 -22q-10 -37 -20.5 -109.5t-30.5 -107.5q-6 -14 -10 -36.5t-9 -36.5q-18 -63 -28 -93 q-5 -15 -5 -32t5 -35q72 33 140.5 84t119.5 102q-10 -8 -10 -25.5t1 -37t-4.5 -38t-21.5 -32.5q4 -2 10 -2t11 -6q-2 -8 -10.5 -16.5t-14.5 -12.5q-8 -12 -6 -35q-25 -14 -56.5 -42.5t-50.5 -51.5v-13t-12 -16q-18 -10 -45 -18t-37 -8q-7 -1 -14 -1q-44 -1 -77 23 q-38 26 -65.5 65.5t-42 85.5t-16.5 79zM178 1163q35 -2 55.5 0t37 6.5t28.5 9.5t33 7q10 -14 22.5 -23.5t16.5 -19.5q8 -8 5 -27t15 -35q-12 -18 -8 -40.5t6 -42t-6 -33t-45 -15.5h-7q-19 0 -37 8q-22 10 -38 19q-2 4 -2 7t-4 7q-23 12 -37 44t-23 59q-6 12 -5 33.5t-7 35.5 z" />
<glyph unicode="j" horiz-adv-x="409" d="M-686 -545q6 16 10 37t8 41q0 -14 -2 -24.5t2 -22.5q12 29 17.5 64.5t15.5 66.5q14 43 34.5 85t39.5 81q0 -4 2 -10t6 -6t0 -13l2 -168q6 0 11 -4t5 -14q0 -8 -5 -21.5t-5 -27.5q0 -31 -7 -77t-7 -56q0 -8 7 -32t15 -40q0 -4 -2 -29.5t2.5 -56.5t15.5 -55.5t34 -24.5 q49 0 110.5 33t117.5 80t102 98t67 84q6 8 7 20.5t7 22.5q47 76 61.5 123t26.5 102q14 55 37 137t27 146q4 8 12 41t14 55q12 68 19.5 136.5t17.5 138.5q12 63 21.5 129.5t23.5 130.5q6 31 7.5 63.5t-5.5 63.5q6 0 9.5 3t13.5 3q8 0 33.5 -11.5t38.5 -25.5q25 -25 30 -64 q6 -23 11.5 -55.5t5.5 -40.5q0 -12 -7.5 -32.5t-9.5 -34.5q-6 -31 -6 -54.5t-4 -44.5q-4 -16 -4 -59t-4 -76q-14 -90 -37 -182t-35 -189q-4 -6 -2 -18t-4 -21q-23 -47 -28 -108t-48 -113q4 -8 -2 -20t-10 -25q-4 -10 0 -25.5t2 -29.5q-16 -63 -53 -141q-20 -39 -40 -79 t-42 -79q-6 -8 -19.5 -21.5t-28 -29t-25.5 -30.5t-7 -26q-8 -16 -43 -43.5t-79 -54t-87 -47t-72 -20.5q-12 0 -41.5 9t-46.5 15q-55 16 -96 55t-68.5 88.5t-44 102.5t-22.5 96q2 45 2 69.5v37t-1 16.5t-1 8zM-670 -459l11 35h8l-13 -39zM246 1178q6 8 13 19t20 11 q8 0 29.5 -19.5t39.5 -33.5q8 -8 24.5 -17.5t28.5 -21.5q14 -12 40 -40t26 -40q0 -8 -4 -25.5t-10 -35.5q-20 -10 -44 -19.5t-36 -9.5q-8 0 -23.5 12.5t-30 27.5t-29 29.5l-20.5 20.5q-8 39 -9 75t-15 67z" />
<glyph unicode="k" horiz-adv-x="733" d="M6 6q0 2 1 18.5t4 36t5 40t0 36.5q6 72 34 172.5t56 206.5q2 8 0 16q47 156 96.5 319t90.5 318q10 33 23.5 81t25.5 99.5t24.5 105.5t16.5 104q4 12 11 23t14 26q16 -27 41.5 -38t54.5 -36q14 -35 27.5 -84t13.5 -59q0 -6 -3 -29t-7 -43q-12 -68 -29 -138.5t-31 -140.5 q-4 -4 -9 -10t-7 -12t0 -13.5t-2 -13.5q-25 -47 -37 -83t-20.5 -68.5t-15.5 -64.5t-26 -62v-15q6 0 3 4.5t8 4.5q12 2 22 6t17 4q6 2 20 15t37.5 27.5t55.5 29t71 16.5q4 0 20.5 -9.5t31.5 -22.5t32.5 -28.5t32.5 -21.5q-8 -16 -6 -40t-3 -44q-8 -6 -16 -13.5t-14 -21.5 q-6 -2 -10.5 -4t-10.5 -2q-20 -16 -33 -49l-10 10q-25 -12 -63.5 -38.5t-71.5 -51.5q-6 -6 -16.5 -10t-16.5 -8l-18 -13q-17 -12 -35 -31.5t-34.5 -39t-14.5 -35.5q0 -12 16.5 -31.5t36 -38t36.5 -31t24 -14.5q20 -16 50.5 -38.5t59.5 -41.5q29 -20 78 -43.5t88 -46.5 q35 -16 73 -43.5t79 -52.5q-6 -6 -17.5 -5t-17.5 -1q-10 0 -9 -1t1 -7q-16 10 -39 17t-33 7q-8 -2 -11 -7t-14 -5q-8 0 -8 5t-12 3q-20 -2 -53 9t-64 24.5t-56.5 26t-33.5 16.5q-23 14 -52.5 25.5t-51.5 29.5q-45 31 -90.5 72t-92.5 98q-18 -41 -31.5 -77t-21.5 -87 q-4 -20 -10 -47t-8 -55q0 -2 -5 -8l3 -2q2 -23 3 -49.5t-6 -57.5q-4 -20 -28 -20h-3q-8 0 -22 6q-18 8 -37 14q-4 8 -11 15.5t-13 15.5q-8 23 -16.5 55.5t-10.5 44.5z" />
<glyph unicode="l" horiz-adv-x="466" d="M4 299q0 127 27.5 237.5t56.5 223.5q2 14 11.5 25.5t11.5 21.5q6 35 16 82t23 90q12 43 35.5 109.5t50.5 142.5q6 14 18 28.5t16 30.5q18 57 39 86q19 26 19 60v6q4 0 11 2t15 2q10 0 22.5 -10.5t26.5 -12.5q4 0 5 2h6h10q6 -14 15.5 -33.5t13.5 -33.5q6 -10 4 -27.5 t4 -27.5l-201 -652q-14 -35 -26.5 -71.5t-18.5 -71.5q-6 -25 -13 -66t-15.5 -83t-12.5 -81.5t-4 -62.5q0 -8 1 -38t3 -48q2 -8 9 -17.5t14 -15.5q27 -16 49 -16q12 0 16 5t10 5q10 0 15.5 -3t17.5 -3q6 0 20.5 6t51.5 19q8 6 15 12t14 6q12 0 10 -3t8 -3q8 0 33.5 20.5 t60.5 38.5q-6 -4 0 -12q2 4 2 7t8 3q10 0 34 10.5t38 18.5q-10 -12 -16 -25.5t-21 -17.5q0 -2 2 -8q16 6 31 12q-23 -6 -6 -21q-16 -8 -27.5 -32.5t10.5 -26.5q-12 -6 -18 -21.5t-10 -21.5q-16 -12 -40 -24.5t-40 -26.5q-10 -8 -22.5 -21.5t-28.5 -17.5q-14 -6 -33 -11 t-35 -10l-12 13q-18 -14 -26.5 -11t-18.5 3q-12 0 -9 -4.5t-8 -4.5q-6 0 -34.5 12.5t-42.5 16.5q-49 18 -86 59t-61.5 92.5t-34 100.5t-9.5 88z" />
<glyph unicode="m" horiz-adv-x="1253" d="M4 98q-1 12 -1 25q1 43 15 105q20 81 44 159t46.5 140.5t26.5 86.5q4 16 13.5 44t13.5 51q2 2 5 4t5 8q0 45 9 77.5t36 92.5q10 2 23.5 7t23.5 5h6q17 0 31 -10q2 -8 6 -10q23 -4 37 -34t14 -38v-6q0 -17 -7 -61q-9 -54 -21 -89q-2 -14 -11.5 -37.5t-18.5 -49t-15 -46 t-4 -35.5q2 0 6 6.5t16 8.5q4 0 27.5 28.5t52.5 67.5t61.5 83t55.5 77q10 4 31.5 4t46.5 -4q16 -4 50 -19.5t54 -38.5q8 -14 18.5 -40.5t12.5 -41.5q0 -6 -3 -30.5t-8.5 -58t-9.5 -70.5t-6 -64q-16 -4 -18 -25.5t-4 -39.5v-2q0 -2 2 -6q10 10 14 17t22 7l267 324q4 -2 17 0 t28 -2q8 -2 19 -12.5t18 -14.5q2 -2 11 -1t15 -5q8 -4 16.5 -11.5t18.5 -19.5t12 -26.5t17 -24.5q-4 -2 -1 -8t5 -15q0 -4 -3 -26.5t-6 -51t-8.5 -60.5t-5.5 -52q-2 -23 -2 -66t2 -55q4 -41 18 -59q10 -14 42 -14q11 0 24 1q8 0 41 11.5t53 21.5q4 -7 4 -15q0 -7 -3 -13 q-7 -14 -9 -25q-6 -14 11 -21q-4 -8 -11.5 -13t-13.5 -11q2 -12 -4 -19q-23 -10 -46.5 -22t-35.5 -14q-10 0 -34.5 9t-35.5 9q-8 -2 -2 -5t-4 -5q-8 0 -41 23.5t-53 43.5q-33 35 -43 90.5t-23 112.5q-2 14 -2 30.5t-10 37.5q-12 -14 -19 -28.5t-20 -31.5q-16 -25 -60 -74 t-75 -94q-20 -25 -41.5 -52t-50.5 -44q-4 -6 -2 -9t-4 -5q-16 -10 -39 -21.5t-33 -11.5q-14 -2 -41 7t-52.5 26.5t-43 35t-19.5 31.5q-2 13 -2 28q0 24 4 52q6 45 16.5 89t18.5 81t11 62q4 8 -0.5 10t-4.5 6l7 8q-2 6 -5.5 10.5t-3.5 12.5q-49 -51 -102 -122t-102 -134 q-2 -4 -4.5 -12.5t-6.5 -16.5q-20 -27 -45 -53v-17q-20 -18 -37.5 -46.5t-35.5 -47.5q-8 -6 -28 -18t-32 -12h-2q-8 0 -26 12q-20 14 -33 26q-16 10 -20.5 33t-6.5 45zM877 293l10 -6l8 24h-6z" />
<glyph unicode="n" horiz-adv-x="849" d="M2 154q0 8 8 48t10 70q8 14 15.5 32t11.5 32q6 23 7 49.5t7 48.5q29 84 70 199t82 223q0 6 -1 18.5t-1 24.5q14 12 29.5 26.5t27.5 18.5q8 -10 17.5 -20.5t19.5 -24.5q6 6 7 16.5t-1 18.5q10 -8 22.5 -16.5t28.5 -12.5q0 -8 -3 -17t3 -18h3q4 0 5 1t7 3l2 -22 q2 -10 -5 -21.5t-12 -25.5q-4 -27 -8 -62.5t-10 -66.5q0 -10 -4 -16.5t-8 -12.5q-13 -40 -13 -76v-14q12 12 25.5 31.5t31 39t33 37t31.5 23.5q14 6 30.5 6t35.5 11q10 -8 15 -15.5t9 -15.5q8 4 13.5 8t15.5 6q8 0 24.5 -15.5t28.5 -25.5v-2q0 -2 -4 -6q0 -4 5 -6t8 -2 q18 -37 27 -50.5t11.5 -22.5t2.5 -15t2 -27q2 -4 1 -34.5t-2 -69.5t-3 -83q-1 -24 -2 -45q0 -16 1 -30q-4 -25 -0.5 -53.5t5.5 -59.5q10 -6 26 -4q12 0 31.5 9.5t39 20.5t40 24.5t30.5 17.5h-2q-6 0 -4 -4l-2 -4h8q10 2 31.5 19.5t44.5 29.5q-12 -20 -14 -43q-4 -4 0 -10.5 t2 -8.5q-4 -4 -9 -8t-9 -10q6 -4 16 -4l-2 -2q-6 -6 -8 -4q-6 -6 -6 -16.5t-11 -18.5q4 -8 3 -16.5t5 -16.5q-8 -8 -17 -15t-11 -20q-8 -14 -29.5 -25.5t-34.5 -25.5q-10 -4 -21 -20.5t-16 -24.5q-8 -1 -17 -1q-12 0 -28 2q-26 3 -36 3q-8 0 -28 7.5t-41.5 19.5t-37.5 24.5 t-18 18.5q-23 45 -42.5 94t-25.5 96q-8 31 -9 83t-3 98q-4 2 -2 5t-2 5q-41 -47 -88.5 -110.5t-90.5 -115.5q-2 -2 0 -14q-14 -27 -29.5 -53.5t-35.5 -50.5q-14 -18 -40 -44t-34 -28q-10 0 -18 10t-17 8q-12 0 -7 -3t-5 -3q-18 -2 -30.5 13.5t-19.5 34t-11 37t-6 20.5 q-6 4 -12.5 13t-8.5 24zM551 672l2 -10l14 2l-2 10z" />
<glyph unicode="o" horiz-adv-x="598" d="M4 190q0 33 13.5 79t29.5 89t31.5 76t23.5 45q4 4 4 15.5t7 17.5q10 18 24.5 36.5t22.5 37.5q6 4 8 4t8 2t6 9t6 15q8 14 24.5 23.5t27.5 24.5q6 8 6 19t6 22q-4 0 -12.5 3t-14.5 -8q0 8 -4 13q-6 -4 -6 -17q0 14 -14 15l4 2q2 0 8 6q-4 29 15.5 49t47 35.5t54 25 t35.5 17.5q8 -16 20 -13t29 -6q8 -6 28.5 -26.5l34.5 -34.5q0 -2 4 -8q4 -10 8 -15q4 -2 10.5 -2t10.5 -4q47 -66 76.5 -128t29.5 -128q0 -113 -77.5 -223.5t-190.5 -208.5q-6 -4 -9 -14t-7 -17q-70 -43 -127 -43q-47 0 -77 24l-60 48q-10 8 -19.5 35t-28.5 27 q-4 18 -10 45.5t-6 35.5zM205 213q20 14 47 37.5t35 23.5q10 0 2 -6t4 -6q8 0 24.5 21.5t33 47t31.5 48t17 27.5q4 6 12.5 28.5t16.5 47t13 44t5 21.5q0 12 -8 35.5t-16 40.5q-16 -33 -45 -69t-43 -58q-16 -31 -39 -74t-43.5 -83t-33.5 -71.5t-13 -36.5v-18zM389 639h10v31 h-10v-31z" />
<glyph unicode="p" d="M-72 -354q6 8 11.5 19t9.5 22q2 14 -2 31.5t-2 41.5q0 6 4 11.5t10 11.5q6 8 4 26.5t4 34.5q6 14 19.5 51t33.5 44q27 113 53.5 243.5t53.5 257.5q4 12 0 24.5t-2 27.5q8 33 18.5 64.5t22.5 64.5q4 8 4 24.5t-4 28.5q31 90 62.5 192.5t54.5 192.5q6 12 -7 33 q6 0 7.5 -3.5t13.5 -3.5q8 0 11 8.5t14 8.5q8 0 28.5 -19.5t42.5 -35.5q2 -14 8.5 -34t8.5 -40.5t5 -36.5t3 -23q0 -4 -7.5 -31.5t-15.5 -66.5t-18 -81t-21 -75l11 -8h8q2 0 5 1t5 1q-8 -10 -22.5 -26.5t-22.5 -32.5v-4q0 -2 4 -4q10 16 34.5 41.5t54.5 51.5t59.5 45 t52.5 19q12 0 46 -8t60 -14q10 -6 23.5 -18.5t21.5 -18.5q47 -23 61.5 -68.5t14.5 -80.5q0 -63 -27.5 -138t-71.5 -148t-101.5 -134.5t-116.5 -94.5q-8 -4 -26.5 -4h-27.5v4q-6 6 -10 5.5t-14 -0.5h-17q-12 16 -25 37.5t-25.5 43t-23 36t-10.5 20.5q0 8 10.5 20.5t24.5 20.5 q0 14 -14 14q2 0 8 -4t14 -4q10 0 30 20.5t38 34.5q80 66 122 151t56 156q-6 1 -12 1q-55 0 -129 -64q-12 -8 -24.5 -26.5t-25 -36t-23.5 -32t-13 -14.5q-10 0 -5 3.5t-1 9.5q-8 -16 -24.5 -38t-24.5 -44q-10 -20 -23.5 -60.5t-26 -87.5t-23.5 -96t-20 -88q-4 -25 -16 -58.5 t-20 -60.5q-20 -59 -29.5 -122.5t-24.5 -127.5q-2 -14 -11 -36.5t-21 -36.5h-15q-10 0 -5 6t-5 6q-12 0 -13 -6t-14 -6q-8 0 -16 9t-16 11q0 2 -1 6t1 10l-26.5 26.5t-29.5 27.5z" />
<glyph unicode="q" horiz-adv-x="733" d="M4 201q0 8 17.5 52t27.5 69q20 45 53 94t69 99t74 98.5t74 84.5q20 25 52 59t69 66l-14 -18q16 2 31.5 11t28 22.5t21.5 26t17 12.5q10 0 40 -24t52 -42q-16 -10 -4.5 -29.5t-13.5 -29.5q8 -12 27.5 -25.5t42.5 -17.5q4 6 2 9t4 9q2 -16 16.5 -42t14.5 -38 q2 -16 -8.5 -53t-24 -77t-25.5 -72.5t-14 -45.5q-10 -55 -30.5 -105t-35.5 -99q-20 -63 -38.5 -153.5t-37 -172.5t-28.5 -141.5t-10 -65.5q2 -18 10 -16t14 2q4 0 41 8t82 18.5t83 17.5t42 7q10 0 15 -4t16 -4q8 0 20 6t25 6q37 8 88 16.5t61 8.5q8 0 28 -7.5t36 -15.5 q-14 -23 -22.5 -27t7.5 -18q-6 -4 -17 -13t-24 -14q-6 -4 -0.5 -6t5.5 -6q-8 0 -18.5 -1t-14.5 -7q4 -6 11 -3t15 -3q-8 -8 -16 -19.5t-16 -13.5q-16 -6 -38 -14.5t-40.5 -15.5t-32.5 -14t-20 -7q-16 -2 -47 -7t-65 -12.5t-66.5 -16.5t-53.5 -11q-27 -8 -64.5 -21.5 t-76.5 -23.5q-10 -14 -14.5 -42t-7.5 -61t-11 -64.5t-27 -51.5q-8 6 -14 18t-12 22q-6 4 -12.5 -6t-12.5 -18q-6 8 -17 17.5t-24 11.5l-6 102l-6 12q-31 2 -43 -7t-18 -9h-6q-34 0 -81 19q-51 20 -71 51q-4 2 -5 9t-12 13q16 16 33 44t41 58q27 2 49 11q14 8 30.5 15 t33.5 17q23 8 39 10.5t37 18.5q12 20 13 43t-1 46.5t1 46t19 40.5q0 6 2 6t-6 7h-2q-4 -2 -2 -9q12 27 13.5 62t15.5 57q-10 8 -14 2q-2 6 3 14.5t11 10.5q6 4 2 5t-4 3l63 328h-6q-45 -35 -74.5 -72t-55 -65.5t-53.5 -48t-67 -21.5q-8 0 -24.5 7t-24.5 7q-10 0 -16 -2 t-10 -2q-16 27 -27.5 39t-20 22.5t-10.5 21.5t-4 32zM276 379q25 18 52.5 50t53.5 66.5t48.5 70t38.5 55.5q-27 -25 -58.5 -60t-58 -70.5t-48 -65.5t-28.5 -46zM303 -221l2 -19l8 2l-2 19z" />
<glyph unicode="r" horiz-adv-x="548" d="M4 145q0 4 6 26t11.5 49.5t11.5 55t8 50.5q14 57 24.5 114.5t14.5 116.5q4 35 10 79t10 89q4 29 7.5 61.5t11.5 61.5h24q16 0 41 -18.5t33 -38.5q8 -23 13.5 -45.5t7.5 -45.5q2 -16 -2.5 -32.5t-4.5 -38.5q8 20 32 42.5t51.5 44t59.5 36t56 14.5q45 0 103.5 -24.5 t93.5 -67.5q6 -8 10 -20.5t12 -24.5q-6 -14 -21.5 -26.5t-9.5 -27.5q-16 0 -36.5 3.5t-49.5 -3.5q-2 10 -4 24.5t-6 35.5q-61 -23 -111.5 -85.5t-88.5 -121.5q0 10 -9 10q-10 -18 -4 -24q-4 0 -6 -2q-6 -8 -6 -9q-2 -4 2 -7t4 -9q-4 0 -6 -2t-8 -2h-2q-6 0 -6 -4q-4 -6 2 -9 t6 -5q-18 -35 -49 -76q0 -6 3 -9.5t1 -5.5q-6 -14 -15.5 -23t-19.5 -20q-8 -10 -9 -24t-7 -27q-20 -41 -35 -89q-8 -24 -7.5 -46.5t7.5 -44.5q-18 -12 -39 -12q-6 0 -24.5 8t-33.5 14q-6 6 -6 19.5t-16 9.5q-10 33 -22.5 57.5t-12.5 48.5z" />
<glyph unicode="s" horiz-adv-x="634" d="M4 246q0 18 12.5 58t30.5 67q10 0 16 4q2 -8 -2 -19.5t-6 -21.5q4 -6 8.5 -7t10.5 -8q6 0 4 -9t-2 -23q8 -8 11 -9.5t-11 -15.5q12 -23 8 -37q6 -12 17.5 -25.5t2.5 -29.5l9 -8q10 12 22 12q16 -29 24.5 -63.5t39.5 -55.5q18 16 30.5 41t20.5 47q18 43 26 101 q9 58 13 118q3 40 3 77q0 18 -1 36q-2 53 -2 88q0 23 7 50.5t7 52.5q0 8 -3 16t-3 16q0 20 4 41t8 54q0 8 1 41.5t8.5 70.5t18.5 65.5t30 28.5q12 0 14 -2t8 -6q7 1 14 1q43 0 93 -30q58 -36 90 -67q2 -6 2 -11v-12q12 -8 22.5 -27.5t10.5 -29.5t-2.5 -15t-6.5 -9 q2 -18 2 -40q0 -17 -1 -37q-3 -46 -17 -75q-6 -6 -19.5 -10t-23.5 -4q-8 0 -27.5 9t-33.5 23q-14 -6 -17 -18q-12 -95 -12 -192q0 -21 1 -41q0 -15 1 -30q0 -104 -19 -206q-4 -29 -11 -74t-23.5 -89t-46 -74.5t-72.5 -30.5q-12 0 -13 3t-8 5q-4 4 -4 1t-12 -3 q-14 0 -28.5 10t-29 19.5t-23.5 18.5t-13 9q-25 14 -52.5 48t-51 75t-39 84t-15.5 74zM123 178v31h8v-31h-8z" />
<glyph unicode="t" horiz-adv-x="585" d="M37 485q0 8 5 34t5 48q10 10 10 15q6 2 11.5 5t13.5 3q12 0 9 -3t9 -3q8 0 17.5 10t11.5 20q8 23 17.5 67t17.5 94t17 99.5t18 81.5q16 68 37.5 136.5t39.5 138.5q8 33 19.5 72.5t26.5 78.5q10 31 18 73t39 63q6 6 18.5 10t16.5 4q12 0 23.5 -16.5t21.5 -16.5t13 1t9 1 l-6 -2v-10q0 -6 6 -20.5t14.5 -29t13.5 -28.5t5 -20q0 -8 -7 -37t-18 -49q6 -20 7 -35q-31 -104 -63 -205.5t-62 -198.5q-6 -41 -17.5 -88t-23.5 -92v-10q10 -6 18 -5t23 1q16 6 43 6q10 0 8 -5t10 -5q10 0 23.5 5t27.5 7q70 12 149 19.5t175 15.5q0 -6 -5 -10.5t-11 -10.5 q0 -8 10 -8q-4 -14 -12.5 -16t8.5 -17q-16 -8 -36 -16t-34 -16q0 -6 5 -9.5t11 -7.5q-10 -27 -41.5 -37t-62.5 -16q-6 -10 -21.5 -28.5t-25.5 -18.5q-8 0 -4 3t-2 7q-8 0 -8 -18q-31 -6 -68 -19.5t-74 -25.5q-4 -2 -2 -5.5t2 -7.5q-4 0 -4 2t-12 2q-6 0 -38 -11t-56 -21 q-2 -2 -7.5 -9.5t-9.5 -15.5q-14 -2 -30.5 -13.5t-28.5 -19.5q-6 -25 -13.5 -59.5t-12.5 -66t-9 -55.5t-4 -30t2 -20.5t6 -31.5t8 -31.5t4 -18.5q0 -10 -12 -21.5t-12 -25.5q-4 0 -14.5 -2t-18.5 -2q-10 0 -14 13t-10 19q-47 43 -51.5 82t-10.5 78q-3 11 -3 28q0 21 4 51 q5 44 5 99v33q0 4 -10 18.5t-20.5 30t-18.5 27.5t-8 18z" />
<glyph unicode="u" horiz-adv-x="823" d="M4 160q0 72 14.5 124t26.5 122q14 14 22.5 32.5t12.5 36.5q0 8 -3 18.5t-1 18.5q6 14 15 24.5t15 14.5q8 8 9.5 23.5t5.5 29.5q2 6 8 8t10 9q0 6 -2 8t0 8q16 29 31.5 64.5t32 65.5t40 52.5t60.5 22.5q10 0 19.5 -5.5t21.5 -0.5q2 -12 13.5 -25.5t19.5 -26.5q0 -6 3 -13 t3 -17q0 -39 -31 -98.5t-53 -112.5q-12 -27 -27.5 -58.5t-27.5 -60.5q-12 -31 -29.5 -64.5t-34.5 -72.5v-10.5t4 -14.5q-12 -18 -17 -39.5t-13 -44.5v-14h4q102 117 193 222.5t155 227.5q10 20 26.5 49t32.5 52q6 -6 15.5 -10.5t17.5 -12.5q6 0 4 6.5t-2 10.5q6 -4 9 -10.5 t14 -6.5q8 0 4 3t4 3q4 0 17 -15t42 -24q10 -14 19.5 -39.5t9.5 -37.5q0 -6 -16.5 -36t-24.5 -52q-14 -33 -26.5 -73t-20.5 -79l-2 -4q-6 -4 -6 -8q-6 -33 -11.5 -74t-5.5 -53q0 -14 14 -19q6 -4 15 -4q10 0 56 11.5t73 19.5q31 8 61.5 27.5t59.5 35.5l14 -12 q-10 -6 -33 -29q6 -8 10.5 -16t12.5 -16q-14 -20 -31 -49q-6 -10 0 -15q-8 -12 -31 -33q6 -6 11.5 -5t11.5 7q0 -6 -3 -11t-14 -5q-12 0 -8 3t0 7q-4 -4 -5 -11t-7 -13q-4 -6 -12 -15.5t-23 -17.5q-16 -14 -47 -30.5t-41 -16.5q-37 0 -76 11t-71 24q-6 4 -19.5 16t-19.5 23 q-18 37 -33.5 75.5t-30.5 71.5q-6 10 -4 28.5t2 28.5q0 16 -8 33q-55 -68 -114.5 -138.5t-104.5 -154.5l-16.5 -11t-24.5 -13l-4 -2q0 -2 6 -6q-14 0 -31.5 3t-34.5 3q-6 14 -22 24.5t-31 24.5q-8 8 -19.5 22.5t-13.5 26.5q-6 14 -10 37.5t-4 36.5z" />
<glyph unicode="v" horiz-adv-x="645" d="M4 776l27 2q10 4 11 0t11 -2q8 0 4 1t4 1q4 2 17.5 -4t29 -16t31 -21.5t23.5 -21.5q14 -20 21 -49t18 -58q0 -47 11 -103t32 -143q53 84 111.5 164t115.5 144q8 6 27.5 27.5t42 44t44 41t40.5 26.5q6 6 9 12t11 15q18 10 45 25.5t33 17.5q14 8 19 8q2 0 2 -1q2 -3 18 -9 l-11.5 -11.5l-13.5 -13.5q0 -2 4 -2h7q2 -6 -3.5 -11t-7.5 -12q0 -2 25 -10q-16 -18 -34.5 -40.5t-14.5 -43.5q-12 -16 -28.5 -33.5t-29.5 -31.5q10 -8 15 -2q-23 -39 -54.5 -89.5t-52.5 -74.5q-18 -31 -41.5 -71t-48 -80t-44 -76.5t-34.5 -55.5q-10 -8 -19 -28.5t-20.5 -45 t-21.5 -47t-17 -43.5q-12 -18 -21 -43.5t-17 -50.5q-2 -2 -9.5 -7t-15.5 -7l-27 -4q-4 -1 -9 -1q-22 0 -44 18q-26 20 -50 49.5t-37 58t-15 38.5q0 4 -2 43t-6.5 94.5t-8.5 115t-8 102.5q-2 51 -6 112.5t-16 124.5q-2 6 -9.5 17.5t-7.5 23.5zM672 672l12 12l6 -2l-12 -16z " />
<glyph unicode="w" horiz-adv-x="1056" d="M4 166q0 45 3 109.5t35 129t67.5 123t58.5 97.5q20 41 64 106.5t87 126.5q29 -4 51.5 -5t55.5 -30q16 -12 24.5 -35.5t16.5 -44.5q-10 -8 -17.5 -22t-21.5 -27v-18q-27 -41 -60.5 -94.5t-68.5 -109.5t-61 -112q-14 -31 -14 -57q0 -21 9 -39v-8q10 8 32 30.5t44.5 51.5 t46 57.5t39.5 46.5q51 72 64.5 93.5t25 35t27.5 18.5t47 5q12 0 20.5 -11.5t18.5 -17.5q41 -8 74 -34.5t45 -84t26.5 -99.5t22.5 -77q25 33 42 76t26.5 85t17.5 83t10 70q1 11 1 24q0 20 -2 44q-3 42 -3 81q0 14 4 38t4 50q0 -6 8 -16q2 -6 13.5 -8t11.5 -6q4 -2 5 -9.5 t9 -15.5q8 12 19 12v-16q23 -12 43 -12q25 -45 40 -103.5t15 -103.5q0 -74 -12 -140.5t-27 -138.5q-10 -53 -32.5 -100t-45.5 -84q-14 -18 -30.5 -37.5t-28.5 -36.5q-10 -14 -33 -14q-8 0 -47 17.5t-61 35.5q-16 12 -29 39q-14 37 -25.5 74t-19.5 71q-14 41 -24.5 85 t-22.5 89q-8 -8 -18.5 -23t-18.5 -30q-4 -8 -17.5 -19.5t-13.5 -27.5q-4 6 -9 1t-11 -5q-47 -57 -96.5 -103t-81.5 -96q-20 -25 -57.5 -49t-59.5 -37v-22h-72q-12 0 -34.5 11t-34.5 24q-10 6 -19.5 23.5t-22 40t-17.5 44t-5 31.5z" />
<glyph unicode="x" horiz-adv-x="724" d="M-86 -2q0 14 26.5 53t65.5 90.5t86 107.5t86 104t64.5 83t25.5 41q0 8 -6 13.5t-10 13.5q-4 41 -4 86t-6 82q-4 27 -2 43t2 29.5t-3 27.5t-14 33q2 6 12.5 15t20.5 9t9 -2t5 -8q31 -6 60.5 -27.5t52.5 -50.5q6 -4 10 -14t6 -16q6 -12 10.5 -32t12.5 -40q18 20 46 48 t57.5 59.5t55 63.5t48.5 56q8 8 8 27q16 6 23.5 12t21.5 6l10 11q14 -14 39 -22.5t33 -39.5l4 4q2 2 2 4q0 -4 7 -17.5t7 -21.5q0 -25 -25.5 -63.5t-54 -74.5t-53 -64.5t-28.5 -34.5q-4 -12 -31 -38t-53 -56q-8 -12 -6 -33h-7q-2 0 -8 6q-14 -41 -42.5 -66.5t-28.5 -60.5 q0 -55 23.5 -131t37.5 -121q4 -23 23.5 -53.5t48.5 -50.5q43 -35 100 -45.5t104 -32.5q-6 2 -14 1t-16 -3q-12 -6 -13 -12q-12 -2 -31.5 -10.5t-31.5 -8.5q-8 0 -42 5t-46 5q-8 0 -27.5 12.5t-32.5 24.5q-82 49 -128 133t-80 162q-27 -25 -66 -75t-61 -89q-6 0 -7.5 6.5 t-7.5 12.5l-168 -164q-6 0 -7 5t-11 5q-12 0 -9 -2t-7 -2q-18 0 -42 33t-24 49z" />
<glyph unicode="y" horiz-adv-x="841" d="M6 236q-1 6 -1 12q0 36 19 96q21 72 49.5 144.5t54.5 132t34 75.5q18 27 37.5 62t40.5 65q18 6 36.5 2t35 -15t26.5 -27.5t10 -26.5q2 -20 2 -25q-12 -16 -25.5 -46t-25.5 -56q-23 -49 -49.5 -116t-54.5 -132q-6 -8 -11.5 -14.5t-9.5 -16.5t-4 -21.5t2 -27.5l453 541 q51 -18 83.5 -31.5t51 -32t29 -41t12.5 -59.5q1 -3 1 -9q0 -12 -3 -38q-4 -39 -17 -66q6 -16 3 -33.5t-5 -31.5q-4 -23 -15 -47.5t-15 -51.5q0 -6 1 -15t-3 -17q-14 -70 -33 -143.5t-33 -141.5l-14 -14q-20 -90 -41 -179.5t-35 -179.5q-4 -10 -1 -30.5t1 -34.5 q-6 -10 -10 -20.5t-7 -18.5q0 -23 -2 -51.5t-6 -54t-6 -45t0 -25.5l2 -31q6 -4 5 -7t12 -3q25 4 45 19.5t43 29.5l8 -70q-16 -6 -21.5 -17t-5.5 -22.5v-19.5t-8 -10q-10 0 -8 2t-6 2q-12 -2 -23.5 -11.5t-21.5 -11.5q-8 0 -29 9.5t-31 13.5t-20 20.5t-17 26.5 q-16 20 -39.5 59t-27.5 76q-3 29 -3 64q0 46 5 102q8 98 25.5 205.5t39 218t42 203t38 160t23.5 89.5l-2 2q0 4 -2 7q-84 -100 -162 -193.5t-170 -191.5q-14 -16 -55 -41t-62 -27q-33 -4 -55.5 10.5t-38.5 38t-24.5 52t-10.5 51.5z" />
<glyph unicode="z" horiz-adv-x="706" d="M4 115q0 20 11.5 41.5t26.5 42t32.5 39t29.5 30.5q39 49 84 93.5t91 91.5q25 23 53 52.5t57 60t54.5 60t39.5 58.5h-2q-4 0 -4 2v2q-10 0 -63.5 -17.5t-102.5 -29.5q-6 -2 -12 -13.5t-14 -11.5q-10 0 -5 3.5t-6 3.5q-10 0 -24 -10.5t-29 -14.5q-2 -2 -6 -8t-12 -10 q-20 -10 -39 -11q-16 0 -26.5 13.5t-17.5 28t-10.5 28.5t-3.5 20q0 16 2.5 31t18.5 23q29 18 78 42.5t86 35.5q29 10 70.5 21t80.5 19.5t69 15.5t36 7t17 -3t24 -5q10 -16 34.5 -29.5t36.5 -28.5q2 -12 12.5 -33.5t10.5 -29.5q0 -12 -6 -31.5t-14.5 -41t-18.5 -41t-16 -27.5 q-37 -43 -68 -82t-66.5 -82t-83 -96.5t-116.5 -124.5q4 -6 8 -4t10 2l187 34q113 0 208 -19t195 -60v-33q-18 -4 -6 -13q-20 -8 -57 -17t-45 -9t-34 3t-54 -1q-84 -12 -167 -24.5t-163 -30.5q-6 -4 -12.5 -11.5t-14.5 -7.5q-23 -8 -53.5 -18t-65.5 -19q-18 -6 -48.5 -12 t-39.5 -6q-49 0 -87 35t-42 98q-4 8 -6 11t-2 18z" />
<glyph unicode="{" horiz-adv-x="688" d="M55 715q4 0 25.5 -1t19.5 19l21 -2q10 0 11 -5t9 -5t33 3t46.5 8t40 12.5t20.5 15.5q6 27 14 65.5t18.5 81.5t16.5 86t8 78v19.5t-1 41t-1 48t-4 43.5q0 25 -1 56.5t3 53.5q4 20 8 49t6 48q2 8 -7 15t-9 21q0 12 14 11q10 0 23.5 3t29.5 7q-6 6 -8 6t-6 4q25 6 53.5 11 t38.5 5q8 0 10 -5t11 -7q10 0 33.5 7.5t43.5 4.5q-6 0 -4 -3t-4 -7q10 -6 22.5 -6t24.5 -2q6 -10 -4 -20q4 -4 9.5 -4.5t11.5 -0.5q-31 -18 -53.5 -35.5t-45.5 -33.5q0 -6 2.5 -11.5t6.5 -5.5q-31 -10 -55.5 -9t-39 0t-21.5 -9t-9 -31q0 -10 2 -25.5t4 -29.5q4 -18 5 -44 t1 -48.5t-1 -42t-1 -23.5q0 -10 -2 -26.5t-6 -28.5q-12 -63 -25.5 -126.5t-32.5 -125.5q-2 -16 -6 -35.5t-12 -29.5q-2 -6 0 -9.5t0 -7.5q-6 -16 -20.5 -47t-28.5 -31q-6 0 -15.5 1t-21.5 6q-4 -4 -5 -2t-1 -11q0 -8 13 -23.5t24 -29.5q29 -43 38 -103.5t7 -97.5 q0 -12 -6.5 -51t-14.5 -61q-2 -14 -13 -36t-19 -42q-8 -23 -16.5 -49.5t-14.5 -52t-11.5 -46t-5.5 -24.5q0 -10 1 -30.5t9.5 -40t21.5 -35t38 -17.5q10 0 18.5 2t20.5 6q4 0 10 -8t17 -8q8 -2 34.5 12t59.5 30.5t59.5 32t30.5 17.5q2 -4 -7 -17.5t-18 -17.5q0 -6 -4 -17.5 t6 -25.5q-16 -8 -37.5 -26.5t-29.5 -30.5q-4 -6 -20.5 -14.5t-24.5 -14.5q-8 -4 -10.5 -10t-10.5 -13q-4 -4 -15 -9t-25.5 -9t-25 -7t-14.5 -3q-8 0 -19 7t-24 11q-16 4 -39.5 12.5t-37.5 18.5q-12 10 -30 28.5t-30 30.5q-2 6 -1 8.5t1 10.5q-12 4 -20.5 23.5t-15.5 47 t-10 54t-3 43.5q2 57 15.5 94t27.5 61q8 18 18.5 46t16.5 60t12 61.5t8 49.5q2 49 -13 80t-69 88v9q-4 8 -16 8q0 6 10 18q-14 4 -14 15.5v21.5q-6 10 -13.5 16.5t-13.5 12.5z" />
<glyph unicode="|" horiz-adv-x="456" d="M124 204q1 79 7 153.5t8 97.5l33 559q10 86 24.5 196.5t28.5 188.5q4 8 14.5 14t18.5 12q4 2 -1 7.5t-5 17.5q0 4 16.5 1t22.5 -3q10 -2 11 2t7 4q8 -23 35 -47q4 -27 4 -72v-53q-2 -29 -4 -59.5t-5 -66.5t-10 -81t-20 -108l-61 -959q-6 2 -12.5 -5t-16.5 -7l-55 2 q-25 2 -33 64.5t-7 141.5z" />
<glyph unicode="}" horiz-adv-x="755" d="M121 0q0 6 3 18.5t9 24.5q2 8 16.5 16.5t20.5 12.5q8 -4 15.5 -18.5t15.5 -20.5q14 -6 24.5 -9.5t22.5 -3.5q6 0 25.5 16.5t29.5 33.5q10 16 12 41l19 354q0 8 -3 33.5t-3 46.5q10 14 17 41.5t36 48.5l2 2q-2 2 -2 4q-4 8 -13.5 14.5t-15.5 10.5q-6 10 -15 26.5t-11 30.5 q-16 51 -24.5 94t-6.5 92q4 47 15.5 97.5t24.5 100.5t25.5 98t18.5 93q2 6 9 15.5t15 17.5l3 27q-8 8 -22.5 10t-30 5t-33 5t-29.5 2q-6 6 -19.5 8.5t-21.5 4.5q-6 18 2 34q-6 6 -17.5 14.5t-11.5 18.5q2 8 6 21.5t15 13.5q10 -2 9 -6t7 -6q10 0 30.5 11t39.5 17 q12 -6 26.5 -6t30.5 -4q14 -6 35.5 -11t36.5 -11q20 -8 44.5 -21.5t43.5 -17.5q4 -6 6 -26.5t16 -18.5l-8 -47l-10 10q-10 -10 -12 -25q-6 -86 -32 -163.5t-50 -145.5q-4 -10 -9.5 -33.5t-10.5 -48t-8 -43t-3 -22.5q-2 -8 -1 -33t1 -45q6 -4 11 -10.5t12 -8.5q0 -6 4 -17 t12 -18q18 -16 42.5 -23t35.5 -7q6 -2 19 1t22 5q6 0 6 2t2 6q4 2 18 2q8 0 25.5 -11t21.5 -22q4 -4 5.5 -19.5t1.5 -21.5q0 -16 -12.5 -30.5t1.5 -46.5q-12 -6 -22 -7.5t-19 -5.5q-6 -2 -15 -1t-19 -3q-18 -8 -45 -31.5t-37 -21.5q-10 0 -8.5 3t-6.5 3q-14 0 -25.5 -10 t-11.5 -19q0 -2 5.5 -18t15.5 -20l-21 -369q0 -8 -9 -29.5t-3 -32.5q2 -20 -11 -47.5t-37 -53.5t-52.5 -44t-48.5 -16q-6 0 -30 -2t-34 -2q-10 2 -20.5 12t-24.5 20q-4 8 -3 12.5t1 10.5q0 4 -20 14q-6 20 -18.5 43t-12.5 35z" />
<glyph unicode="~" horiz-adv-x="878" d="M18 457q0 8 9.5 19t15.5 16q2 12 5 24t11 23q14 16 49 39.5t66 46.5q12 10 34.5 16t39.5 8l14 13q23 -6 54.5 -9.5t52.5 -21.5q18 -12 60 -56.5t73 -78.5q20 -27 45.5 -45.5t50.5 -18.5q8 0 31.5 13.5t38.5 21.5q20 8 41.5 36.5t29.5 51.5q6 14 9.5 22.5t19.5 22.5 q8 -6 20.5 -15.5t22.5 -9.5q12 0 12 1.5v7.5q0 -14 -2 -25.5t4 -26.5q2 -16 21 -18q0 -6 1 -14t15 -2q-6 -14 -6 -39t-2 -41q-6 -29 -28.5 -54.5t-52.5 -47t-61.5 -35t-58.5 -13.5q-74 0 -134 41t-107 90.5t-79 90t-48 40.5q-6 0 -30 -17t-48 -40q-31 -29 -68 -59 q-10 0 -15 -4t-5 2q-14 6 -30.5 0t-29.5 -6q-10 0 -5 7t-5 7q-12 0 -12 -1t-4 -7q-6 6 -10.5 21.5t-4.5 23.5z" />
<glyph unicode="&#xa1;" horiz-adv-x="391" d="M23 80q-2 10 2 43t10 70.5t13 71.5t9 48q31 88 45.5 213t30.5 242q10 43 23.5 100.5t25.5 110.5q6 2 4 -1t11 -1q23 4 26.5 35.5t5.5 40.5q12 -8 15 -11l10 17l3 -9t13 -1q16 2 13 10q6 -18 8 -41t2 -55q16 23 15 53.5t1 48.5q2 -6 6 -9t7 -9l-35 -672q-14 -4 -21 -17 q0 -2 7.5 -9t5.5 -17q-25 -86 -39.5 -152.5t-49.5 -148.5l-14 6q-4 -4 -13 -13.5t-11 -13.5q2 -6 1 -15t-6 -18q-12 2 -13 7.5t-7 17.5q-12 -4 -21 -29q-4 4 -12 13.5t-18 17.5t-18.5 14.5t-20.5 -2.5zM197 1509q2 8 10 20.5t10 24.5q10 4 23.5 10.5t25.5 6.5q6 2 22.5 -4 t26.5 -17q18 -8 29.5 -29.5t22.5 -19.5q12 2 16 4t10 4q-6 -8 -8 -15t-2 -13q-2 -6 1 -6t7 -7q-2 -16 -21.5 -35.5t-23.5 -21.5q-10 -4 -6 1t-6 1q-8 0 -8 -9t-2 -20q-16 2 -35 -5t-35 -7q-6 8 -12 12.5t-9 8.5l-12 12t-16 10q-2 6 3 11.5t7 9.5q-20 29 -18 73z" />
<glyph unicode="&#xa2;" horiz-adv-x="694" d="M16 285q0 8 5.5 39.5t15.5 54.5q20 37 46 69.5t48 53.5q20 20 41 31.5t37 19.5t26.5 16.5t10.5 26.5q18 6 40.5 13t30.5 24q12 23 19.5 60.5t11.5 68.5q4 29 8 68.5t19 70.5q6 10 22.5 26.5t10.5 33.5q23 0 29.5 -8.5t25.5 -20.5q4 -12 10 -21.5t6 -23.5q0 -16 2 -41 t3 -47.5t2 -41t1 -20.5v-61q29 -4 61 -16.5t59.5 -31t47 -45t19.5 -57.5q-14 -8 -31.5 -17t-32.5 -15q-8 16 -22.5 31.5t-22.5 15.5q-10 0 -5 -2t-5 -2q-12 0 -26.5 10t-26.5 10q-10 0 -10 -5v-11l-13 12q-4 -6 -8 -7t-8 -7q-18 -86 -41 -172t-23 -136q6 6 13.5 4t15.5 -2 q-20 0 -37 -10q0 -2 15 -2q53 0 116.5 13.5t102.5 35.5l-13 -14q8 -18 23 -14q-14 -8 -25.5 -21.5t-23.5 -27.5q20 -2 49 0q-8 -6 -18.5 -8.5t-20.5 -8.5q-6 -6 -15.5 -12t-15.5 -12q-6 -39 -35.5 -50.5t-50.5 -25.5v-2q0 -2 4 -2q-6 2 -10 -5.5t-10 -11.5q-18 -8 -41 -11 t-45 -3q-4 -6 -6 -10t-6 -11q0 -33 -8.5 -82t-8.5 -61q0 -8 6 -29.5t15 -35.5v-25q-2 0 -4 -4q-4 -2 -5 -8q-8 8 -12 10t-7 2t-5 2t-8 14l-17 -16q-6 12 -15 35.5t-17 50.5q-6 -4 -11.5 -7t-11.5 -11q-2 14 -10 29.5t-13 29.5q-4 27 -2 58.5t0 66.5q-29 10 -65.5 34.5 t-70.5 58.5t-56.5 72t-22.5 81zM184 334q0 -23 16.5 -44.5t47.5 -29.5q6 20 8 42t8 40l-6 92q-4 -6 -16.5 -18.5t-25.5 -27.5t-22.5 -30.5t-9.5 -23.5z" />
<glyph unicode="&#xa3;" horiz-adv-x="1181" d="M16 530q6 6 14.5 19.5t12.5 23.5q-8 12 -12 21.5t-8 13.5v6q0 8 8 9q8 0 7 -1t-1 1q-6 4 -10 8t-11 10q6 2 6.5 11.5t12.5 9.5q6 0 4 -2.5t4 -2.5q10 0 27.5 17.5t29.5 17.5q10 0 8 -3t3 -7q6 0 15 -2t19 -2q6 0 12.5 -6t14.5 -6q12 0 26.5 6t24.5 6t26.5 -6t29.5 -6 q8 0 8 3t6 7q12 2 40.5 2h39.5q10 0 12 2l6 6q6 8 8 23.5t7 25.5q6 8 8 15q27 57 51 113.5t39 113.5q10 41 26.5 75.5t30.5 73.5q33 80 78 181.5t109 165.5q10 10 39.5 26.5t37.5 16.5t10.5 -5.5t12.5 -5.5q12 0 20 6q4 12 -16 21q29 -4 41 -15.5t27 -29.5q20 0 59 -28.5 t81 -73t71.5 -91.5t29.5 -84q0 -12 -5 -25.5t-9 -25.5q-10 -20 -32.5 -48t-51.5 -56q-2 -2 -3 -11.5t-11 -9.5t-14.5 -2t-12.5 -6q-4 0 -4 7t-8 7q-10 0 -9.5 -3t-3.5 -3q0 6 -1 9.5t3 9.5q-2 4 -10 8t-12 14q-4 12 -4 23.5v21.5l4 6v56q4 0 14 -11q8 12 10.5 26.5t2.5 29.5 v13t-5 15q-2 4 -14 19.5t-27.5 35t-31 35t-21.5 15.5q-10 0 -23.5 -15.5t-27.5 -33.5q-14 -20 -31 -43q-47 -74 -82.5 -140.5t-67.5 -137t-63.5 -145.5t-66.5 -161q0 -2 12 -12h66h86q12 0 15 -5t13 -5q6 0 34 -1.5t54.5 -6.5t47 -13t20.5 -25q0 -8 -20.5 -37.5t-39.5 -58.5 v-4q0 -2 -8 -2q-10 0 -14 5t-16 5q-10 0 -41 -9t-41 -9h-114.5t-117.5 -12q-37 -84 -68.5 -173.5t-58.5 -177.5q10 0 22.5 -7t18.5 -7h312q92 0 184 -20.5t166 -32.5q12 -4 6 -15q6 -4 16 -6t21 -4v-39q-6 -4 -14.5 -11t-20.5 -13q0 -6 5 -8.5t11 -6.5q-6 0 -15 -9t-9 -21 q-20 0 -43 2t-31 2t-22.5 -4t-24.5 -4q-8 0 -11 2t-10 4q-18 0 -44.5 3t-51 5t-44 4t-25.5 2t-23.5 -3t-32.5 -3h-39.5t-44.5 -6q-25 -4 -59.5 -2t-65.5 -2q-37 -4 -82 -8.5t-79 -14.5q-4 -2 -4.5 -6t-4.5 -10q0 -8 3 -19.5t-15 -7.5q-2 -4 -1 -10t1 -14v2q0 4 -2 8 q-20 -12 -34.5 -4t-20.5 -11q0 4 -7.5 12.5t-19.5 14.5q4 12 4 24.5t-12 18.5q-8 6 -22.5 10t-22.5 11q-12 6 -15.5 18t-13.5 20q-2 4 0 11.5t2 13.5t-4 11t-6 16q-6 8 -2 13t8 26q0 4 -5 5t-11 1q6 6 8 10t10 4q10 0 10 -1t7 -7q6 8 11 19.5t15 25.5q6 6 14.5 6t14.5 4 q8 23 28.5 49.5t26.5 53.5q2 14 6 30.5t13 26.5v4q0 2 -2 4q-12 -10 -13 -14q10 29 15.5 55.5t13.5 61.5q4 12 11 31.5t13 33.5q0 2 -6 8q-20 -4 -44.5 -2t-32.5 2q-10 0 -33 -7t-33 -7t-17.5 3t-17.5 3q-8 0 -35.5 14.5t-40.5 14.5q-8 0 -5 0t3 -6q2 6 -6 9t-14 5v12t-6 21 q-8 -10 -15 -11zM241 186.5q-3 -6.5 1 -10.5q10 11 2 21q0 -4 -3 -10.5z" />
<glyph unicode="&#xa4;" horiz-adv-x="1705" />
<glyph unicode="&#xa5;" horiz-adv-x="1081" d="M18 440q0 8 8.5 19.5t14.5 19.5q20 0 35.5 11.5t30 22.5t31 22.5t34.5 11.5q23 4 48.5 3t53.5 1q6 2 17.5 9t21.5 7t8 -3t9 -3q8 0 9 4t7 8q-14 20 0 56.5t14 66.5q0 2 -11 34t-28.5 80t-35 103.5t-31.5 110.5q-12 41 -26.5 95.5t-26 103.5t-19.5 87t-8 42q0 20 16 34 q-6 12 -0.5 30t9.5 20q20 0 23 -1t11 -1t14.5 10t12.5 18q10 -6 23.5 -17t21.5 -11q12 0 10 1t4 1q18 -41 37 -91.5t33 -99.5q8 -43 21.5 -98t25.5 -117q4 -23 8.5 -49.5t16.5 -54.5q43 39 81 74.5t72 66.5q2 4 10.5 5t14.5 3q6 4 6 10q37 29 86 61t98.5 59.5t100.5 46 t96 18.5q12 -14 14 -25.5t-14 -21.5q2 -6 16.5 -15.5t22.5 -11.5q-12 -10 -19.5 -26.5t-17.5 -28.5q-14 -18 -35.5 -33.5t-34.5 -36.5q-14 -12 -36.5 -22.5t-42.5 -24.5q-43 -29 -86 -61.5t-82 -75.5q-31 -33 -67 -75t-69 -79q0 -2 -1 -9t-7 -13q-20 -20 -24 -36t-15 -38 q-6 -12 -7 -30.5t-5 -33.5q12 -4 21.5 -8t21.5 -4q8 0 7 4t9 4t8.5 -1t4.5 -7q12 6 27.5 6h21.5q10 0 8 -6t6 -6q6 0 40 -4t75 -9t73.5 -10.5t39.5 -5.5q10 0 24.5 3t24.5 3t26.5 -10t30.5 -16q6 -4 4 -10.5t-4 -12.5q2 -4 8 -13t17 -15q-2 0 -6.5 -7.5t-2.5 -13.5 q-6 6 -11 -3t11 -9q-14 -4 -29.5 -11.5t-29.5 -7.5q-6 -4 -5 -8t7 -4q-14 6 -28.5 7t-24.5 1t-8 -5t-11 -5q-4 0 -20 3t-37.5 5t-46.5 4t-43 2q-55 0 -112.5 3.5t-123.5 -3.5q0 -43 -6 -90q10 -8 13 -8l186 29q10 0 18.5 -2t18.5 -2t37.5 -5.5t46.5 1.5q-4 -20 -19.5 -33.5 t-31 -23t-33 -15.5t-27.5 -12q12 -12 14.5 -13.5t8.5 -1.5q10 0 13 -1t9 -1q-31 -12 -69.5 -32.5t-51.5 -20.5q-8 0 -5 -2t-7 -2q-8 0 -9 -2t-7 -8l-10 10q-16 -14 -31 -14q-8 0 -4 2t-4 2t-34 -14.5t-46 -28.5q0 -29 -3 -54.5t-7 -62.5q-2 -29 -3.5 -81t0.5 -95 q-8 -12 -20 -21q-4 4 -6 11.5t-2 15.5q-6 4 -6 3t-6 3q-4 -4 -3.5 -12t-1.5 -15q-6 0 -13 -10t-5 -16q-8 6 -25.5 6h-31.5q-12 49 -14.5 99.5t-8.5 97.5q-2 29 0 57.5t-2 54.5q-14 -4 -36.5 -5t-44 -4t-39 -4t-19.5 -1q-8 0 -36 7t-44 7q-4 8 -12.5 15.5t-16.5 11.5 q0 4 -3 13t-5 14q8 8 4 14q-2 6 -9 9t-7 11q0 12 3 15.5t3 11.5q4 8 22 4q8 10 21.5 20.5t19.5 20.5q16 0 42 4t47.5 7t39 4t23.5 1q10 0 6 -2t6 -2q25 0 47 17q4 27 6.5 49t6.5 51q-51 4 -115 -14q-16 -4 -41 -13.5t-37 -9.5q-35 0 -66.5 20.5t-39.5 55.5q0 4 -4.5 6 t-4.5 10z" />
<glyph unicode="&#xa6;" horiz-adv-x="231" d="M33 297q0 10 4 32.5t4 41.5q2 57 3 117.5t15 119.5q10 4 17.5 21.5t27.5 21.5q8 6 28 7t30 1t16 -9t8 -9q0 -16 3.5 -44t5.5 -53.5t4 -46t2 -22.5q0 -6 -2 -27.5t-4 -54.5t-5.5 -65.5t-5.5 -57.5v-53.5t-6 -58.5q6 -6 8 -9.5t2 -13.5v-61q-4 -6 -6 -10.5t-12 -4.5t-9 3.5 t-9 3.5q-14 0 -31 -17q-12 16 -29.5 35.5t-32.5 30.5q-6 16 -12 37.5t-10 40.5q-2 25 -3 59.5t-1 44.5zM37 1041.5v25.5q0 2 2 21.5t3 46t4 54.5t5 48q8 27 12.5 59.5t14.5 63.5q4 10 24.5 30.5t34.5 20.5q2 0 12.5 -8t20.5 -18.5t17.5 -21.5t7.5 -15q0 -10 -7.5 -25.5 t-9.5 -30.5q-2 -25 -1 -50t-1 -56v-42t-4 -46q-2 -37 -5 -87t-7 -87q0 -6 1 -22.5t1 -34t-5 -31t-20 -13.5q-12 0 -6 3t-6 3q-8 0 -18.5 -7t-24.5 -15q6 8 1 31.5t-30 17.5l13 14q-6 6 -14.5 11.5t-8.5 13.5q0 18 -1 46t-3 54.5t-2 46z" />
<glyph unicode="&#xa7;" horiz-adv-x="729" d="M47 485q0 12 4 34t4 44q-2 39 22.5 78t45.5 82v-23q14 16 33.5 32t31.5 36q31 25 68 35q2 6 6 7t4 13q0 2 -7 20.5t-16.5 40t-17.5 47t-12 44.5l-5 45t-5 53.5t-4 46t-2 23.5q0 12 2 24.5t2 26.5q2 4 7 7t9 9q2 23 8 47.5t11 55.5q-16 -8 -25 -25q20 39 20 66 q12 10 23.5 28.5t32.5 28.5q12 6 34.5 17.5t45.5 21.5q8 4 17 4h17q6 0 19.5 -8t31 -17.5t32 -17.5t20.5 -8q12 0 7 3t7 3q2 0 16.5 -8t34 -20.5t40 -27t38.5 -24.5q6 -14 22.5 -25.5t24.5 -33.5q14 -27 25.5 -66t11.5 -49q0 -14 -10 -27.5t-19 -13.5h-18q-12 0 -9 5t-3 11 q-4 -12 -7 -28.5t-10 -24.5q-16 -10 -41 -22l-14 12q-12 2 -20.5 13.5t-8.5 15.5q0 6 4.5 10t-0.5 10q-4 23 -22 23q-4 12 -16.5 23.5t-38.5 35.5q-2 0 -2 8t-7 15q-18 16 -40.5 27.5t-40.5 19.5q-20 -18 -25 -33q-4 -8 -2 -20.5t2 -26.5q0 -6 -6 -7t-6 -12q0 -12 3 -13 t3 -7q-6 -49 1 -89t17.5 -78t23.5 -78t23 -89q4 -6 9.5 -11t9.5 -11l-4 -2q0 -4 -1 -4.5t-1 -2.5q10 -25 28.5 -58.5t36 -70.5t34.5 -75.5t28 -71.5q2 -14 8 -42t10 -56.5t6 -52t2 -27.5q0 -37 -20.5 -82t-51 -83t-66.5 -65.5t-69 -36.5q-10 -6 -18 -14q2 -12 17.5 -49 t32 -81t28.5 -87t12 -68q0 -6 -5 -44.5t-13 -61.5q-6 -16 -22.5 -32.5t-36 -28t-39 -17.5t-27.5 -6q-39 0 -98.5 17.5t-98.5 62.5q6 10 -10 22q-6 2 -11.5 2h-11.5q-6 8 -4 16.5t-4 16.5q-2 6 -10 8t-14 9v41q6 6 14 22t29 31q6 6 20 11t19 13q4 -18 10 -22t12 -4q12 0 10 2 t11 2q10 0 32.5 -21.5t48.5 -27.5q6 6 4 3t-2 9q0 8 -9 40t-17 52q-6 6 -7 10.5t-7 -2.5q6 6 5 5t-1 8q0 6 -7.5 24.5t-18.5 44t-23.5 51t-24.5 46.5q-4 8 -15.5 12t-17.5 10q-10 31 -31 43q-4 20 -12 37.5t-14 40.5q8 8 16 14t17 15q0 2 -9.5 34.5t-20.5 74.5t-21.5 82 t-10.5 56zM233 483q0 -20 11.5 -61t25 -84t25.5 -78t12 -37l12 -6q20 16 42 26.5t34 28.5q20 25 29.5 65t9.5 52q0 10 -4 46t-22 57q-14 14 -30 15t-26 9q-14 14 -22 33.5t-17 36.5q-2 4 -16 4l-14.5 -14.5t-14.5 -10.5q-10 0 -16 -4q-2 -4 -4 -4q0 -16 -7.5 -39.5 t-7.5 -34.5z" />
<glyph unicode="&#xa8;" horiz-adv-x="1048" d="M311 1341q0 16 22.5 42t33.5 40q14 -8 35.5 -11t35.5 -3q0 -4 10.5 -11t22.5 -7q0 -2 4 -13.5t-6 -17.5q2 -8 12.5 -13.5t18.5 -11.5q-14 -25 -19.5 -54.5t-19.5 -53.5q-10 0 -27.5 -2t-27.5 -2q-8 0 -28 9t-30 11q2 14 -5 30.5t-13 31.5q-10 16 -19 36zM575 1354 q6 4 22.5 11t31.5 15q2 6 0 11.5t-2 9.5q8 2 16 7t12 11q6 -8 -4 -18q23 -37 64 -45q0 -6 8 -13.5t25 -11.5v-94q-6 -8 -14.5 -24.5t-18.5 -16.5h-23q-8 0 -32.5 10.5t-45.5 24.5q6 14 1 32.5t-9 30.5q-2 12 -13 28.5t-18 31.5zM709 1366l8 14l6 -2l-6 -14z" />
<glyph unicode="&#xa9;" horiz-adv-x="778" d="M23 477q0 47 15 100.5t42 90.5q16 20 36.5 48.5t41.5 45.5q6 4 11 12t11 14q20 12 49 32t37 20t4 -1t4 -1q16 0 13 16q4 -4 20 -4q8 0 7 3t1 7q23 2 37.5 1t34.5 11q6 4 18.5 12.5t18.5 8.5t34.5 -7t45.5 -12q10 -4 29.5 -16t29.5 -12t0 8q6 -4 15.5 -5t17.5 -5 q14 -4 43 -27q2 4 -1 6t-3 6q4 0 6 -2q0 -2 4 -2q2 0 2 -2q2 -6 9.5 -19t13.5 -22q4 -4 6 -12t6 -14q4 -4 11 -7.5t9 -11.5q4 -10 5.5 -22.5t5.5 -22.5t10 -22.5t10 -28.5q2 -16 7 -39.5t7.5 -46.5t4.5 -39t2 -20q0 -6 -2 -19.5t-7 -21.5q-4 -14 -12 -27.5t-12 -30.5 q-14 -51 -43 -89t-62 -75q-74 -57 -135 -74.5t-133 -17.5q-2 0 -15.5 1t-29.5 1t-30.5 1t-18.5 1q-2 0 -13.5 3.5t-25.5 7.5t-27.5 10t-21.5 14q-6 2 -18.5 17.5t-29 35t-31.5 40t-26 38.5q-6 12 -17 40t-15 55q-2 12 -4 39.5t-2 31.5zM141 451q0 -16 6.5 -43t17.5 -55.5 t26.5 -50t29.5 -21.5q6 -2 10.5 -8.5t10.5 -6.5t14 -4t16 -4t36 -3t36 -3t14.5 1t14.5 1q6 0 10 3t14 5l9 -8q29 20 45 20q8 0 5 -2t3 -2q4 0 16 7.5t26.5 15.5t28 19.5t21.5 19.5q18 25 34.5 50.5t20.5 51.5q4 18 6 38t6 36q2 8 7.5 17.5t5.5 19.5l-1 14t-5 31.5t-8.5 36 t-8.5 30.5q-2 0 -2 -1t-6 -1q-20 0 -35.5 18.5t-33 41t-39 41t-52.5 18.5t-63.5 -14.5t-66.5 -39t-62.5 -55t-52.5 -59.5l6 -6q-14 -8 -26.5 -26.5t-20 -41t-10.5 -44t-3 -37.5zM209 461q0 6 3 27.5t7 35.5q0 4 16.5 26.5t40 50.5t47 49.5t37.5 21.5q8 0 6.5 -4t6.5 -4 q6 0 14 5t19 5q12 4 30 4q55 0 84 -72q2 -4 8.5 -8t6.5 -12q0 -18 -11.5 -24.5t-15.5 -16.5q-6 12 -12 22q-12 14 -33 15q-4 0 -27.5 -4.5t-42.5 -8.5q-2 -2 -13 -10t-22.5 -21.5t-21.5 -27.5t-10 -25q0 -8 3 -20t9 -26.5t15 -22.5t26 -8l8 -7q16 0 37.5 5.5t28.5 5.5 q16 0 29.5 -4.5t13.5 -18.5q0 -8 -7.5 -15t-11.5 -12q-39 -29 -71.5 -49t-69.5 -20q-6 0 -14.5 6t-17.5 13t-18.5 13.5t-9.5 8.5q-8 -8 -8 -10q-16 10 -27.5 29.5t-18.5 40t-10 39t-3 28.5zM537 653v6h10v-6h-10z" />
<glyph unicode="&#xaa;" horiz-adv-x="600" d="M23 1122q0 2 3 14.5t9 27t11 29.5t9 26q20 41 53 90t60 90q14 20 32.5 51t42 58.5t49 48t52.5 20.5q16 0 30.5 -12.5t14.5 -24.5q0 -6 -4 -12l-8 -12q-2 -4 -12.5 -10.5t-16.5 -14.5q-8 -10 -15 -20.5t-16 -20.5q2 -2 1 -4t6 -2h51q0 -2 9 -7t17 -5q20 -23 21 -43 q0 -18 -12.5 -58.5t-24.5 -89.5t-23.5 -94t-11.5 -74q0 -4 2 -14t2 -21q4 -4 2 -5t4 -1q20 0 53 11.5t65 24.5t59.5 26.5t37.5 17.5q-4 -8 -14 -21.5t-14 -23.5q-8 -10 -21.5 -21.5t-29.5 -21.5q4 -4 6 -7l2 -3q-12 -4 -38 -18.5t-44 -28.5q-6 0 -15.5 -2t-17.5 -2 q-6 0 -14 2t-15 2q-18 0 -33.5 13t-29.5 29.5t-24.5 36t-14.5 33.5q-6 14 -7 32.5t-5 41.5q-29 -33 -55.5 -62.5t-61.5 -64.5q0 -4 4 -6q-10 -4 -24.5 -3t-22.5 1q-14 0 -26.5 16.5t-21.5 34.5t-12 34.5t-3 18.5zM158 1178q55 61 100 133t53 125q-16 -12 -30.5 -33 t-28.5 -39v-7v-7q-25 -39 -51.5 -87.5t-42.5 -84.5z" />
<glyph unicode="&#xab;" horiz-adv-x="913" d="M59 512q0 8 14.5 32.5t24.5 45.5q6 8 15.5 13t15.5 11q39 49 82 101.5t86 107.5v4q0 2 -4 9q8 0 18 -21q6 6 6 9t11 3q12 0 35.5 -26.5t39.5 -40.5q0 -31 -21.5 -62.5t-47 -64.5t-55 -64.5t-46.5 -60.5q23 -33 42.5 -58.5t50.5 -64.5q14 -20 37.5 -41.5t42.5 -52.5 q6 -8 15 -26.5t17 -35.5q4 -6 5 -26.5t24 -20.5v-18q-12 -6 -39 -35q-4 0 -14 12q-14 0 -15 -16q-4 4 -4 7t-12 3q-10 0 -9 -3t-9 -3q-12 0 -16.5 9t-12.5 9q-12 0 -12 -6q2 14 -6.5 31.5t-20.5 36t-26.5 32t-22.5 21.5q-2 14 -27.5 43t-30.5 41q-6 18 -26.5 42t-44 46.5 t-42 43t-18.5 34.5zM397 514q0 10 9.5 25.5t20.5 31t22.5 27.5t13.5 18q53 61 105.5 121t95.5 137q4 -4 4 -12t8 -14q8 4 16 13t17 24v-2q0 -4 6 -9q6 0 11 5.5t11 11.5q16 -14 31.5 -37t32.5 -35q2 -6 2 -5t0 -9q0 -33 -34 -87t-76 -106.5t-76.5 -91.5t-34.5 -47 q0 -20 43 -61q0 -10 2 -17q18 -25 49 -55.5t57.5 -62t46 -62.5t19.5 -55q0 -10 -3 -21.5t-3 -25.5q-23 -10 -39 -11q-10 0 -6 5.5t-9 5.5h-32q-6 29 -23 51q-8 8 -28.5 18.5t-34.5 24.5q-31 29 -64 64.5t-63.5 72.5t-52 73t-29.5 66q-4 12 -9.5 17.5t-5.5 13.5z" />
<glyph unicode="&#xac;" horiz-adv-x="997" d="M78 573q0 10 5 14.5t11 10.5q-4 6 2 23q2 8 9.5 16t13.5 8l547 39q8 0 9 -5t15 -5q10 0 12.5 2t10.5 2q10 0 41.5 -13.5t50.5 -27.5q12 -6 25.5 -19.5t19.5 -27.5q16 -33 16 -69t-4 -70.5t-7 -66.5t11 -56q6 -8 7 -35t-1 -37v-43q-2 0 -6 4q-6 6 -10 6q0 -10 -2 -18 t-2 -21q-8 -6 -21.5 -6h-25.5q-8 0 -22.5 13.5t-30 31t-27.5 31.5t-12 18q-18 31 -18.5 59.5t-0.5 67.5v82q-20 12 -35 13q-10 0 -10 -3.5t-6 -5.5q-55 2 -90 -1t-117 -13h-33.5t-42.5 -2q-6 -4 -6 -6t-10 -2q-12 0 -41 5t-65 -1l-15 12q-10 0 -17 -3t-18 -3 q-8 0 -38.5 20.5t-51.5 34.5q-4 6 -12 21.5t-8 25.5z" />
<glyph unicode="&#xad;" horiz-adv-x="729" d="M115 489q6 6 12 15.5t6 21.5q18 2 28.5 15.5t26.5 21.5q10 -4 16.5 -12t18.5 -8q8 0 24.5 2t33.5 2q25 4 30.5 4t24.5 4q18 6 31.5 10t23.5 4q8 0 19.5 -1t23.5 -2t32.5 4t55.5 -3q27 -6 58.5 -15t56.5 -40q-12 -14 -4 -32t12 -36q-2 0 -4 5l-6 2q-6 -6 -10 -25.5 t-27 -19.5l-350 -33q-37 0 -52.5 6t-23.5 18.5t-18.5 34t-38.5 57.5z" />
<glyph unicode="&#xae;" horiz-adv-x="815" d="M23 967q0 29 13 65.5t34.5 71.5t46 63.5t47.5 38.5q2 4 6 8.5t4 6.5q23 14 51.5 39.5t67.5 48.5q16 8 47 21t57 20q18 4 41 6t44.5 4t38 3t20.5 1q6 0 23.5 -5t35.5 -14.5t32.5 -16.5t18.5 -13q6 -4 8.5 -15.5t10.5 -21.5q2 -2 6 -2t4 -4q4 -10 13 -21.5t3 -19.5l-8 8 t-8 10v-6l5 -9t12.5 -19.5t14.5 -22.5t11 -21q29 -70 51.5 -135.5t22.5 -124.5q0 -6 -3 -35.5t-6 -48.5q0 -2 -4 -4h-4q-8 -23 -16 -49t-25 -49q-8 -10 -19 -22.5t-28 -22.5q-16 -14 -39.5 -32.5t-31.5 -18.5t-4 2t-5 2q-4 0 -9 -3t-11 -7q0 -2 2 -2q2 -2 6 -3q-4 -4 -8 -7 t-8 -5q0 6 8 12h-2q-2 0 -2 1.5t-2 1.5q-4 0 -11.5 -6.5t-5.5 -16.5q-8 -2 -24.5 -1t-24.5 -7q0 8 -10 8q-12 0 -6 -6q-14 -2 -36 -2h-32t-6 -2t-4 -2t-6 -2t-6 -2q-12 0 -41 8t-58.5 18t-56.5 21.5t-37 17.5q-4 4 -21.5 11.5t-25.5 15.5q-39 20 -55.5 45.5t-40.5 58.5 q-2 6 -5 16.5t-5 18.5q0 6 -7.5 13.5t-11.5 17.5q-6 12 -9 26.5t-7 28.5q-4 16 -7 36.5t-3 31.5zM131 946q0 -18 4 -42.5t12.5 -49.5t21.5 -44t34 -32l-4 -2q51 -41 113.5 -58.5t121.5 -23.5q8 0 17.5 -2t17.5 -2q10 0 25.5 5t31 11.5t28.5 14.5t15 12q14 12 25.5 27.5 t19.5 23.5l14.5 14.5l10.5 10.5q6 4 4 10t4 12q4 12 12.5 23.5t8.5 19.5t-2 27t-9 27q-4 6 -7 10t-3 8q-6 20 -10 37.5t-8 40.5q-10 37 -23.5 70.5t-36.5 76.5q-2 10 -14 15.5t-20 3.5q2 4 7 6t5 4q-25 20 -46.5 29.5t-21.5 36.5q0 6 8.5 9t16.5 3q4 0 4 -1t6 -1q10 0 14 6 t9 12q0 -10 19 -13t26 -9q4 10 7 10t13 4q4 -4 2 -4t4 0t15.5 1t17.5 -1l14 -10q-14 16 -47 36.5t-61 20.5q-16 0 -44 -9t-40 -20q2 0 7 -1t5 -5q-14 -12 -31.5 -14t-17.5 -16q-4 4 -5 6t-5 -2q0 -14 -12.5 -19.5t-20.5 -9.5q-14 -14 -33.5 -23.5t-30.5 -17.5 q-16 -10 -29.5 -24.5t-21.5 -18.5q-14 -10 -38.5 -31.5t-46 -47t-35 -51.5t-9.5 -44q-4 -6 -6 -17.5t-2 -17.5zM274 801q0 39 15.5 94t25.5 98q2 8 8.5 21.5t12.5 23.5q6 23 14 51.5t6 51.5q2 6 7.5 8t11.5 8q2 4 2 12.5t2 12.5q2 6 7 9t7 7l4 6q4 0 7.5 -5t7.5 -11 q8 4 18 11t19 7q6 0 10 -5t10 -7t14.5 -5t14.5 -7q20 -10 45.5 -34t42.5 -48q4 -4 7 -13.5t3 -19.5t-10 -29q-10 -10 -27.5 -26.5t-26.5 -16.5q-8 0 -1.5 3t-2.5 3q-16 -8 -26 -18q-12 -10 -22.5 -18.5t-14.5 -18.5q-2 -2 -6 -3t-8 -5v-14q14 -18 42.5 -26.5t47.5 -35.5 q6 -10 6 -14v-8q2 -4 7 -8.5t9 -8.5q4 -6 5 -15t5 -15q-10 -2 -21 -2t-22 -7q0 -4 13 -16q-2 4 -2 5t-9 1q-8 0 -5 -4t-5 -4t-11 4t-7 6q-33 4 -53.5 25.5t-49.5 32.5q-4 -14 -5 -38t-15 -38q-10 -10 -11 -14.5t-5 -8.5q-6 0 -11 17q-4 -4 -4 -9.5t-4 -11.5q-6 4 -8 10.5 t-6 16.5q-6 -4 -9.5 -7t-7.5 -10q0 6 -3 10.5t-1 10.5q-8 10 -22.5 20.5t-14.5 18.5zM426 1192l6 -4l8 10l-4 2zM451 1292h12v8h-12v-8zM627 647q20 8 32.5 22.5t26.5 30.5q-14 -10 -31.5 -27.5t-27.5 -25.5zM655 1272q4 -4 9.5 -11.5t9.5 -11.5q-8 8 -5 15.5t-14 7.5z" />
<glyph unicode="&#xaf;" horiz-adv-x="1124" d="M301 1339q2 0 4 4l8 9l9 -13q6 31 41.5 38t56.5 7q4 0 21.5 -1t37 -1t35.5 -2t21 -2q8 0 31.5 6.5t39.5 6.5q27 0 63 4t68.5 8t57 6t30.5 2t15.5 -13.5t21.5 -21.5q-4 -4 4 -16q-2 -6 1 -5t3 -9t-3 -17.5t-3 -15.5v2q0 2 -6 8q-2 0 -7 -11.5t7 -4.5q-4 -8 -19.5 -20.5 t-27.5 -26.5q-2 -2 -28.5 -10.5t-59.5 -16.5t-61.5 -15.5t-36.5 -7.5q-12 0 -48 -3t-47 -3q-6 0 -24.5 3t-43 6.5t-51 7.5t-44.5 8q-14 12 -31 25.5t-31 21.5q6 6 11.5 18.5t13.5 26.5q-4 8 -12.5 11t-16.5 7z" />
<glyph unicode="&#xb0;" horiz-adv-x="385" d="M14 1028q0 16 12.5 49t30 68t40 63.5t38.5 38.5q14 8 25.5 22.5t19.5 14.5q10 0 10 -5t7 -11q12 14 8 20q8 -6 20.5 -3t22.5 3q4 -4 21.5 -13t39 -24.5t37.5 -35t16 -37.5q0 -25 -25.5 -63t-41.5 -62v-2q0 -4 2 -5.5t2 -3.5q-14 -27 -32.5 -44t-35.5 -35q-4 -4 -2 -8.5 t9 -10.5q-10 -8 -23.5 -12t-26.5 -12q0 -10 11 -11l16 2q-6 -2 -8 -5t-14 -3q-10 0 -19.5 8.5t-21.5 8.5h-25q0 -8 4 -8.5t10 -0.5q-16 -4 -37.5 8.5t-42 30t-34 40t-13.5 38.5zM113 1042q0 -23 20 -30q16 2 44 17t53.5 33.5t47 39.5t25.5 37v18q-20 14 -43.5 19.5 t-46.5 15.5q-39 -23 -69.5 -72t-30.5 -78z" />
<glyph unicode="&#xb1;" horiz-adv-x="806" d="M14 188q0 4 5.5 11.5t11.5 13.5q6 4 17 11t20 12q14 6 37.5 10t31.5 4q2 0 21.5 1t47 0t56.5 0t51 3q37 -4 92.5 -7t106.5 -5q10 2 41 -1t62.5 -7.5t57 -12.5t25.5 -16q2 -18 -7 -28.5t-3 -37.5q-2 -10 -12 -21.5t-19 -21.5q0 -6 5.5 -6h11.5q-12 -8 -28.5 -14t-29.5 -6 q-12 -4 -8 -11l-282 -22q-10 0 -5 -4t-6 -4q-10 -2 -8 2t-8 4q-12 -2 -5 -5t-3 -5h-49t-43 2q-10 -2 -26.5 -1t-39.5 -1l-18 14q-23 10 -42.5 25.5t-31.5 31.5q-10 14 -8 35t0 37q-6 4 -12.5 10t-6.5 10zM31 629q8 8 13 16t17 10q10 0 5 -3t6 -3q12 2 12 11.5t2 11.5 q8 0 18.5 5t20.5 7h46t105 2q10 45 16.5 121t22.5 137q2 8 8.5 18.5t14.5 14.5q16 6 32.5 14t28.5 17q10 -31 25.5 -33t30.5 -23q10 -10 13 -35.5t3 -33.5q0 -4 -1 -28t-2 -55.5t-3 -63t-4 -56.5q18 -2 40.5 -12.5t59.5 -1.5l227 -64q-6 -20 -4 -47t-2 -43q-10 -16 -16 -13 t8 -10q-4 -4 -8 -12t-12 -8l-82 -6q-10 -2 -35 1t-47 1l-8 12q-33 -10 -65 -9t-64 1q-10 -43 -21 -107q16 -25 2 -42t-26 -39q-6 6 -5.5 3t-11.5 -5q-8 0 -18.5 9t-22.5 11q0 4 -2 9t-8 16q-4 -4 -3 -10.5t3 -14.5q-2 8 -8 14l-15 -18q0 8 -4 19.5t-8 19.5q-2 4 -5 3t-9 5 q-6 31 -9 58.5t-6 58.5q-16 6 -38 4q-12 -2 -45 1t-56 13q-10 2 -20.5 17.5t-20.5 19.5q-6 6 -16 9t-17 7q-4 14 -9 21.5t-9 21.5q-6 6 -3 7.5t5 7.5q4 12 -16 41zM66 223l16 6l-4 9l-12 -7v-8z" />
<glyph unicode="&#xb2;" horiz-adv-x="557" d="M24 1046.5q1 20.5 1 36.5q6 6 11 6.5t7 4.5q55 98 124 192t112 209q-8 20 -13.5 14t-19.5 7q-6 -6 -6 -15q-39 -20 -47 -45q-12 -4 -31 -15t-43 -26l-17 17q-8 -6 -16 -12.5t-16 -12.5v23q0 8 6 19t12 24q2 8 1 19t1 26q0 6 3 15t16 9q10 0 5 -3t5 -3q2 0 12 14.5 t25.5 29.5t30 28.5t26.5 13.5q10 0 5 -2t5 -2q8 0 8 8t7 10q23 10 42 12.5t37 2.5q25 0 41.5 -10.5t55.5 -51.5q6 -6 7 -19.5t7 -19.5q6 -8 10 -16t4 -18q0 -35 -30.5 -89.5t-66.5 -109.5t-66.5 -97t-32.5 -44q55 2 115.5 -1.5t121.5 -5.5q12 -23 21.5 -39t36.5 -26 q-16 -18 -20.5 -24.5t-1.5 -10.5t7 -7t4 -11v-25q-14 -8 -27.5 -15t-25.5 -7q-10 0 -9 3t-1 3l-14 -13q-10 -2 -21.5 1t-21.5 3q-47 -4 -95.5 -11t-95.5 -11q-14 -4 -36.5 -9t-30.5 -5q-10 0 -5 5t-6 5q-12 0 -33.5 -5t-29.5 -5q-12 0 -25.5 15t-25.5 30q-4 16 -3 36.5z" />
<glyph unicode="&#xb3;" horiz-adv-x="436" d="M16 1565q10 8 33 8q6 4 4 9t-2 7q14 6 18.5 16.5t-6.5 24.5q25 6 52.5 21.5t46.5 19.5q31 8 70.5 14.5t52.5 6.5q35 0 70.5 -19.5t41.5 -30.5q-6 -31 6.5 -62.5t12.5 -39.5q0 -23 -18.5 -49.5t-41 -50t-42 -40t-21.5 -16.5q12 -18 33.5 -36.5t33.5 -40.5 q12 -23 17.5 -52.5t5.5 -42.5q0 -10 -7 -34.5l-11 -38.5q-4 -6 0 -13.5t2 -15.5q-2 -4 -6.5 -18.5t-10.5 -20.5q-18 -29 -52 -55.5t-56 -40.5q-4 -2 -10.5 -2h-10.5q-6 -4 -9 -10.5t-11 -6.5q-10 0 -44 13.5t-51 25.5q-2 4 -10 11.5t6 13.5q-18 27 -28 65v9q-16 8 -25 36 q2 -6 12.5 -15t20.5 -13h2q4 0 6 4l-8 10v19q6 -4 4 -4.5t10 -0.5q10 0 9 8.5t10 8.5q12 0 8 -6t6 -6t12 6t4 6l15 -12q14 14 14 22q8 0 19 -10q23 8 34 30.5t11 43.5q0 25 -15.5 35t-36 13t-43 4t-32.5 7q-6 2 -30 37t-24 57q0 8 13.5 33t27.5 39q31 27 71 56.5t79 66.5 q-18 18 -53 5t-50 -18q-23 -6 -51 -3t-67 -3q0 2 -11 15zM113 1473l39 36l6 -8l-43 -35zM160 1518l24 18l6 -8l-24 -19z" />
<glyph unicode="&#xb4;" horiz-adv-x="1204" d="M315 1188q0 29 15.5 40t3.5 36l6 12q0 -6 -1 -9t3 -7q6 4 6 11t6 13q74 66 155 115t120 76l22 -7l-8 13h6q4 0 8 2l-7 -7t9 -1t47 20.5t66 28.5q6 -8 10 -17.5t4 -21.5q0 -20 -18 -41q12 -18 -6 -39q-25 -23 -67 -55.5t-85 -63.5q-23 -16 -35 -29.5t-43 -37.5 q-8 -4 -16 -12.5t-28.5 -29t-41 -37t-30.5 -16.5q-14 0 -45 10.5t-45 16.5q0 8 -5.5 18.5t-5.5 18.5z" />
<glyph unicode="&#xb5;" horiz-adv-x="1226" d="M-76 -346q0 8 5 19.5t5 17.5q12 0 19 6q2 16 5 31.5t-3 29.5q23 35 35 69t24 62q8 29 13 70q0 4 6 11l12 14q20 57 34.5 115.5t35.5 117.5q23 70 38 148.5t64 154.5q-6 10 0 23.5t6 27.5v-4q0 -2 6 -6q4 12 7.5 26.5t7.5 26.5q14 29 34.5 72t34.5 84q6 2 11.5 4t9.5 6 l-2 2q-2 0 -4 2t-4 2q12 16 30.5 52t30.5 61v-11t6 -9q6 10 16.5 20t26.5 14q-6 -20 7.5 -27t33.5 -7q4 -14 17.5 -16.5t21.5 -14.5q4 -29 -8 -59.5t-27 -63.5q-12 -37 -21 -78t-20 -80q-4 -23 -13 -58.5t-13 -70.5q-6 -18 -8.5 -42.5t-5.5 -47t-4 -40t-1 -21.5q0 -12 8 -29 q33 51 65 100.5t54 94.5q6 12 23.5 27.5t23.5 29.5q53 86 103.5 173t95.5 169q6 8 18.5 12t26.5 8q4 -2 3 -10t9 -8q8 0 4 3t4 3q10 0 11.5 -8t11.5 -8h10l4 6q6 -6 7.5 -16.5t13.5 -10.5q10 0 12 -5t6 -5q0 -6 3 -15.5t3 -19.5q0 -8 -5 -17t-11 -16v-11t2 -9 q-12 -35 -21.5 -83t-19.5 -91l-4 -8q-6 -10 -6 -17q-6 -25 -13.5 -59.5t-12.5 -66t-7 -56.5t-2 -29q0 -20 4 -30.5t25 -10.5q10 0 33.5 -3t33.5 -3q6 0 23.5 5.5t40 13.5t40 13t23.5 5q10 0 8 -3t9 -3q4 0 19 4t35.5 11.5t42 15.5t40.5 16q2 -8 8 -18.5t6 -20.5q0 -8 -6 -9 t-14 -11q6 -6 8 -6t8 -5q-6 -6 -12 -16t-14 -16l-3 -6q0 -2 3 -2q-4 2 -8.5 -7.5t-12.5 -13.5q-20 -12 -47 -21.5t-47 -21.5q-31 -18 -49.5 -26.5t-28.5 -9.5t-17.5 -2t-17.5 -3q-12 -6 -30.5 -12t-28.5 -6q-14 0 -40 6t-53.5 16t-50 21.5t-30.5 19.5q-39 37 -50.5 90 t-15.5 105h-4q-2 0 -6 -4q-10 -25 -30.5 -59t-45 -72.5t-49.5 -78.5t-45 -73q-12 -4 -27.5 -12.5t-25.5 -8.5q-8 0 -36 5.5t-54 11.5q-4 2 -12.5 9t-12.5 13q-4 2 -11 2h-14q-2 2 -6 7.5t-8 11.5q-10 -2 -16 -23q-6 -25 -15.5 -56.5t-17.5 -59.5q-14 -45 -34.5 -104.5 t-40 -116t-34 -104.5t-14.5 -75q-2 -6 -7 -14t-7 -16q-6 0 -15.5 -2.5t-19.5 -2.5t-18.5 2.5t-18.5 2.5q-8 0 -21.5 13t-25.5 30.5t-21.5 35t-9.5 21.5zM303 719h8l8 29h-8z" />
<glyph unicode="&#xb6;" horiz-adv-x="823" d="M25 727q0 10 3 9t3 5q-4 16 -5 36t5 40q4 16 14 42t21 44v14.5t4 14.5q8 25 21 51.5t28 46.5q27 39 60.5 71t64.5 62q35 37 82 53.5t88 16.5q12 0 35.5 -11.5t33.5 -11.5t12.5 5.5t6.5 5.5q-2 -10 10 -31t12 -29q0 -12 -2 -8t-8 0q0 -14 -4 -29.5t-8 -29.5q-2 -33 -3 -69 t-1 -67v-180t4 -178q-4 -53 -8.5 -100t-8.5 -141.5t-10 -190.5t-14 -188q-2 -14 -16.5 -45t-18.5 -50q-6 6 -10 11.5t-10 11.5q-4 -16 -19 -17q-12 0 -35.5 17.5t-36.5 32.5q-4 14 -17 29.5t-13 25.5t7 34.5t7 37.5q4 23 6 90t12 84q-18 4 -16 76.5t2 95.5q8 0 8 14 q-4 6 -6 8t-12 2t-8 -2t2 -8q-4 6 -14.5 3t-20.5 -3q-14 0 -36.5 11.5t-47.5 26.5t-44.5 27.5t-21.5 18.5q-14 12 -26.5 35.5t-20.5 40.5q-6 16 -11 37.5t-9 42t-7 37t-3 22.5zM567 741q0 6 1 25.5t2 78t3 87.5t5 53q6 80 36 166q4 14 27 26.5t21 28.5h28l12 -10q4 16 25 16 q14 0 23 -8q10 -23 20 -55.5t10 -44.5q0 -4 -4 -25.5t-9 -46t-7 -45t-2 -26.5v-297q0 -4 -2 -40t-3 -86.5t-4.5 -104.5t-3.5 -95q-2 -29 -1 -92.5t6 -93.5q2 -23 2 -51.5t2 -59.5q-8 0 -9 -10q-2 -29 -10 -61.5t-16 -61.5h-6q-6 0 -6 4q-43 -6 -47.5 1t-10.5 7q-10 0 -10 -6 t-6 -6q-6 8 -15.5 22.5t-21.5 20.5q-4 51 -10 104.5t0 100.5q-6 125 -2 186t4 125q0 4 -2 4q-6 0 -6 2q0 53 -1 112.5t-4 112.5q0 10 -4 22.5t-4 20.5z" />
<glyph unicode="&#xb7;" horiz-adv-x="311" d="M45 618q0 20 8 37q12 14 34 40t32 26t6 -3t8 -3q8 0 21.5 18.5t29.5 26.5q-4 -16 16.5 -30.5t35.5 -8.5q0 -14 -7 -19q14 -14 26.5 -29.5t12.5 -25.5q0 -12 -3 -20.5t-5 -16.5q-16 -14 -30.5 -35.5t-34.5 -35.5q-14 -8 -37 -13.5t-33 -5.5q-49 0 -64.5 34t-15.5 64z" />
<glyph unicode="&#xb8;" horiz-adv-x="399" d="M51 -166q0 10 5 21.5t10 23.5q8 4 19 14.5t19 18.5q2 2 2 10t7 17q10 0 16 4q14 16 26.5 32.5t43.5 30.5q-6 -23 -7.5 -53.5t-7.5 -61.5l11 13q0 -14 -9 -23q0 -6 6.5 -11t14.5 -5q10 0 15 3t18 3l6 -8q16 -4 36.5 -7t36.5 -16q31 -20 30 -48t9 -50q9 -9 9 -27 q0 -20 -28 -41.5t-60.5 -42t-63.5 -35t-37 -14.5q-8 0 -7 6t-11 6t-17.5 -3t-7.5 -3v6q0 4 2 9q-14 12 -27.5 31.5t-13.5 31.5t12.5 23.5t30 19.5t36 16.5t28.5 22.5q-8 16 -19.5 18.5t-29 2.5t-41 4t-56.5 22q4 16 -1 24.5t-5 14.5z" />
<glyph unicode="&#xb9;" horiz-adv-x="282" d="M12 1061q0 61 18.5 124.5t43 124t48 118t38.5 100.5q-4 6 -2 15t-2 22q8 0 17 4t20 4q8 0 8 -6t10 -6q8 0 7 2t3 2q8 -25 19 -25q10 0 10 6q0 -6 -2 -14t-2 -16t9 -19.5t9 -19.5t-6 -42t-14 -59q-6 -14 -14.5 -38.5t1.5 -32.5q-18 -2 -22 -29t-8 -37l-8 -8 q-6 -27 -18.5 -55.5t-18.5 -59.5q-6 -12 -9.5 -26.5t-5.5 -28.5q-4 -18 -7 -48t-15 -46q-8 -4 -18.5 -9.5t-18.5 -5.5t-15.5 7.5t-13.5 16.5t-15 14t-20 1q0 10 -3 36t-3 34zM172 1573v18l21 -8q-4 0 -12.5 -2t-8.5 -8z" />
<glyph unicode="&#xba;" horiz-adv-x="393" d="M23 1251q0 18 13 52t31.5 69t39 63.5t36.5 37.5q12 6 22.5 21t22.5 15q10 0 10.5 -5t6.5 -11q14 14 8 23q8 -6 20.5 -3t24.5 -2q2 -2 19.5 -11t39 -24.5t38 -34t16.5 -36.5q0 -29 -24.5 -65.5t-43.5 -61.5v-4q0 -4 4 -8q-14 -25 -31.5 -43.5t-37.5 -36.5q-6 -6 8 -17 q-14 -8 -26.5 -12t-22.5 -10q0 -14 10 -14l16 6q-4 -6 -7 -8.5t-13 -2.5q-12 0 -21.5 8.5t-21.5 8.5h-25q0 -8 3 -8h9q-14 -6 -36.5 5t-42 30.5t-32.5 41t-13 37.5zM121 1266q0 -18 18 -31q18 4 46 19.5t54.5 34t45 40t24.5 37.5v16q-23 14 -44 20.5t-44 12.5 q-39 -23 -69.5 -71t-30.5 -78z" />
<glyph unicode="&#xbb;" horiz-adv-x="907" d="M100 250v39q0 8 28 39.5t62.5 73.5t63.5 87.5t29 81.5q0 12 -23.5 42t-49.5 63t-49.5 64.5t-23.5 52.5q0 8 5 21t12 20q16 16 34 16q0 -18 9 -31v6q0 6 10 6t9 5.5t-1 11.5q10 -14 30.5 -26.5t37.5 -18.5q39 -49 68.5 -83t50 -61.5t29.5 -57.5t9 -75q0 -27 -2 -39 q-6 -18 -17 -41.5t-24 -44.5q-6 -2 -11 -1t-11 -3q-14 -23 -33.5 -52.5t-38.5 -49.5q-20 -27 -48 -55.5t-48 -59.5q-10 8 -11 19.5t-8 19.5l-20 -22q2 4 2 6q0 6 -8 6q-10 0 -12.5 -4t-8.5 -4q0 4 -5 17t-15 18v14q-6 6 -13.5 6t-7.5 -6zM350 154q0 25 39 85t85 123.5 t85 113.5t39 56l-28 40q-27 40 -59 89.5t-59.5 94.5t-27.5 55q0 8 8 20.5t17 18.5q8 0 14 4t16 4q12 0 9 -3t8 -3q12 0 12 3v5q12 -8 33.5 -14t33.5 -21q10 0 11.5 -7t3.5 -13q8 -12 14 -26.5t14 -24.5q10 -20 38 -56t56.5 -76t50 -79t21.5 -64q0 -8 -6 -32.5t-18 -38.5 q-74 -78 -146.5 -166t-109.5 -168q-12 0 -19 -6v6q0 2 7 8l-9 8q-18 -8 -28 -45q-6 6 -6 9t-5 7q-6 0 -10 -5t-4 -11q-14 8 -25.5 19.5t-15.5 25.5q-12 0 -22 10q-8 12 -12.5 25.5t-4.5 28.5z" />
<glyph unicode="&#xbc;" horiz-adv-x="880" d="M25 539q4 18 7 44.5t3 32.5q0 18 4 35q6 20 13 46t11 51q2 10 11.5 26.5t9.5 22.5v18t-10 8t-9 -2t-4 -2q10 27 18.5 58.5t15.5 62.5t21.5 56.5t33.5 45.5q6 -6 12 -7t12 -5l8 6h29q6 -8 4 -28.5t-2 -36.5q0 -8 5 -17.5t5 -19.5q0 -25 -9 -72t-20.5 -92t-23.5 -82 t-14 -37q-10 -12 -21.5 -29.5t-15.5 -31.5q-8 -14 -9 -31.5t-12 -40.5q-2 6 -5 10t-5 2q-6 0 -12 -7t-19 -9v23q-18 8 -32 2zM84 111q0 16 6 49t12.5 63.5t13.5 53t7 30.5q4 4 12 18.5t12 26.5q4 8 8.5 28.5t12.5 33.5q33 66 63.5 139.5t71.5 138.5q6 10 10 25.5t9 23.5 q6 8 16 18.5t14 18.5q4 12 10.5 36t10.5 44q6 10 14 23.5t14 29.5q2 10 4.5 21.5t10.5 17.5q6 8 15 14.5t22 18.5q6 -8 11 -12t11 -13q6 4 16.5 8.5t22.5 4.5q2 -8 2 -21.5v-19.5q0 -8 -4 -20.5t-4 -24.5t3 -23.5t-3 -23.5q-4 -35 -21.5 -75t-35 -82t-37 -84t-31.5 -79 q-18 -47 -48 -98t-54 -109q-12 -25 -25.5 -58.5t-26 -73.5t-20.5 -80t-8 -72q-4 6 -13 6q-12 -10 0 -19q-4 0 -9 -6t-9 -12q-14 6 -34.5 9t-37.5 9q-2 25 -8 55.5t-6 41.5zM414 334q0 20 10 48t22.5 56.5t21.5 49t9 26.5q0 4 7.5 8t11.5 8v15q4 6 12 7t16 1t10.5 5t6.5 5 q8 -8 10 -13t4 -11q8 6 8 18q4 0 10.5 -2t14.5 -2q12 0 12 4q-12 -39 -12 -76t-8 -78q-2 -10 -10.5 -30.5t-14.5 -44.5q6 -6 6 -5t8 1q12 0 22.5 3t14.5 25q12 39 26.5 79t20.5 83q6 4 12.5 14.5t10.5 22.5q-4 6 0 14q4 10 16 10q10 0 21 -18q8 8 8 18l31 -18q-2 0 0 -4 t-11 -12l4 -2q2 -2 2.5 -4.5t2.5 -4.5q-2 -39 -2 -86t-7 -92q18 -8 34 -9t34 -7q0 -18 17.5 -38t33.5 -32q-4 0 -8 3t-14 3q-2 0 -15.5 -9t-13.5 -21q-25 4 -47.5 6t-28.5 2q-10 0 -16 -15.5t-11.5 -38t-9.5 -43t-8 -32.5q12 -8 8 -28.5t-4 -33.5q-4 0 -10 -10t-14 -22 q-4 0 -11.5 5t-9.5 9q-6 -4 -6 -21q-4 4 -5 10.5t-11 6.5t-6 -2t-7 -2q-10 0 -10 4t-2 4q-12 20 -22.5 38.5t-16.5 41.5q2 18 2 34.5t4 37.5q-4 2 -8 9t-10 7q-10 0 -17.5 -2t-15.5 -2t-28.5 4t-32.5 16q-10 4 -18.5 17.5t-14.5 23.5q-2 16 -5 37t-3 31z" />
<glyph unicode="&#xbd;" horiz-adv-x="671" d="M23 711q0 6 3 33.5t7 43.5q2 39 10 85.5t20 84.5q6 20 15.5 47t21.5 52q8 10 26.5 27.5t31.5 29.5q0 -35 1 -72.5t1 -74.5q8 4 10 4t2 4q-4 -14 -1 -38.5t1 -51.5q0 -12 -11 -44t-18 -63q-6 -25 -12 -65.5t-16 -73.5q-4 -4 -10.5 -14.5t-6.5 -14.5q-4 0 -12 6q-4 0 -8 -1 t-12 -1l-9 -12q-18 16 -26 50t-8 59zM39 152q0 6 9 30.5t19.5 58t21.5 67.5t22 57q27 82 56.5 161.5t65.5 153.5q12 23 33 52.5t31 62.5q14 31 34.5 78t39.5 85q2 2 5 1t5 4q4 43 24.5 75.5t34.5 65.5q12 2 26.5 12t33.5 23v-60q4 -18 -9.5 -31.5t-9.5 -48.5q10 0 11 11 l8 -17q-12 -6 -8 -19t0 -26q-2 -2 -5.5 -2t-5.5 -4q-16 -61 -39.5 -126.5t-40.5 -115.5q-16 -33 -44.5 -89t-51.5 -105q-6 -18 0 -29q-20 -27 -35.5 -63.5t-30 -76.5t-27.5 -77t-30 -61q-6 -10 -14 -29.5t-10 -38.5q-6 -18 -8.5 -41.5t-12.5 -40.5q-4 -14 -14 -19t-4 -26 h-22.5t-8.5 -16l-10 10q-4 4 -12.5 11t-18.5 11q2 27 2 59t2 58q2 0 -5 4t-7 11zM147 946h11v15h-11v-15zM340 90q0 20 25.5 61.5t52 80t46 69.5t11.5 31q4 4 9 7t5 9v53q-6 2 -20 2q-10 0 -18.5 -5t-24.5 -17q-12 -8 -23.5 -16.5t-29.5 -10.5q6 2 6 8.5v8.5q-6 6 -10 8 t-13 4v27q4 0 10.5 -1t16.5 -1q-12 8 -12 20q0 14 17.5 40t31.5 26q10 0 12 -5.5t8 -7.5q6 2 31 12.5t43 10.5q10 0 16.5 -2t12.5 -2q0 -4 -11 -13q6 -6 14.5 -2t18.5 2q8 -6 13 -10q4 -18 8 -38.5t4 -30.5q0 -18 -16.5 -55.5t-20.5 -53.5q-2 -4 -8 -11t-8 -14 q-8 -6 -10.5 -21t-8.5 -24q-14 -20 -28.5 -39.5t-30.5 -39.5l8 -7q23 2 53.5 4.5t36.5 2.5q10 0 27.5 -6.5t29.5 -6.5q4 -2 13.5 -7t13.5 -11q2 -6 2 -17.5t6 -15.5q-6 -4 -12 -3t-12 -5q0 -12 -3.5 -10t-15.5 -11q6 -6 8 -3t9 3v-28q-25 -4 -54.5 -10.5t-57.5 -10.5 t-48.5 -8t-24.5 -4q-8 0 -14 4t-14 4q-16 0 -25 -14q-14 23 -33 30q0 18 -6 41t-6 29zM465 981h4l8 12h-8z" />
<glyph unicode="&#xbe;" horiz-adv-x="1024" d="M29 852v22q0 6 12 20.5t32.5 32t40 31t31.5 15.5q14 6 37 12t43 10q6 -8 6 -18t5 -14q6 -4 15 -6.5t15 -6.5q4 -6 11.5 -16.5t7.5 -20.5q0 -6 -11.5 -37.5t-19.5 -56.5q-8 -12 -24.5 -32.5t-34.5 -28.5q16 -29 43 -41l10 -12h-7t-3 -9q0 -10 14 -39.5t27 -50.5h-7 q-2 0 -2 -2q8 -29 2 -57.5t-26 -71.5q-10 -20 -38 -39.5t-52 -19.5q-10 0 -7 -3t-4 -3q-8 0 -27.5 4t-29.5 6q-6 6 -15.5 13t-11.5 11h25q-14 10 -23.5 29l-17.5 35q18 10 8 22q6 0 9.5 3.5t3.5 7.5v12h28q6 0 9 4l6 8q6 -8 6 -16q18 4 25 -6.5t16 -18.5q20 29 20 41.5v26.5 v26.5t-4 14.5t-15.5 12t-29.5 27q-8 -10 -4 -17q-12 12 -20.5 21.5t-20.5 13.5q0 8 -2 15.5t2 15.5q-16 18 -16 39q0 4 9 14t21.5 23.5t24.5 25t18 23.5q-25 4 -39 -5.5t-18 -9.5q-20 0 -18 9.5t-5 21.5v-2q-6 -2 -6 -8h-24zM139 860q6 -2 8.5 -1t8.5 1h-17zM223 111 q0 86 31 167.5t63 174.5q4 10 11.5 20t13.5 23q49 119 101.5 236.5t99.5 234.5q2 4 8 4t12 2q16 27 35.5 60.5t60.5 37.5q0 -2 -4 -7t-4 -11q4 -4 6 -7.5t5 -3.5q2 -6 -0.5 -12t2.5 -18q8 6 14 14t18 16q-6 -12 -12 -30.5t-10 -32.5q6 -12 3 -29.5t-12.5 -41t-17.5 -47 t-8 -42.5q2 -16 -10.5 -35.5t-18.5 -38.5q-12 -33 -26.5 -67.5t-26.5 -71.5q-29 -70 -54.5 -129t-49 -114.5t-46 -105.5t-38.5 -105q-2 -12 -17 -29q-4 -12 4 -33q-8 -16 -16 -40.5t-21 -49.5q-2 0 -6 5t-10 11q-6 -2 -6 -5t-4 -9l-10 12q-10 -12 -11 -18q-6 20 -18 42.5 t-23 35.5q-6 2 -7 14t-1 23zM524 307q0 8 10.5 37t18.5 49q25 8 31 37t10 41q4 -4 18 8q4 12 11.5 28.5t19.5 33.5q6 4 15.5 8t17.5 6q4 6 4 12q8 6 16.5 10.5t16.5 14.5q16 -4 14 -15.5t2 -19.5l9 -3t7 -5q2 0 4.5 -4t2.5 -17q0 -8 -5.5 -17t-5.5 -15q6 -16 -5 -39t-19 -39 q-18 -41 -43 -96q10 0 20.5 -1.5t22.5 -5.5q6 4 6 6.5t4 6.5q10 4 17.5 14t13.5 14v2l-4 2q23 16 27.5 50t17.5 61q29 20 40 44t42 24l-11 -13q10 -8 11 -30q8 -8 8 -9q8 4 4 9.5t4 11.5q4 -12 1 -32.5t-3 -35.5q2 -6 4 -4t8 2q-6 -20 -6 -43.5t-4 -46.5q4 -2 4 -4t6 -4 q25 2 46.5 -9.5t50.5 -27.5q0 -4 -2.5 -11t-2.5 -13q-6 0 -11 4t-13 10q-2 -6 -9.5 -10t-11.5 -9v-2q0 -2 4 -6q-4 -6 -13 -12t-19 -6q-8 0 -5 4t-8 4q-6 0 -15 -7t-28 -20q0 -6 1 -11t10 -9q-12 0 -19 -16q-12 -35 -25.5 -89.5t-13.5 -101.5q0 -6 5.5 -33.5t9.5 -46.5l-2 2 q-2 0 -3.5 2t-5.5 2q-4 -14 -8 -28.5t-4 -30.5l-24 25q-8 -8 -9 -17q-6 4 -11 8t-11 15q-6 -6 -7 -10.5t-5 -4.5q0 8 -3 15l-10 10t-8 12q-12 25 -21.5 51.5t-9.5 51.5q-6 33 -1 69.5t10 75.5q-4 4 -2 5t-7 1q-6 0 -18 -1t-23 -1h-35t-34 23q-4 4 -4 10t-2 14 q-4 2 -13.5 9.5t-13.5 17.5q-2 6 -2 9v9q-6 4 -9 5t-5 3q-12 16 -13 33z" />
<glyph unicode="&#xbf;" horiz-adv-x="831" d="M12 211q0 63 51.5 126.5t117 122t132 105.5t97.5 78q12 10 21 30.5t9 33.5q0 16 -15 27t-34.5 15.5t-36.5 5.5l-16 1q-2 10 -4 24.5t-6 28.5q12 0 30.5 1t28.5 7q12 4 17.5 15.5t11.5 25.5q6 6 4 6t10 0q10 0 28.5 -7t35.5 -9q4 -6 11 -13.5t15 -9.5l23 -20q14 0 22 -12 q10 -39 21.5 -58.5t11.5 -64.5q0 -23 -11.5 -42.5t-13.5 -31.5q-6 -47 -30.5 -85t-62.5 -70.5t-81 -64.5t-84 -69q-31 -27 -70.5 -61.5t-64.5 -65.5q10 -10 36 -18t55.5 -15.5t63.5 -10.5t64 -3q10 0 11.5 3t7.5 3q-6 -6 -10.5 -6t-8.5 -4q8 -6 17.5 -13t21.5 -7h33 q8 0 21.5 12t27.5 18q16 6 41 6q12 0 13 -3t12 -3q12 0 33.5 12.5t43 29t37.5 28.5l17 12q10 0 5 -2t5 -2q8 0 12 9.5t11 17.5q0 -8 10 -28.5t18 -20.5q21 -1 33 -7q-12 -39 -42 -67.5t-68.5 -49t-78.5 -34.5t-73 -19l-23 -12q-25 -2 -60.5 -6t-69.5 -7t-58.5 -4t-30.5 -1 q-8 0 -48 9t-64 15q-39 8 -73 28.5t-58.5 49.5t-38 61.5t-13.5 59.5zM360 1229q0 10 5.5 36.5t5.5 49.5q14 12 34.5 23.5t32.5 11.5q8 0 34 -16.5t38 -35.5q10 -23 20.5 -58.5t10.5 -47.5q0 -16 -7.5 -25.5t-14.5 -15.5t-11 -12t-2 -25q-8 0 -21.5 -5t-21.5 -5 q-12 0 -18.5 5t-18.5 5q-10 0 -20.5 10.5t-18.5 16.5q6 4 4 12q-4 12 -12 19.5t-12 19.5q-4 6 -2 15.5t2 15.5z" />
<glyph unicode="&#xc0;" horiz-adv-x="968" d="M2 496q0 8 11.5 18t15.5 16q10 -10 22 -10q10 0 41 9.5t51 19.5q29 2 51.5 4t51.5 12q66 139 129 290t129 278q27 59 94 184q16 27 44 60.5t50 74.5q8 12 10.5 33.5t2.5 38.5l2 2q6 6 10 6q10 0 17 -3t18 -3q6 0 11 -2t11 2q2 -4 5 -10.5t14 -6.5q10 0 5 2t5 2 q8 0 26.5 -18t22.5 -37q8 -18 10 -41.5t4 -46t2 -40v-23.5t-3 -28t-5 -36q-4 -16 0 -33.5t2 -38.5q-10 -86 -20.5 -172t-14.5 -172q-2 -16 -6 -44.5t-9 -61.5t-9 -65.5t-8 -63.5q6 -4 22 -4q43 -6 84 -8t84 -2q0 -4 2 -9.5t8 -5.5l-10 -12q2 -10 10.5 -18.5t18.5 -14.5 q-31 -12 -79 -26.5t-91 -26.5q-6 -2 -19.5 -4t-29.5 -4q-6 -12 -10.5 -29.5t-8.5 -32.5q-6 -10 -3 -19t7 -22q-4 -6 -7 -6t-5 -4q-4 -49 -2 -111.5t-10 -117.5q-6 -31 -5 -55.5t2 -48t-3.5 -49t-20.5 -58.5q-4 -10 -6 -24.5t-2 -24.5q-4 0 -6 -3.5t-8 -3.5q-14 -4 -19 -16 q-8 8 -26.5 14.5t-32.5 14.5q-20 29 -26.5 55.5t-6.5 55t3 58t3 58.5q-4 18 -1 37.5t3 38.5l4 266h-76q-12 0 -44.5 -8t-67.5 -18.5t-64.5 -18.5t-33.5 -12q-23 -43 -43.5 -93.5t-53.5 -105.5l-13 -13t-13 -22q-12 -25 -21.5 -50.5t-15.5 -51.5q-6 0 -6 5t-4 9 q-10 -12 -11 -31q-4 0 -7 -2t-7 5l-10 -11q-4 8 -16.5 11.5t-22.5 11.5q-12 6 -17.5 23.5t-5.5 27.5q0 14 13.5 57t31.5 88q18 51 47 113q-23 16 -51 32.5t-47 31.5q-4 6 -11 19t-15.5 26.5t-14.5 26t-6 16.5zM430 586q39 0 79 -8.5t101 4.5l35 452q-66 -102 -116 -225 t-99 -223zM695 1866q0 10 8 22.5t2 24.5q12 0 16 4q-4 8 -11 11.5t-15 9.5v24q23 6 27.5 2t13.5 -4q8 0 16 5.5t16 11.5q4 -6 14.5 -14.5t22.5 -8.5q8 0 16.5 5t16.5 5q6 -4 4 -8t-2 -10q8 -6 22.5 -18.5t24.5 -26.5q29 -31 68 -73t63 -87q4 -6 3 -16t-1 -21q0 -4 11.5 -10 t13.5 -14q4 -8 6 -16.5t2 -18.5q0 -12 -10 -26.5t-10 -28.5h-22.5t-22.5 -4q-16 -4 -7 -11q-14 2 -34.5 11.5t-34.5 21.5q-41 41 -96.5 101.5t-110.5 115.5q-2 4 -6 16.5t-4 24.5z" />
<glyph unicode="&#xc1;" horiz-adv-x="946" d="M2 496q0 8 11.5 18t15.5 16q10 -10 22 -10q10 0 41 9.5t51 19.5q29 2 51.5 4t51.5 12q66 139 129 290t129 278q27 59 94 184q16 27 44 60.5t50 74.5q8 12 10.5 33.5t2.5 38.5l2 2q6 6 10 6q10 0 17 -3t18 -3q6 0 11 -2t11 2q2 -4 5 -10.5t14 -6.5q10 0 5 2t5 2 q8 0 26.5 -18t22.5 -37q8 -18 10 -41.5t4 -46t2 -40v-23.5t-3 -28t-5 -36q-4 -16 0 -33.5t2 -38.5q-10 -86 -20.5 -172t-14.5 -172q-2 -16 -6 -44.5t-9 -61.5t-9 -65.5t-8 -63.5q6 -4 22 -4q43 -6 84 -8t84 -2q0 -4 2 -9.5t8 -5.5l-10 -12q2 -10 10.5 -18.5t18.5 -14.5 q-31 -12 -79 -26.5t-91 -26.5q-6 -2 -19.5 -4t-29.5 -4q-6 -12 -10.5 -29.5t-8.5 -32.5q-6 -10 -3 -19t7 -22q-4 -6 -7 -6t-5 -4q-4 -49 -2 -111.5t-10 -117.5q-6 -31 -5 -55.5t2 -48t-3.5 -49t-20.5 -58.5q-4 -10 -6 -24.5t-2 -24.5q-4 0 -6 -3.5t-8 -3.5q-14 -4 -19 -16 q-8 8 -26.5 14.5t-32.5 14.5q-20 29 -26.5 55.5t-6.5 55t3 58t3 58.5q-4 18 -1 37.5t3 38.5l4 266h-76q-12 0 -44.5 -8t-67.5 -18.5t-64.5 -18.5t-33.5 -12q-23 -43 -43.5 -93.5t-53.5 -105.5l-13 -13t-13 -22q-12 -25 -21.5 -50.5t-15.5 -51.5q-6 0 -6 5t-4 9 q-10 -12 -11 -31q-4 0 -7 -2t-7 5l-10 -11q-4 8 -16.5 11.5t-22.5 11.5q-12 6 -17.5 23.5t-5.5 27.5q0 14 13.5 57t31.5 88q18 51 47 113q-23 16 -51 32.5t-47 31.5q-4 6 -11 19t-15.5 26.5t-14.5 26t-6 16.5zM430 586q39 0 79 -8.5t101 4.5l35 452q-66 -102 -116 -225 t-99 -223zM804 1616q0 29 15.5 40t3.5 36l6 12q0 -6 -1 -9t3 -7q6 4 6 11t6 13q74 66 155 115t120 76l22 -7l-8 13h6q4 0 8 2l-7 -7t9 -1t47 20.5t66 28.5q6 -8 10 -17.5t4 -21.5q0 -20 -18 -41q12 -18 -6 -39q-25 -23 -67 -55.5t-85 -63.5q-23 -16 -35 -29.5t-43 -37.5 q-8 -4 -16 -12.5t-28.5 -29t-41 -37t-30.5 -16.5q-14 0 -45 10.5t-45 16.5q0 8 -5.5 18.5t-5.5 18.5z" />
<glyph unicode="&#xc2;" horiz-adv-x="929" d="M2 496q0 8 11.5 18t15.5 16q10 -10 22 -10q10 0 41 9.5t51 19.5q29 2 51.5 4t51.5 12q66 139 129 290t129 278q27 59 94 184q16 27 44 60.5t50 74.5q8 12 10.5 33.5t2.5 38.5l2 2q6 6 10 6q10 0 17 -3t18 -3q6 0 11 -2t11 2q2 -4 5 -10.5t14 -6.5q10 0 5 2t5 2 q8 0 26.5 -18t22.5 -37q8 -18 10 -41.5t4 -46t2 -40v-23.5t-3 -28t-5 -36q-4 -16 0 -33.5t2 -38.5q-10 -86 -20.5 -172t-14.5 -172q-2 -16 -6 -44.5t-9 -61.5t-9 -65.5t-8 -63.5q6 -4 22 -4q43 -6 84 -8t84 -2q0 -4 2 -9.5t8 -5.5l-10 -12q2 -10 10.5 -18.5t18.5 -14.5 q-31 -12 -79 -26.5t-91 -26.5q-6 -2 -19.5 -4t-29.5 -4q-6 -12 -10.5 -29.5t-8.5 -32.5q-6 -10 -3 -19t7 -22q-4 -6 -7 -6t-5 -4q-4 -49 -2 -111.5t-10 -117.5q-6 -31 -5 -55.5t2 -48t-3.5 -49t-20.5 -58.5q-4 -10 -6 -24.5t-2 -24.5q-4 0 -6 -3.5t-8 -3.5q-14 -4 -19 -16 q-8 8 -26.5 14.5t-32.5 14.5q-20 29 -26.5 55.5t-6.5 55t3 58t3 58.5q-4 18 -1 37.5t3 38.5l4 266h-76q-12 0 -44.5 -8t-67.5 -18.5t-64.5 -18.5t-33.5 -12q-23 -43 -43.5 -93.5t-53.5 -105.5l-13 -13t-13 -22q-12 -25 -21.5 -50.5t-15.5 -51.5q-6 0 -6 5t-4 9 q-10 -12 -11 -31q-4 0 -7 -2t-7 5l-10 -11q-4 8 -16.5 11.5t-22.5 11.5q-12 6 -17.5 23.5t-5.5 27.5q0 14 13.5 57t31.5 88q18 51 47 113q-23 16 -51 32.5t-47 31.5q-4 6 -11 19t-15.5 26.5t-14.5 26t-6 16.5zM430 586q39 0 79 -8.5t101 4.5l35 452q-66 -102 -116 -225 t-99 -223zM579 1612q6 14 10 28.5t13 26.5q10 14 25.5 27.5t31.5 27.5q27 29 46.5 54.5t33.5 48.5q25 27 53.5 52.5t54.5 45.5q29 -20 52 -57l8 8q12 -27 29.5 -64t32 -71.5t24.5 -59t10 -28.5q0 -6 -10 -10.5t4 -32.5q-14 -4 -38 -12.5t-34 -8.5q-6 0 -17 12.5t-18 18.5 q-12 18 -24 39.5t-33 40.5q-27 -23 -73 -56.5t-79 -52.5q-4 4 -8 5t-4 12q-10 -4 -23.5 -13.5t-25.5 -13.5q8 4 14.5 15.5t8.5 21.5l-2 2q-4 2 -5.5 -3t-11.5 -5t-6 3t-2 7l-12 -14q-4 0 -11 2q-8 0 -14 4z" />
<glyph unicode="&#xc3;" horiz-adv-x="940" d="M2 496q0 8 11.5 18t15.5 16q10 -10 22 -10q10 0 41 9.5t51 19.5q29 2 51.5 4t51.5 12q66 139 129 290t129 278q27 59 94 184q16 27 44 60.5t50 74.5q8 12 10.5 33.5t2.5 38.5l2 2q6 6 10 6q10 0 17 -3t18 -3q6 0 11 -2t11 2q2 -4 5 -10.5t14 -6.5q10 0 5 2t5 2 q8 0 26.5 -18t22.5 -37q8 -18 10 -41.5t4 -46t2 -40v-23.5t-3 -28t-5 -36q-4 -16 0 -33.5t2 -38.5q-10 -86 -20.5 -172t-14.5 -172q-2 -16 -6 -44.5t-9 -61.5t-9 -65.5t-8 -63.5q6 -4 22 -4q43 -6 84 -8t84 -2q0 -4 2 -9.5t8 -5.5l-10 -12q2 -10 10.5 -18.5t18.5 -14.5 q-31 -12 -79 -26.5t-91 -26.5q-6 -2 -19.5 -4t-29.5 -4q-6 -12 -10.5 -29.5t-8.5 -32.5q-6 -10 -3 -19t7 -22q-4 -6 -7 -6t-5 -4q-4 -49 -2 -111.5t-10 -117.5q-6 -31 -5 -55.5t2 -48t-3.5 -49t-20.5 -58.5q-4 -10 -6 -24.5t-2 -24.5q-4 0 -6 -3.5t-8 -3.5q-14 -4 -19 -16 q-8 8 -26.5 14.5t-32.5 14.5q-20 29 -26.5 55.5t-6.5 55t3 58t3 58.5q-4 18 -1 37.5t3 38.5l4 266h-76q-12 0 -44.5 -8t-67.5 -18.5t-64.5 -18.5t-33.5 -12q-23 -43 -43.5 -93.5t-53.5 -105.5l-13 -13t-13 -22q-12 -25 -21.5 -50.5t-15.5 -51.5q-6 0 -6 5t-4 9 q-10 -12 -11 -31q-4 0 -7 -2t-7 5l-10 -11q-4 8 -16.5 11.5t-22.5 11.5q-12 6 -17.5 23.5t-5.5 27.5q0 14 13.5 57t31.5 88q18 51 47 113q-23 16 -51 32.5t-47 31.5q-4 6 -11 19t-15.5 26.5t-14.5 26t-6 16.5zM430 586q39 0 79 -8.5t101 4.5l35 452q-66 -102 -116 -225 t-99 -223zM572 1712q45 39 92 81t102 42q10 0 28.5 -10t35.5 -16q-6 6 -12 0q6 -4 5 -6t9 -2q12 0 8 3t6 3q8 0 24.5 -31t39.5 -43q61 -45 133 -45q10 0 52 8t73 16q4 -14 0 -18q0 -4 2 -4q0 -2 1 -2t1 -2q8 -6 10 -11.5t2 -11.5q0 -5 10 -28q-14 -12 -25 -26.5t-24 -29.5 q0 -4 5 -7t12 -3q-16 -8 -55.5 -22.5t-61.5 -14.5q-70 0 -144.5 49.5t-132.5 120.5q-6 8 -19 6t-24 -2q-14 0 -49 -20.5t-41 -30.5q-4 4 -4 10t-12 6q-8 0 -20.5 -8t-18.5 -8q0 10 8 19q-4 8 -10 19t-6 19z" />
<glyph unicode="&#xc4;" horiz-adv-x="944" d="M2 496q0 8 11.5 18t15.5 16q10 -10 22 -10q10 0 41 9.5t51 19.5q29 2 51.5 4t51.5 12q66 139 129 290t129 278q27 59 94 184q16 27 44 60.5t50 74.5q8 12 10.5 33.5t2.5 38.5l2 2q6 6 10 6q10 0 17 -3t18 -3q6 0 11 -2t11 2q2 -4 5 -10.5t14 -6.5q10 0 5 2t5 2 q8 0 26.5 -18t22.5 -37q8 -18 10 -41.5t4 -46t2 -40v-23.5t-3 -28t-5 -36q-4 -16 0 -33.5t2 -38.5q-10 -86 -20.5 -172t-14.5 -172q-2 -16 -6 -44.5t-9 -61.5t-9 -65.5t-8 -63.5q6 -4 22 -4q43 -6 84 -8t84 -2q0 -4 2 -9.5t8 -5.5l-10 -12q2 -10 10.5 -18.5t18.5 -14.5 q-31 -12 -79 -26.5t-91 -26.5q-6 -2 -19.5 -4t-29.5 -4q-6 -12 -10.5 -29.5t-8.5 -32.5q-6 -10 -3 -19t7 -22q-4 -6 -7 -6t-5 -4q-4 -49 -2 -111.5t-10 -117.5q-6 -31 -5 -55.5t2 -48t-3.5 -49t-20.5 -58.5q-4 -10 -6 -24.5t-2 -24.5q-4 0 -6 -3.5t-8 -3.5q-14 -4 -19 -16 q-8 8 -26.5 14.5t-32.5 14.5q-20 29 -26.5 55.5t-6.5 55t3 58t3 58.5q-4 18 -1 37.5t3 38.5l4 266h-76q-12 0 -44.5 -8t-67.5 -18.5t-64.5 -18.5t-33.5 -12q-23 -43 -43.5 -93.5t-53.5 -105.5l-13 -13t-13 -22q-12 -25 -21.5 -50.5t-15.5 -51.5q-6 0 -6 5t-4 9 q-10 -12 -11 -31q-4 0 -7 -2t-7 5l-10 -11q-4 8 -16.5 11.5t-22.5 11.5q-12 6 -17.5 23.5t-5.5 27.5q0 14 13.5 57t31.5 88q18 51 47 113q-23 16 -51 32.5t-47 31.5q-4 6 -11 19t-15.5 26.5t-14.5 26t-6 16.5zM430 586q39 0 79 -8.5t101 4.5l35 452q-66 -102 -116 -225 t-99 -223zM590 1751q0 16 22.5 42t32.5 40q14 -8 35.5 -11t36.5 -3q0 -4 10 -11.5t23 -7.5q0 -2 4 -13t-6 -18q2 -8 12 -13t18 -11q-14 -25 -19 -54.5t-20 -54.5q-10 0 -27.5 -2t-27.5 -2q-8 0 -27.5 9.5t-29.5 11.5q2 14 -5.5 30.5t-13.5 30.5q-10 16 -18 37zM856 1753 q6 4 22.5 11.5t30.5 15.5q2 6 0 11t-2 9q8 2 16.5 7t12.5 12q6 -8 -4 -19q23 -37 63 -45q0 -6 8.5 -13t24.5 -11v-95q-6 -8 -14 -24.5t-19 -16.5h-22q-8 0 -33 10.5t-45 24.5q6 14 1 32.5t-9 31.5q-2 12 -13.5 28.5t-17.5 30.5zM989 1765l8 15l7 -2l-7 -15z" />
<glyph unicode="&#xc5;" horiz-adv-x="929" d="M2 496q0 8 11.5 18t15.5 16q10 -10 22 -10q10 0 41 9.5t51 19.5q29 2 51.5 4t51.5 12q66 139 129 290t129 278q27 59 94 184q16 27 44 60.5t50 74.5q8 12 10.5 33.5t2.5 38.5l2 2q6 6 10 6q10 0 17 -3t18 -3q6 0 11 -2t11 2q2 -4 5 -10.5t14 -6.5q10 0 5 2t5 2 q8 0 26.5 -18t22.5 -37q8 -18 10 -41.5t4 -46t2 -40v-23.5t-3 -28t-5 -36q-4 -16 0 -33.5t2 -38.5q-10 -86 -20.5 -172t-14.5 -172q-2 -16 -6 -44.5t-9 -61.5t-9 -65.5t-8 -63.5q6 -4 22 -4q43 -6 84 -8t84 -2q0 -4 2 -9.5t8 -5.5l-10 -12q2 -10 10.5 -18.5t18.5 -14.5 q-31 -12 -79 -26.5t-91 -26.5q-6 -2 -19.5 -4t-29.5 -4q-6 -12 -10.5 -29.5t-8.5 -32.5q-6 -10 -3 -19t7 -22q-4 -6 -7 -6t-5 -4q-4 -49 -2 -111.5t-10 -117.5q-6 -31 -5 -55.5t2 -48t-3.5 -49t-20.5 -58.5q-4 -10 -6 -24.5t-2 -24.5q-4 0 -6 -3.5t-8 -3.5q-14 -4 -19 -16 q-8 8 -26.5 14.5t-32.5 14.5q-20 29 -26.5 55.5t-6.5 55t3 58t3 58.5q-4 18 -1 37.5t3 38.5l4 266h-76q-12 0 -44.5 -8t-67.5 -18.5t-64.5 -18.5t-33.5 -12q-23 -43 -43.5 -93.5t-53.5 -105.5l-13 -13t-13 -22q-12 -25 -21.5 -50.5t-15.5 -51.5q-6 0 -6 5t-4 9 q-10 -12 -11 -31q-4 0 -7 -2t-7 5l-10 -11q-4 8 -16.5 11.5t-22.5 11.5q-12 6 -17.5 23.5t-5.5 27.5q0 14 13.5 57t31.5 88q18 51 47 113q-23 16 -51 32.5t-47 31.5q-4 6 -11 19t-15.5 26.5t-14.5 26t-6 16.5zM430 586q39 0 79 -8.5t101 4.5l35 452q-66 -102 -116 -225 t-99 -223zM655 1731q0 25 14.5 62.5t36 74.5t45 65.5t43.5 42.5q4 4 20.5 4t30.5 7q16 10 31.5 22t26.5 8q18 4 28.5 -11t22.5 -26q-8 0 -17 -18q0 -2 4.5 -5t10.5 -3q-6 -12 -14.5 -26.5t-8.5 -24.5q0 -6 7.5 -14.5t15.5 -20.5q2 -2 7 -5t11 -12q6 -10 10.5 -28.5 t4.5 -24.5q0 -8 -4.5 -41t-16.5 -55q-4 -18 -21.5 -40t-39 -41.5t-43 -32.5t-39.5 -13q-6 0 -10.5 2t-10.5 6q-4 -4 -4 -14h-22q-8 0 -19.5 8t-24 18.5t-23.5 19.5t-11 15q-6 4 -10.5 12.5t-8.5 16.5q-6 18 -14 41.5t-8 30.5zM796 1735q4 -10 5 -10.5t5 -4.5q12 -4 24.5 2 t14.5 15q6 12 11.5 30.5t5.5 22.5q0 8 -6.5 13t-16.5 9q-16 -16 -29.5 -39.5t-13.5 -37.5z" />
<glyph unicode="&#xc6;" horiz-adv-x="1398" d="M31 571q20 10 20 27q8 0 13.5 -4t15.5 -4q2 0 26.5 2t55.5 9t62.5 17.5t51.5 24.5q2 2 8.5 16.5t14.5 34t15.5 40t15.5 34.5q20 51 50 116.5t58 127.5v12q31 66 56.5 124t54.5 118.5t64.5 126t91.5 147.5q6 12 6 31.5v40.5q14 4 41.5 3t48.5 -18q6 -2 7 -1t3 1 q41 -25 52 -56.5t7 -76.5h29q4 0 19.5 5.5t32 10.5t31.5 10t22 5q10 0 7 -2t7 -2q6 0 33.5 6t61.5 14.5t61.5 14.5t33.5 6l310 20q18 0 66 -6t99.5 -19.5t91.5 -30.5t40 -42v-22q0 -10 -5.5 -7.5t-5.5 -3.5q-74 -23 -154.5 -23.5t-154.5 -15.5q-8 -2 -18.5 -9t-18.5 -7 q-10 0 -10 2t-4 2l-289 -76q-35 -10 -63.5 -14t-53 -10t-48 -16.5t-44.5 -34.5q-10 -12 -7 -40t-3 -49q-20 -90 -23.5 -157.5t-23.5 -143.5q6 -4 23.5 -4h27.5q6 0 8 7.5t8 7.5q10 0 7.5 -2t7.5 -2q4 0 37.5 11t72.5 26.5t73 26.5t38 11q10 0 5 -2t5 -2q8 0 16.5 5.5 t12.5 7.5q43 10 113.5 26.5t140.5 50.5q2 -25 7 -32t5 -13t-4 -13t-7 -13t-3 -11.5t10 -9.5q-8 -6 -18.5 -11t-16.5 -9q-10 -8 -27.5 -12.5t-19.5 -22.5v-4q0 -2 4 -2q-25 -8 -53 -21q4 -6 7 -5t7 1l-411 -198q-29 -6 -55.5 -12.5t-51.5 -10.5q-8 -14 -14 -30.5t-13 -37.5 q-8 -31 -11 -75.5t-7 -83.5t-5 -70t-1 -37l4 -4q-10 -20 -2 -41q2 -16 11 -37.5t20 -40.5q4 -2 3 -3t9 -1t21.5 5t21.5 5q8 0 13 -5t16 -5q10 0 13 2t7 4q29 0 64.5 14.5t60.5 30.5q20 12 46 30t49.5 35t40 28.5t22.5 11.5t9 -4t7 -4q0 -4 -1 -21.5t7 -30.5q0 -8 -4 -21 t-16 -30q-2 -2 -2 -4q0 -4 4 -4q10 0 9 3t3 3q-20 -29 -40.5 -55.5t-35.5 -54.5q-6 -4 -23.5 -11.5t-29.5 -13.5q-25 -16 -36 -17t-25 -10q-8 -4 -13.5 -14t-13.5 -10q-4 0 -21.5 -2t-36 -2t-36 -1t-21.5 -1q-8 0 -25.5 6t-34.5 14t-30.5 15.5t-17.5 11.5q-10 0 -15 -15 q-2 -16 -7 -33.5t-11 -47.5q-2 -4 -6 -9.5t-14 -5.5q-8 0 -4 2t-5 2q-10 0 -8 -5t-4 -9q-4 0 -11 5t-9 7q-20 -2 -40 19.5t-22 34.5q-4 18 -6 43.5t-2 51v45v23.5v365q-16 2 -41 1t-33 -1q-4 0 -27.5 -6t-49 -13.5t-48 -13.5t-26.5 -6q-10 0 -13.5 -5t-13.5 -5t-8 -5t-8 -5 t-5 3t-6 3q-8 0 -18 -22.5t-21.5 -54.5t-25.5 -68t-29 -64q-6 -4 -16 -12.5t-17 -20.5q-14 -23 -20 -51.5t-18 -55.5v3q0 2 -7 8q-6 -8 -8 -16.5t-6 -14.5l-10 10q-6 -6 -4 -8t-8 -2q-8 0 -16.5 3t-12.5 7q-8 4 -19.5 23.5t-11.5 32.5q0 6 9.5 34.5t21.5 69.5t26.5 85 t26.5 75q0 8 -14 8q-8 0 -37 18.5t-49 32.5q-4 16 -18.5 42t-26.5 54zM459 666l6 -7q39 0 88 -2t86 5l25 454q-51 -76 -99.5 -197.5t-105.5 -252.5z" />
<glyph unicode="&#xc7;" horiz-adv-x="761" d="M8 440q0 41 8.5 93.5t20.5 105.5t29.5 107.5t33.5 99.5q6 18 26.5 53t33.5 62q6 12 12 29.5t10 29.5q25 45 63 103.5t82 114.5t87 102t78 63q8 6 19 15t19 9q10 0 16.5 -7t16.5 -7t6 2t6 2q8 0 33 -6t37 -10q12 -2 24.5 -14.5t28.5 -20.5q23 -12 43.5 -24.5t32.5 -36.5 q12 -25 15.5 -58t3.5 -43q0 -27 -8.5 -31t-12.5 -20q-2 -8 -5 -22.5t-7 -26.5q-8 -20 -21 -39l-24 -37q-12 -4 -18.5 -16.5t-14.5 -12.5t-19.5 3.5t-25.5 -3.5q-4 6 -2 9.5t2 9.5q-4 4 -9 3t-12 1q-6 6 -18 19.5t-25 19.5q6 18 16.5 41.5t17.5 45t13.5 38t6.5 20.5v31h-2 l-4 2q-10 0 -30 -17.5t-40.5 -40t-34.5 -42t-14 -21.5q-14 -23 -31.5 -49.5t-30.5 -50.5q-23 -43 -49 -81t-45 -79q-16 -43 -29.5 -90t-33.5 -94q-4 -20 -13.5 -45t-13.5 -47q-12 -55 -25.5 -117t-13.5 -113q0 -8 -4 -16t-4 -19q0 -10 5 -18t5 -16v-25q0 -12 2 -22 q0 -4 7.5 -29t21.5 -54.5t29.5 -53t35.5 -23.5q10 0 11.5 5t1.5 9q4 -4 7 -9t15 -5h37q33 12 74 22.5t76 24.5q23 8 54.5 23.5t59.5 27.5q6 2 12.5 10.5t12.5 12.5q25 16 50.5 27.5t49.5 23.5q23 8 31 31q4 2 22 2q8 0 6.5 -5.5t2.5 -9.5q16 12 54 37t60 27q4 2 6.5 9 t8.5 13q31 18 37 -10l-33 -25l8 -30q-25 -16 -47.5 -36t-36.5 -38q-12 -14 -34.5 -31.5t-39.5 -29.5q-8 -4 -14 -12.5t-12 -20.5q-43 -23 -89.5 -53.5t-89.5 -61.5q0 -4 2.5 -9t-4.5 -5q-4 -4 -5 -7t-11 -3h-10q2 0 -2 6q-6 -6 -7 -10.5t-4 -8.5q-10 -2 -24 -5t-31 -7 q-10 -4 -18 -6q-2 -8 -2 -19q0 -31 -6 -61l10 12q0 -14 -8 -22q0 -6 6 -11.5t14 -5.5q10 0 15.5 3t17.5 3l6 -8q16 -4 36.5 -7t37.5 -15q31 -20 29.5 -48t9.5 -51q8 -8 8 -26q0 -20 -27.5 -42t-60.5 -42.5t-63.5 -34.5t-37.5 -14q-8 0 -7 6t-11 6t-17.5 -3t-7.5 -3v6 q0 4 2 8q-14 12 -27 31.5t-13 32.5q0 12 12 23t29.5 19.5t36 16.5t28.5 23q-8 16 -19.5 18t-29 2t-41 4t-55.5 23q4 16 -1.5 24t-5.5 15q0 10 5.5 21t9.5 24q8 4 19.5 14t19.5 18q2 2 2 10.5t6 16.5q-2 6 -26.5 10t-30.5 4q-10 0 -9.5 -4t-9.5 -4q-18 0 -48 16.5t-59.5 40 t-53 45t-27.5 27.5q-12 18 -28.5 41t-31.5 51q-41 68 -56 121t-28 96q4 12 -1 41t-5 39zM756 217l6 -6l8 14l-8 4zM799 250l6 -4l16 10l-4 6z" />
<glyph unicode="&#xc8;" horiz-adv-x="772" d="M6 317v138q8 10 8 12q10 59 22.5 103t22 77t10.5 57.5t-10 45.5q4 -2 13.5 1t13.5 13q27 74 53.5 153.5t53.5 159.5q4 12 15 32.5t11 31.5q0 10 -16.5 22.5t-28.5 16.5q0 8 -13.5 21t-17.5 30q-6 18 -13 39.5t-13 44.5v14l2 2q4 6 10 6q8 0 4 -3t4 -3q10 0 11.5 4t5.5 6 q39 10 82 22.5t90 22.5q20 29 26 45.5t11.5 24.5t14.5 9t34 1q8 0 13 -4t11 -8q4 -12 17.5 -22.5t27.5 -20.5q6 -2 5 -2t8 0q4 0 19 2t34.5 4t41 6t38.5 4q43 2 99 2t107.5 -1t89.5 -2t44 -1q2 0 20.5 -3t43 -9t50 -12t45.5 -13q18 -6 46 -15t53 -28q16 -12 14 -25.5 t10 -27.5l-25.5 -17t-21.5 -9h-270q-8 0 -17.5 -6.5t-15.5 -6.5q-18 -6 -46 -6t-46 -4q-27 -8 -60.5 -12t-74.5 -10l-10 -11q-35 6 -65 -1t-67 -13v-4q0 -2 -4 -2q-10 0 -29.5 -4t-35.5 -4q-10 -4 -17.5 -9.5t-11.5 -13.5q-18 -41 -30.5 -85t-24.5 -87q-18 -51 -33.5 -101 t-38.5 -102l8 -8q18 10 29 10q10 0 10 -3t4 -7l15 14l6 -4h6t61.5 12.5t120 27t119.5 26.5t61 12q10 0 8.5 -2t4.5 -2l137 31l-10 -8q8 -6 11 -14.5t3 -16.5q0 -10 -6 -14.5t-10 -14.5q-2 -6 3 -9t5 -9q-20 -4 -40 -15.5t-38 -15.5q-2 -6 -10 -13t6 -7q-20 0 -49 -15 q4 -4 9 -3t11 1l-303 -121q-20 0 -53 -13t-57 -23q-25 -8 -60 -11.5t-43 -3.5q-10 0 -5 2t-5 2q-8 0 -15.5 -19.5t-12.5 -46l-10 -53t-7 -40.5q-4 -23 -10 -54.5t-10.5 -62.5t-6.5 -52.5t-2 -27.5q0 -10 2 -12t2 -6q2 -12 1 -24.5t22 -41.5q8 -2 12 -4t14 -2t10.5 5t10.5 5 t16 -8t15 -8q10 0 20 3t21 3q6 0 24.5 7t30.5 11q25 8 52.5 20.5t60.5 28.5q23 12 45 34t45 22q8 0 8 -5.5t6 -5.5q4 -12 -1 -22t13 -25q-6 -6 -12 -21t-18 -28q0 -4 5 -5t11 -1q-10 -6 -32.5 -30.5t-24.5 -30.5q-4 -6 -8.5 -14.5t-16.5 -16.5q-14 -12 -37.5 -23.5 t-46 -21.5t-41 -16.5t-20.5 -6.5h-78q-10 0 -11 2t-8 4q-25 0 -53.5 13.5t-52.5 34.5q-57 39 -89 79.5t-46 81.5q-6 14 -9.5 35t-7.5 41.5t-6 34.5t-2 20zM416 1810q0 10 8 22.5t2 24.5q12 0 16 4q-4 8 -11 11.5t-15 9.5v24q23 6 27.5 2t13.5 -4q8 0 16 5.5t16 11.5 q4 -6 14.5 -14.5t22.5 -8.5q8 0 16.5 5t16.5 5q6 -4 4 -8t-2 -10q8 -6 22.5 -18.5t24.5 -26.5q29 -31 68 -73t63 -87q4 -6 3 -16t-1 -21q0 -4 11.5 -10t13.5 -14q4 -8 6 -16.5t2 -18.5q0 -12 -10 -26.5t-10 -28.5h-22.5t-22.5 -4q-16 -4 -7 -11q-14 2 -34.5 11.5t-34.5 21.5 q-41 41 -96.5 101.5t-110.5 115.5q-2 4 -6 16.5t-4 24.5z" />
<glyph unicode="&#xc9;" horiz-adv-x="772" d="M6 317v138q8 10 8 12q10 59 22.5 103t22 77t10.5 57.5t-10 45.5q4 -2 13.5 1t13.5 13q27 74 53.5 153.5t53.5 159.5q4 12 15 32.5t11 31.5q0 10 -16.5 22.5t-28.5 16.5q0 8 -13.5 21t-17.5 30q-6 18 -13 39.5t-13 44.5v14l2 2q4 6 10 6q8 0 4 -3t4 -3q10 0 11.5 4t5.5 6 q39 10 82 22.5t90 22.5q20 29 26 45.5t11.5 24.5t14.5 9t34 1q8 0 13 -4t11 -8q4 -12 17.5 -22.5t27.5 -20.5q6 -2 5 -2t8 0q4 0 19 2t34.5 4t41 6t38.5 4q43 2 99 2t107.5 -1t89.5 -2t44 -1q2 0 20.5 -3t43 -9t50 -12t45.5 -13q18 -6 46 -15t53 -28q16 -12 14 -25.5 t10 -27.5l-25.5 -17t-21.5 -9h-270q-8 0 -17.5 -6.5t-15.5 -6.5q-18 -6 -46 -6t-46 -4q-27 -8 -60.5 -12t-74.5 -10l-10 -11q-35 6 -65 -1t-67 -13v-4q0 -2 -4 -2q-10 0 -29.5 -4t-35.5 -4q-10 -4 -17.5 -9.5t-11.5 -13.5q-18 -41 -30.5 -85t-24.5 -87q-18 -51 -33.5 -101 t-38.5 -102l8 -8q18 10 29 10q10 0 10 -3t4 -7l15 14l6 -4h6t61.5 12.5t120 27t119.5 26.5t61 12q10 0 8.5 -2t4.5 -2l137 31l-10 -8q8 -6 11 -14.5t3 -16.5q0 -10 -6 -14.5t-10 -14.5q-2 -6 3 -9t5 -9q-20 -4 -40 -15.5t-38 -15.5q-2 -6 -10 -13t6 -7q-20 0 -49 -15 q4 -4 9 -3t11 1l-303 -121q-20 0 -53 -13t-57 -23q-25 -8 -60 -11.5t-43 -3.5q-10 0 -5 2t-5 2q-8 0 -15.5 -19.5t-12.5 -46l-10 -53t-7 -40.5q-4 -23 -10 -54.5t-10.5 -62.5t-6.5 -52.5t-2 -27.5q0 -10 2 -12t2 -6q2 -12 1 -24.5t22 -41.5q8 -2 12 -4t14 -2t10.5 5t10.5 5 t16 -8t15 -8q10 0 20 3t21 3q6 0 24.5 7t30.5 11q25 8 52.5 20.5t60.5 28.5q23 12 45 34t45 22q8 0 8 -5.5t6 -5.5q4 -12 -1 -22t13 -25q-6 -6 -12 -21t-18 -28q0 -4 5 -5t11 -1q-10 -6 -32.5 -30.5t-24.5 -30.5q-4 -6 -8.5 -14.5t-16.5 -16.5q-14 -12 -37.5 -23.5 t-46 -21.5t-41 -16.5t-20.5 -6.5h-78q-10 0 -11 2t-8 4q-25 0 -53.5 13.5t-52.5 34.5q-57 39 -89 79.5t-46 81.5q-6 14 -9.5 35t-7.5 41.5t-6 34.5t-2 20zM628 1581q0 29 15.5 40t3.5 36l6 12q0 -6 -1 -9t3 -7q6 4 6 11t6 13q74 66 155 115t120 76l22 -7l-8 13h6q4 0 8 2 l-7 -7t9 -1t47 20.5t66 28.5q6 -8 10 -17.5t4 -21.5q0 -20 -18 -41q12 -18 -6 -39q-25 -23 -67 -55.5t-85 -63.5q-23 -16 -35 -29.5t-43 -37.5q-8 -4 -16 -12.5t-28.5 -29t-41 -37t-30.5 -16.5q-14 0 -45 10.5t-45 16.5q0 8 -5.5 18.5t-5.5 18.5z" />
<glyph unicode="&#xca;" horiz-adv-x="772" d="M6 317v138q8 10 8 12q10 59 22.5 103t22 77t10.5 57.5t-10 45.5q4 -2 13.5 1t13.5 13q27 74 53.5 153.5t53.5 159.5q4 12 15 32.5t11 31.5q0 10 -16.5 22.5t-28.5 16.5q0 8 -13.5 21t-17.5 30q-6 18 -13 39.5t-13 44.5v14l2 2q4 6 10 6q8 0 4 -3t4 -3q10 0 11.5 4t5.5 6 q39 10 82 22.5t90 22.5q20 29 26 45.5t11.5 24.5t14.5 9t34 1q8 0 13 -4t11 -8q4 -12 17.5 -22.5t27.5 -20.5q6 -2 5 -2t8 0q4 0 19 2t34.5 4t41 6t38.5 4q43 2 99 2t107.5 -1t89.5 -2t44 -1q2 0 20.5 -3t43 -9t50 -12t45.5 -13q18 -6 46 -15t53 -28q16 -12 14 -25.5 t10 -27.5l-25.5 -17t-21.5 -9h-270q-8 0 -17.5 -6.5t-15.5 -6.5q-18 -6 -46 -6t-46 -4q-27 -8 -60.5 -12t-74.5 -10l-10 -11q-35 6 -65 -1t-67 -13v-4q0 -2 -4 -2q-10 0 -29.5 -4t-35.5 -4q-10 -4 -17.5 -9.5t-11.5 -13.5q-18 -41 -30.5 -85t-24.5 -87q-18 -51 -33.5 -101 t-38.5 -102l8 -8q18 10 29 10q10 0 10 -3t4 -7l15 14l6 -4h6t61.5 12.5t120 27t119.5 26.5t61 12q10 0 8.5 -2t4.5 -2l137 31l-10 -8q8 -6 11 -14.5t3 -16.5q0 -10 -6 -14.5t-10 -14.5q-2 -6 3 -9t5 -9q-20 -4 -40 -15.5t-38 -15.5q-2 -6 -10 -13t6 -7q-20 0 -49 -15 q4 -4 9 -3t11 1l-303 -121q-20 0 -53 -13t-57 -23q-25 -8 -60 -11.5t-43 -3.5q-10 0 -5 2t-5 2q-8 0 -15.5 -19.5t-12.5 -46l-10 -53t-7 -40.5q-4 -23 -10 -54.5t-10.5 -62.5t-6.5 -52.5t-2 -27.5q0 -10 2 -12t2 -6q2 -12 1 -24.5t22 -41.5q8 -2 12 -4t14 -2t10.5 5t10.5 5 t16 -8t15 -8q10 0 20 3t21 3q6 0 24.5 7t30.5 11q25 8 52.5 20.5t60.5 28.5q23 12 45 34t45 22q8 0 8 -5.5t6 -5.5q4 -12 -1 -22t13 -25q-6 -6 -12 -21t-18 -28q0 -4 5 -5t11 -1q-10 -6 -32.5 -30.5t-24.5 -30.5q-4 -6 -8.5 -14.5t-16.5 -16.5q-14 -12 -37.5 -23.5 t-46 -21.5t-41 -16.5t-20.5 -6.5h-78q-10 0 -11 2t-8 4q-25 0 -53.5 13.5t-52.5 34.5q-57 39 -89 79.5t-46 81.5q-6 14 -9.5 35t-7.5 41.5t-6 34.5t-2 20zM414 1592q6 14 10 28.5t13 26.5q10 14 25.5 27.5t31.5 27.5q27 29 46.5 54.5t33.5 48.5q25 27 53.5 52.5t54.5 45.5 q29 -20 52 -57l8 8q12 -27 29.5 -64t32 -71.5t24.5 -59t10 -28.5q0 -6 -10 -10.5t4 -32.5q-14 -4 -38 -12.5t-34 -8.5q-6 0 -17 12.5t-18 18.5q-12 18 -24 39.5t-33 40.5q-27 -23 -73 -56.5t-79 -52.5q-4 4 -8 5t-4 12q-10 -4 -23.5 -13.5t-25.5 -13.5q8 4 14.5 15.5 t8.5 21.5l-2 2q-4 2 -5.5 -3t-11.5 -5t-6 3t-2 7l-12 -14q-4 0 -11 2q-8 0 -14 4z" />
<glyph unicode="&#xcb;" horiz-adv-x="772" d="M6 317v138q8 10 8 12q10 59 22.5 103t22 77t10.5 57.5t-10 45.5q4 -2 13.5 1t13.5 13q27 74 53.5 153.5t53.5 159.5q4 12 15 32.5t11 31.5q0 10 -16.5 22.5t-28.5 16.5q0 8 -13.5 21t-17.5 30q-6 18 -13 39.5t-13 44.5v14l2 2q4 6 10 6q8 0 4 -3t4 -3q10 0 11.5 4t5.5 6 q39 10 82 22.5t90 22.5q20 29 26 45.5t11.5 24.5t14.5 9t34 1q8 0 13 -4t11 -8q4 -12 17.5 -22.5t27.5 -20.5q6 -2 5 -2t8 0q4 0 19 2t34.5 4t41 6t38.5 4q43 2 99 2t107.5 -1t89.5 -2t44 -1q2 0 20.5 -3t43 -9t50 -12t45.5 -13q18 -6 46 -15t53 -28q16 -12 14 -25.5 t10 -27.5l-25.5 -17t-21.5 -9h-270q-8 0 -17.5 -6.5t-15.5 -6.5q-18 -6 -46 -6t-46 -4q-27 -8 -60.5 -12t-74.5 -10l-10 -11q-35 6 -65 -1t-67 -13v-4q0 -2 -4 -2q-10 0 -29.5 -4t-35.5 -4q-10 -4 -17.5 -9.5t-11.5 -13.5q-18 -41 -30.5 -85t-24.5 -87q-18 -51 -33.5 -101 t-38.5 -102l8 -8q18 10 29 10q10 0 10 -3t4 -7l15 14l6 -4h6t61.5 12.5t120 27t119.5 26.5t61 12q10 0 8.5 -2t4.5 -2l137 31l-10 -8q8 -6 11 -14.5t3 -16.5q0 -10 -6 -14.5t-10 -14.5q-2 -6 3 -9t5 -9q-20 -4 -40 -15.5t-38 -15.5q-2 -6 -10 -13t6 -7q-20 0 -49 -15 q4 -4 9 -3t11 1l-303 -121q-20 0 -53 -13t-57 -23q-25 -8 -60 -11.5t-43 -3.5q-10 0 -5 2t-5 2q-8 0 -15.5 -19.5t-12.5 -46l-10 -53t-7 -40.5q-4 -23 -10 -54.5t-10.5 -62.5t-6.5 -52.5t-2 -27.5q0 -10 2 -12t2 -6q2 -12 1 -24.5t22 -41.5q8 -2 12 -4t14 -2t10.5 5t10.5 5 t16 -8t15 -8q10 0 20 3t21 3q6 0 24.5 7t30.5 11q25 8 52.5 20.5t60.5 28.5q23 12 45 34t45 22q8 0 8 -5.5t6 -5.5q4 -12 -1 -22t13 -25q-6 -6 -12 -21t-18 -28q0 -4 5 -5t11 -1q-10 -6 -32.5 -30.5t-24.5 -30.5q-4 -6 -8.5 -14.5t-16.5 -16.5q-14 -12 -37.5 -23.5 t-46 -21.5t-41 -16.5t-20.5 -6.5h-78q-10 0 -11 2t-8 4q-25 0 -53.5 13.5t-52.5 34.5q-57 39 -89 79.5t-46 81.5q-6 14 -9.5 35t-7.5 41.5t-6 34.5t-2 20zM383 1669q0 16 22.5 42t33.5 40q14 -8 35.5 -11t35.5 -3q0 -4 10.5 -11t22.5 -7q0 -2 4 -13.5t-6 -17.5 q2 -8 12.5 -13.5t18.5 -11.5q-14 -25 -19.5 -54.5t-19.5 -53.5q-10 0 -27.5 -2t-27.5 -2q-8 0 -28 9t-30 11q2 14 -5 30.5t-13 31.5q-10 16 -19 36zM647 1682q6 4 22.5 11t31.5 15q2 6 0 11.5t-2 9.5q8 2 16 7t12 11q6 -8 -4 -18q23 -37 64 -45q0 -6 8 -13.5t25 -11.5v-94 q-6 -8 -14.5 -24.5t-18.5 -16.5h-23q-8 0 -32.5 10.5t-45.5 24.5q6 14 1 32.5t-9 30.5q-2 12 -13 28.5t-18 31.5zM781 1694l8 14l6 -2l-6 -14z" />
<glyph unicode="&#xcc;" horiz-adv-x="903" d="M4 121q0 8 5 18.5t7 22.5q6 4 32 10t42 6q6 0 21.5 -8t31.5 -4q45 -14 91.5 -10t84.5 2l3 4l43 291q8 20 10 43.5t16 50.5q0 6 -2 10t-4 4q16 29 20.5 62.5t12.5 58.5v2q0 2 -6 8l145 492q-6 6 -27 6q-10 0 -14 -5t-14 -9q-6 -2 -21.5 -3.5t-25.5 -1.5q-8 0 -17.5 2.5 t-17.5 2.5q-10 0 -34 -7.5t-32 -7.5t-26.5 11.5t-32.5 21.5q-18 18 -24.5 53t-16.5 58q4 4 19.5 5t19.5 17h13h16h18t-2 10q2 0 4 4.5t12 4.5q8 0 15.5 -2.5t25.5 -4.5q6 2 1 5l-5 2h10.5t26.5 -5q8 6 -4 7q12 0 28.5 -1t30.5 -1q12 2 25.5 6t30.5 4q4 8 -4 8q12 -6 23 -5 t20 1q10 0 40.5 7t63.5 11q27 0 71 3t81 3q8 0 23 1t26 1q6 0 25.5 -1t47 -4t59.5 -8t54 -9q8 -4 21.5 -14.5t21.5 -14.5q2 -6 4 -15t8 -20v-16q-12 -4 -21 -16.5t-18 -12.5q-10 0 -6 3.5t-6 3.5q-8 0 -13 -7.5t-13 -7.5q-66 0 -138.5 -8t-144.5 -20l-4 -2l-6 -5 q-4 -41 -12.5 -72.5t-18.5 -60t-22.5 -61.5t-24.5 -78q-6 -18 -15.5 -34.5t-15.5 -35.5q-2 -4 -2 -13t-4 -19q-41 -88 -59.5 -168t-44.5 -135q-6 -16 -8.5 -35t-6.5 -37q0 -6 4 -6q-4 0 -4 -6.5t-6 -8.5q-8 -45 -18.5 -87t-20.5 -89q-6 -18 -11 -42.5t-5 -35.5v-36 q20 0 48 2t34 2l358 -31h-2q-4 0 -8 -4q0 -8 18 -8q4 0 11.5 -1t11.5 -1v-19q-4 -6 -13.5 -7t-27.5 -7q8 -4 14 -8t15 -11h-10.5t-8.5 -4q0 -18 -18 -32q-10 -4 -28.5 -8.5t-27.5 -4.5q-10 0 -8 -5t-6 -5q-10 0 -3 5t-1 5q-10 0 -8 -3t0 -7q-29 0 -64 -2t-65 -6 q-53 -6 -105.5 -7t-107.5 -3q-8 0 -14.5 -7.5t-6.5 -15.5q0 -10 9.5 -43t9.5 -43q0 -8 -8.5 -16.5t-16.5 -20.5q-6 0 -13 3t-16 3q-10 18 -14 25q-14 6 -23.5 20.5t-17.5 28.5t-13 28.5t-14 20.5q-66 10 -126 11t-121 28q-39 25 -60 70q-6 4 -5 15t5 22h-6q-2 0 -2 10z M309 1337v9h23v-9h-23zM455 1786q0 10 8 22.5t2 24.5q12 0 16 4q-4 8 -11 11.5t-15 9.5v24q23 6 27.5 2t13.5 -4q8 0 16 5.5t16 11.5q4 -6 14.5 -14.5t22.5 -8.5q8 0 16.5 5t16.5 5q6 -4 4 -8t-2 -10q8 -6 22.5 -18.5t24.5 -26.5q29 -31 68 -73t63 -87q4 -6 3 -16t-1 -21 q0 -4 11.5 -10t13.5 -14q4 -8 6 -16.5t2 -18.5q0 -12 -10 -26.5t-10 -28.5h-22.5t-22.5 -4q-16 -4 -7 -11q-14 2 -34.5 11.5t-34.5 21.5q-41 41 -96.5 101.5t-110.5 115.5q-2 4 -6 16.5t-4 24.5z" />
<glyph unicode="&#xcd;" horiz-adv-x="903" d="M4 121q0 8 5 18.5t7 22.5q6 4 32 10t42 6q6 0 21.5 -8t31.5 -4q45 -14 91.5 -10t84.5 2l3 4l43 291q8 20 10 43.5t16 50.5q0 6 -2 10t-4 4q16 29 20.5 62.5t12.5 58.5v2q0 2 -6 8l145 492q-6 6 -27 6q-10 0 -14 -5t-14 -9q-6 -2 -21.5 -3.5t-25.5 -1.5q-8 0 -17.5 2.5 t-17.5 2.5q-10 0 -34 -7.5t-32 -7.5t-26.5 11.5t-32.5 21.5q-18 18 -24.5 53t-16.5 58q4 4 19.5 5t19.5 17h13h16h18t-2 10q2 0 4 4.5t12 4.5q8 0 15.5 -2.5t25.5 -4.5q6 2 1 5l-5 2h10.5t26.5 -5q8 6 -4 7q12 0 28.5 -1t30.5 -1q12 2 25.5 6t30.5 4q4 8 -4 8q12 -6 23 -5 t20 1q10 0 40.5 7t63.5 11q27 0 71 3t81 3q8 0 23 1t26 1q6 0 25.5 -1t47 -4t59.5 -8t54 -9q8 -4 21.5 -14.5t21.5 -14.5q2 -6 4 -15t8 -20v-16q-12 -4 -21 -16.5t-18 -12.5q-10 0 -6 3.5t-6 3.5q-8 0 -13 -7.5t-13 -7.5q-66 0 -138.5 -8t-144.5 -20l-4 -2l-6 -5 q-4 -41 -12.5 -72.5t-18.5 -60t-22.5 -61.5t-24.5 -78q-6 -18 -15.5 -34.5t-15.5 -35.5q-2 -4 -2 -13t-4 -19q-41 -88 -59.5 -168t-44.5 -135q-6 -16 -8.5 -35t-6.5 -37q0 -6 4 -6q-4 0 -4 -6.5t-6 -8.5q-8 -45 -18.5 -87t-20.5 -89q-6 -18 -11 -42.5t-5 -35.5v-36 q20 0 48 2t34 2l358 -31h-2q-4 0 -8 -4q0 -8 18 -8q4 0 11.5 -1t11.5 -1v-19q-4 -6 -13.5 -7t-27.5 -7q8 -4 14 -8t15 -11h-10.5t-8.5 -4q0 -18 -18 -32q-10 -4 -28.5 -8.5t-27.5 -4.5q-10 0 -8 -5t-6 -5q-10 0 -3 5t-1 5q-10 0 -8 -3t0 -7q-29 0 -64 -2t-65 -6 q-53 -6 -105.5 -7t-107.5 -3q-8 0 -14.5 -7.5t-6.5 -15.5q0 -10 9.5 -43t9.5 -43q0 -8 -8.5 -16.5t-16.5 -20.5q-6 0 -13 3t-16 3q-10 18 -14 25q-14 6 -23.5 20.5t-17.5 28.5t-13 28.5t-14 20.5q-66 10 -126 11t-121 28q-39 25 -60 70q-6 4 -5 15t5 22h-6q-2 0 -2 10z M309 1337v9h23v-9h-23zM653 1577q0 29 15.5 40t3.5 36l6 12q0 -6 -1 -9t3 -7q6 4 6 11t6 13q74 66 155 115t120 76l22 -7l-8 13h6q4 0 8 2l-7 -7t9 -1t47 20.5t66 28.5q6 -8 10 -17.5t4 -21.5q0 -20 -18 -41q12 -18 -6 -39q-25 -23 -67 -55.5t-85 -63.5q-23 -16 -35 -29.5 t-43 -37.5q-8 -4 -16 -12.5t-28.5 -29t-41 -37t-30.5 -16.5q-14 0 -45 10.5t-45 16.5q0 8 -5.5 18.5t-5.5 18.5z" />
<glyph unicode="&#xce;" horiz-adv-x="903" d="M4 121q0 8 5 18.5t7 22.5q6 4 32 10t42 6q6 0 21.5 -8t31.5 -4q45 -14 91.5 -10t84.5 2l3 4l43 291q8 20 10 43.5t16 50.5q0 6 -2 10t-4 4q16 29 20.5 62.5t12.5 58.5v2q0 2 -6 8l145 492q-6 6 -27 6q-10 0 -14 -5t-14 -9q-6 -2 -21.5 -3.5t-25.5 -1.5q-8 0 -17.5 2.5 t-17.5 2.5q-10 0 -34 -7.5t-32 -7.5t-26.5 11.5t-32.5 21.5q-18 18 -24.5 53t-16.5 58q4 4 19.5 5t19.5 17h13h16h18t-2 10q2 0 4 4.5t12 4.5q8 0 15.5 -2.5t25.5 -4.5q6 2 1 5l-5 2h10.5t26.5 -5q8 6 -4 7q12 0 28.5 -1t30.5 -1q12 2 25.5 6t30.5 4q4 8 -4 8q12 -6 23 -5 t20 1q10 0 40.5 7t63.5 11q27 0 71 3t81 3q8 0 23 1t26 1q6 0 25.5 -1t47 -4t59.5 -8t54 -9q8 -4 21.5 -14.5t21.5 -14.5q2 -6 4 -15t8 -20v-16q-12 -4 -21 -16.5t-18 -12.5q-10 0 -6 3.5t-6 3.5q-8 0 -13 -7.5t-13 -7.5q-66 0 -138.5 -8t-144.5 -20l-4 -2l-6 -5 q-4 -41 -12.5 -72.5t-18.5 -60t-22.5 -61.5t-24.5 -78q-6 -18 -15.5 -34.5t-15.5 -35.5q-2 -4 -2 -13t-4 -19q-41 -88 -59.5 -168t-44.5 -135q-6 -16 -8.5 -35t-6.5 -37q0 -6 4 -6q-4 0 -4 -6.5t-6 -8.5q-8 -45 -18.5 -87t-20.5 -89q-6 -18 -11 -42.5t-5 -35.5v-36 q20 0 48 2t34 2l358 -31h-2q-4 0 -8 -4q0 -8 18 -8q4 0 11.5 -1t11.5 -1v-19q-4 -6 -13.5 -7t-27.5 -7q8 -4 14 -8t15 -11h-10.5t-8.5 -4q0 -18 -18 -32q-10 -4 -28.5 -8.5t-27.5 -4.5q-10 0 -8 -5t-6 -5q-10 0 -3 5t-1 5q-10 0 -8 -3t0 -7q-29 0 -64 -2t-65 -6 q-53 -6 -105.5 -7t-107.5 -3q-8 0 -14.5 -7.5t-6.5 -15.5q0 -10 9.5 -43t9.5 -43q0 -8 -8.5 -16.5t-16.5 -20.5q-6 0 -13 3t-16 3q-10 18 -14 25q-14 6 -23.5 20.5t-17.5 28.5t-13 28.5t-14 20.5q-66 10 -126 11t-121 28q-39 25 -60 70q-6 4 -5 15t5 22h-6q-2 0 -2 10z M309 1337v9h23v-9h-23zM432 1534q6 14 10 28.5t13 26.5q10 14 25.5 27.5t31.5 27.5q27 29 46.5 54.5t33.5 48.5q25 27 53.5 52.5t54.5 45.5q29 -20 52 -57l8 8q12 -27 29.5 -64t32 -71.5t24.5 -59t10 -28.5q0 -6 -10 -10.5t4 -32.5q-14 -4 -38 -12.5t-34 -8.5q-6 0 -17 12.5 t-18 18.5q-12 18 -24 39.5t-33 40.5q-27 -23 -73 -56.5t-79 -52.5q-4 4 -8 5t-4 12q-10 -4 -23.5 -13.5t-25.5 -13.5q8 4 14.5 15.5t8.5 21.5l-2 2q-4 2 -5.5 -3t-11.5 -5t-6 3t-2 7l-12 -14q-4 0 -11 2q-8 0 -14 4z" />
<glyph unicode="&#xcf;" horiz-adv-x="903" d="M4 121q0 8 5 18.5t7 22.5q6 4 32 10t42 6q6 0 21.5 -8t31.5 -4q45 -14 91.5 -10t84.5 2l3 4l43 291q8 20 10 43.5t16 50.5q0 6 -2 10t-4 4q16 29 20.5 62.5t12.5 58.5v2q0 2 -6 8l145 492q-6 6 -27 6q-10 0 -14 -5t-14 -9q-6 -2 -21.5 -3.5t-25.5 -1.5q-8 0 -17.5 2.5 t-17.5 2.5q-10 0 -34 -7.5t-32 -7.5t-26.5 11.5t-32.5 21.5q-18 18 -24.5 53t-16.5 58q4 4 19.5 5t19.5 17h13h16h18t-2 10q2 0 4 4.5t12 4.5q8 0 15.5 -2.5t25.5 -4.5q6 2 1 5l-5 2h10.5t26.5 -5q8 6 -4 7q12 0 28.5 -1t30.5 -1q12 2 25.5 6t30.5 4q4 8 -4 8q12 -6 23 -5 t20 1q10 0 40.5 7t63.5 11q27 0 71 3t81 3q8 0 23 1t26 1q6 0 25.5 -1t47 -4t59.5 -8t54 -9q8 -4 21.5 -14.5t21.5 -14.5q2 -6 4 -15t8 -20v-16q-12 -4 -21 -16.5t-18 -12.5q-10 0 -6 3.5t-6 3.5q-8 0 -13 -7.5t-13 -7.5q-66 0 -138.5 -8t-144.5 -20l-4 -2l-6 -5 q-4 -41 -12.5 -72.5t-18.5 -60t-22.5 -61.5t-24.5 -78q-6 -18 -15.5 -34.5t-15.5 -35.5q-2 -4 -2 -13t-4 -19q-41 -88 -59.5 -168t-44.5 -135q-6 -16 -8.5 -35t-6.5 -37q0 -6 4 -6q-4 0 -4 -6.5t-6 -8.5q-8 -45 -18.5 -87t-20.5 -89q-6 -18 -11 -42.5t-5 -35.5v-36 q20 0 48 2t34 2l358 -31h-2q-4 0 -8 -4q0 -8 18 -8q4 0 11.5 -1t11.5 -1v-19q-4 -6 -13.5 -7t-27.5 -7q8 -4 14 -8t15 -11h-10.5t-8.5 -4q0 -18 -18 -32q-10 -4 -28.5 -8.5t-27.5 -4.5q-10 0 -8 -5t-6 -5q-10 0 -3 5t-1 5q-10 0 -8 -3t0 -7q-29 0 -64 -2t-65 -6 q-53 -6 -105.5 -7t-107.5 -3q-8 0 -14.5 -7.5t-6.5 -15.5q0 -10 9.5 -43t9.5 -43q0 -8 -8.5 -16.5t-16.5 -20.5q-6 0 -13 3t-16 3q-10 18 -14 25q-14 6 -23.5 20.5t-17.5 28.5t-13 28.5t-14 20.5q-66 10 -126 11t-121 28q-39 25 -60 70q-6 4 -5 15t5 22h-6q-2 0 -2 10z M309 1337v9h23v-9h-23zM500 1626q0 16 22.5 42t32.5 40q14 -8 35.5 -11t36.5 -3q0 -4 10 -11.5t22 -7.5q0 -2 4.5 -13t-6.5 -17q2 -8 12.5 -13.5t18.5 -11.5q-14 -25 -19 -54.5t-20 -54.5q-10 0 -27.5 -2t-27.5 -2q-8 0 -27.5 9.5t-29.5 11.5q2 14 -5.5 30.5t-13.5 30.5 q-10 16 -18 37zM766 1628q6 4 22.5 11.5t30.5 15.5q2 6 0 11t-2 9q8 2 16.5 7.5t12.5 11.5q6 -8 -4 -19q23 -37 63 -45q0 -6 8.5 -13t24.5 -11v-95q-6 -8 -14.5 -24.5t-18.5 -16.5h-22q-8 0 -33 10.5t-45 24.5q6 14 1 32.5t-9 31.5q-2 12 -13.5 28.5t-17.5 30.5zM899 1640 l8 15l6 -2l-6 -15z" />
<glyph unicode="&#xd0;" horiz-adv-x="923" d="M27 774q6 6 12 15.5t6 21.5q18 2 28.5 15.5t26.5 21.5q10 -4 16.5 -12.5t18.5 -8.5q8 0 24.5 2t33.5 2q25 4 9 4.5t17 4.5q31 6 74 12q6 2 12 2q14 53 31 111q29 96 50.5 183t36.5 152.5t15 85.5q0 6 -3 21.5t-5 30.5q-2 6 -12 16t-10 19q0 16 12 16q8 -4 13 -7t13 -3 t35 -8.5t43 -14.5q2 0 7.5 -8t13.5 -8t31.5 -12.5t35.5 -20.5q31 -18 70 -43t76 -52.5t68.5 -58t54.5 -61.5q49 -72 70.5 -147.5t21.5 -141.5q0 -4 -2 -23.5t-6 -45t-7.5 -53t-9.5 -46.5q-10 -35 -26.5 -65.5t-34.5 -65.5q-6 -14 -10.5 -33.5t-12.5 -38.5 q-16 -39 -40.5 -76.5t-45.5 -68.5q-25 -33 -58.5 -76t-72.5 -96q-10 -12 -28.5 -26.5t-38.5 -30.5q-18 -20 -52 -51t-53 -39q-6 -2 -7 -7.5t-5 -9.5q0 4 1 7t-5 8q-4 -6 -9.5 -17.5t-15.5 -19.5q-14 -12 -40.5 -27.5t-37.5 -15.5q-8 0 -15 2t-19 2l-11 10v-2q0 -4 -6 -4 q-10 0 -29.5 18.5t-33.5 30.5q-4 6 -1 8t1 4q-12 18 -27.5 48t-15.5 42q0 6 12 31t12 35t-13 22.5t-17 22.5q-6 8 -11 29q-6 14 2 41q0 4 -5 6t-5 12t3 6t7 0q4 49 18.5 106.5t28.5 121.5q2 10 19 67q2 8 4 19l-94 -7q-37 0 -52.5 6.5t-23.5 18.5t-18.5 33.5t-38.5 58.5z M285 179q-2 -7 2 -19q8 4 12 9t8 7q4 -4 0 -7t4 -3t7 10t4 14l4 -4h6q8 0 33.5 22.5t52 49.5t49 50.5t25.5 25.5q12 12 25 34.5t22 34.5q16 8 34.5 30t36 46.5t30.5 49t24 40.5q-14 -14 -31 -34l-29 -37q37 61 77 121.5t69 123.5q8 18 18 48t20.5 63t17.5 68.5t7 66.5 t-5 64.5t-17.5 64.5t-31 57.5t-46.5 41.5l4 4q-25 18 -56.5 43.5t-62.5 35.5q6 -59 -5 -121.5t-27.5 -127t-35.5 -127.5l-20 -70q29 4 55 -2q27 -6 58.5 -15.5t56.5 -39.5q-12 -14 -4 -32t12 -36q-2 0 -4 4l-6 2q-6 -6 -10 -25.5t-27 -19.5l-182 -12q-4 -16 -8 -33 q-20 -76 -43 -160q-12 -27 -30 -63.5t-18 -59.5q-2 -4 -4 -3t-4 -3q-6 -35 -13 -71.5t-17 -73.5q-2 2 -3 14q-10 -16 -16 -22q0 -6 3 -11.5t-1 -9.5q-10 8 -18 8q0 -4 -2 -11zM604 496v2v-2z" />
<glyph unicode="&#xd1;" horiz-adv-x="1112" d="M2 160q0 10 6 34.5t12 38.5q4 20 5.5 43t7.5 48q29 104 59.5 211.5t65.5 212.5v30q18 82 41.5 165t46.5 169q12 41 28.5 99.5t30.5 107.5q2 8 3 19.5t-1 21.5q-2 8 -1 18.5t-1 22.5q14 41 32.5 56.5t35.5 27.5l18 -4q18 18 31 18q10 0 17 -4t16 -10q10 -2 21 -2t24 -4 q12 -6 24.5 -20.5t18.5 -26.5q2 -8 0 -20.5t0 -18.5q0 -25 -3 -46.5t-8 -43.5q-4 -18 8.5 -41t16.5 -45v-15.5t4 -17.5q18 -66 41 -134.5t41 -134.5q23 -84 51.5 -190.5t55.5 -196.5q2 -4 8 -11t12 -15q14 12 16 27.5t9 31.5q-6 -16 -8.5 -34.5t1.5 -39.5q12 49 22.5 97.5 t25.5 89.5l114 477q12 35 24.5 48t8.5 38q14 27 23.5 69t27.5 56q10 35 23.5 69.5t27.5 71.5q-4 4 -8 2t-4 -8q0 12 10 23q0 -10 7 -15q6 6 6 23q0 20 -13 28q18 -4 35 -2t37 -2q8 6 8 13q-6 8 -20 2l20 4q12 -6 20.5 -4t18.5 -15q4 0 8 4.5t9 10.5q8 -14 8 -31q6 -4 11 -9 t13 -7q0 -14 6.5 -20.5t12.5 -11.5t11 -10.5t5 -15.5q0 -4 -10 -22.5t-22.5 -45t-27 -55t-22.5 -51.5t-20.5 -57.5t-20.5 -63.5q-6 -8 -7 -22.5t-3 -26.5q-12 -37 -33.5 -92t-21.5 -96q0 -4 -3 -9.5t-10 -15.5q-16 -53 -20 -114q-10 -20 -19.5 -53t-9.5 -44q0 -8 -6 -34.5 t-12 -49.5q0 -2 6 -10q-4 -35 -14.5 -81t-16.5 -83q-6 -6 -7 -4t-5 -4q0 -2 2 -2q0 -2 4 -2q-2 -18 -5 -36.5t-11 -37.5q0 -2 8 -10q-12 -84 -20.5 -157.5t-14.5 -176.5q-10 -8 -23.5 -16t-23.5 -8h-51q-6 0 -14.5 5t-16.5 9q-27 14 -48.5 36.5t-41.5 41.5 q-12 10 -23.5 28.5t-15.5 32.5q-12 33 -27.5 86t-33.5 94q4 4 4 9q-12 12 -20.5 42.5t-14.5 47.5q4 4 0 12q-4 10 -8 10q-6 10 0 19q-16 45 -36 96t-32 94q-18 63 -38.5 132t-39.5 138q-2 4 -5 8.5t-9 8.5l-6 -2q-18 -86 -42 -180.5t-48 -174.5q-2 -6 -7.5 -14t-11.5 -12 q-14 -39 -26.5 -82t-24.5 -82q-2 -4 -4 -5t-6 -5q-4 -20 -9 -35.5t-8 -38.5q-4 -6 -7 -10t-5 -10q-14 -63 -32.5 -113.5t-14.5 -93.5q2 -12 1 -37t11 -29q-10 -10 -16 0q-6 -8 -8 -15t-12 -7t-20.5 -2t-20.5 -2q-8 0 -15.5 8t-17.5 8q-6 0 -5 0t-5 -4q-8 18 -23.5 41.5 t-32.5 50.5q6 8 4 12q-2 12 -7 34t-5 28zM29 250l8 -4l4 12l-4 4zM37 276l14 11q0 6 -1 15t-1 15q-4 -12 -8 -23t-4 -18zM53 344h8l5 23h-7zM106 508q6 18 10.5 41t8.5 41q-6 -18 -10 -41t-9 -41zM131 600l13.5 31.5t7.5 27.5t-3.5 10.5t-3.5 4.5q0 -18 -5 -37t-9 -37z M445 1714q45 39 92 81t102 42q10 0 28.5 -10t35.5 -16q-6 6 -12 0q6 -4 5 -6t9 -2q12 0 8 3t6 3q8 0 24.5 -31t39.5 -43q61 -45 133 -45q10 0 52 8t73 16q4 -14 0 -18q0 -4 2 -4q0 -2 1 -2t1 -2q8 -6 10 -11.5t2 -11.5q0 -5 10 -28q-14 -12 -25 -26.5t-24 -29.5q0 -4 5 -7 t12 -3q-16 -8 -55.5 -22.5t-61.5 -14.5q-70 0 -144.5 49.5t-132.5 120.5q-6 8 -19 6t-24 -2q-14 0 -49 -20.5t-41 -30.5q-4 4 -4 10t-12 6q-8 0 -20.5 -8t-18.5 -8q0 10 8 19q-4 8 -10 19t-6 19zM1024 1395l8 26h8l-8 -26h-8zM1044 1448l9 12l6 -2l-6 -12z" />
<glyph unicode="&#xd2;" horiz-adv-x="995" d="M4 481q0 6 2 51.5t8 100.5q4 23 13.5 59.5t21.5 69.5q4 8 4 21.5t6 25.5q10 35 25.5 73t26.5 74q14 10 26 48q6 25 28.5 69.5t55.5 100t72 112.5t80 103.5t81 77t72 30.5q10 0 33 -10t33 -10q6 0 20.5 7t26.5 7q6 0 22.5 -3t32.5 -7q12 -6 29.5 -6t30.5 -2 q27 -6 51 -19.5t47 -28.5q31 -20 52.5 -42.5t43.5 -43.5q0 -4 -1 -12t3 -12q12 -20 28.5 -47t33.5 -47q6 -27 14 -56.5t14 -58.5q10 -31 10.5 -69t-6.5 -70q4 -4 6.5 -10.5t2.5 -14.5q-2 -18 -13.5 -37.5t11.5 -44.5q8 10 12 10q-6 -14 -12.5 -36.5t-22.5 -28.5 q12 -12 8 -21q-35 -96 -84 -192t-102 -185.5t-112.5 -167t-119.5 -137.5q-10 -12 -25 -20t-28 -14q-4 -4 -10 -14.5t-16 -14.5q-33 -23 -51.5 -34t-35 -17t-33 -7t-44.5 -1h-78q-8 0 -18.5 7t-22.5 17q-8 4 -22.5 7t-24.5 14q-25 20 -50.5 44.5t-49.5 55.5q-14 20 -27.5 44 t-26.5 44q-10 33 -23.5 69.5t-17.5 71.5q-6 31 -8 74t-2 53zM180 375q0 -20 5 -60.5t14.5 -83.5t23 -76.5t29.5 -43.5q43 -2 93 29.5t99.5 77.5t95.5 98.5t78 91.5q10 12 11.5 26.5t9.5 18.5q10 12 19.5 20t17.5 21q4 8 5 20t7 18q2 10 14.5 15.5t24.5 9.5q0 4 -2 9t0 9 q41 78 85 162t73 172q2 12 6 30.5t7 39t8.5 38.5t13.5 30q-2 0 -15 12q0 33 -5 76t-11 77q0 2 -8.5 26t-21.5 49.5t-32.5 48t-40.5 22.5q-39 0 -63.5 -17.5t-75.5 -56.5q-10 -6 -20.5 -10t-14.5 -6q-23 -18 -41 -46t-45 -44q-6 -4 -7 -11.5t-7 -13.5q-6 4 -9 8t-9 0 q-6 -10 -13.5 -20.5t-17.5 -10.5q-8 0 -4 3.5t-4 3.5q-10 0 -10.5 -7.5t-10.5 -7.5q-8 0 -6 4t-6 4q-10 0 -22.5 -19t-20.5 -34v-18q-12 -31 -23.5 -56.5t-23.5 -50.5q-10 -23 -18.5 -52.5t-16.5 -47.5q-8 -20 -20.5 -38.5t-18.5 -37.5q-14 -41 -21.5 -84t-17.5 -84 q-12 -39 -19.5 -89t-11.5 -83q-2 -12 -4 -32.5t-2 -28.5zM486 1806q0 10 8 22.5t2 24.5q12 0 16 4q-4 8 -11 11.5t-15 9.5v24q23 6 27.5 2t13.5 -4q8 0 16 5.5t16 11.5q4 -6 14.5 -14.5t22.5 -8.5q8 0 16.5 5t16.5 5q6 -4 4 -8t-2 -10q8 -6 22.5 -18.5t24.5 -26.5 q29 -31 68 -73t63 -87q4 -6 3 -16t-1 -21q0 -4 11.5 -10t13.5 -14q4 -8 6 -16.5t2 -18.5q0 -12 -10 -26.5t-10 -28.5h-22.5t-22.5 -4q-16 -4 -7 -11q-14 2 -34.5 11.5t-34.5 21.5q-41 41 -96.5 101.5t-110.5 115.5q-2 4 -6 16.5t-4 24.5z" />
<glyph unicode="&#xd3;" horiz-adv-x="997" d="M4 481q0 6 2 51.5t8 100.5q4 23 13.5 59.5t21.5 69.5q4 8 4 21.5t6 25.5q10 35 25.5 73t26.5 74q14 10 26 48q6 25 28.5 69.5t55.5 100t72 112.5t80 103.5t81 77t72 30.5q10 0 33 -10t33 -10q6 0 20.5 7t26.5 7q6 0 22.5 -3t32.5 -7q12 -6 29.5 -6t30.5 -2 q27 -6 51 -19.5t47 -28.5q31 -20 52.5 -42.5t43.5 -43.5q0 -4 -1 -12t3 -12q12 -20 28.5 -47t33.5 -47q6 -27 14 -56.5t14 -58.5q10 -31 10.5 -69t-6.5 -70q4 -4 6.5 -10.5t2.5 -14.5q-2 -18 -13.5 -37.5t11.5 -44.5q8 10 12 10q-6 -14 -12.5 -36.5t-22.5 -28.5 q12 -12 8 -21q-35 -96 -84 -192t-102 -185.5t-112.5 -167t-119.5 -137.5q-10 -12 -25 -20t-28 -14q-4 -4 -10 -14.5t-16 -14.5q-33 -23 -51.5 -34t-35 -17t-33 -7t-44.5 -1h-78q-8 0 -18.5 7t-22.5 17q-8 4 -22.5 7t-24.5 14q-25 20 -50.5 44.5t-49.5 55.5q-14 20 -27.5 44 t-26.5 44q-10 33 -23.5 69.5t-17.5 71.5q-6 31 -8 74t-2 53zM180 375q0 -20 5 -60.5t14.5 -83.5t23 -76.5t29.5 -43.5q43 -2 93 29.5t99.5 77.5t95.5 98.5t78 91.5q10 12 11.5 26.5t9.5 18.5q10 12 19.5 20t17.5 21q4 8 5 20t7 18q2 10 14.5 15.5t24.5 9.5q0 4 -2 9t0 9 q41 78 85 162t73 172q2 12 6 30.5t7 39t8.5 38.5t13.5 30q-2 0 -15 12q0 33 -5 76t-11 77q0 2 -8.5 26t-21.5 49.5t-32.5 48t-40.5 22.5q-39 0 -63.5 -17.5t-75.5 -56.5q-10 -6 -20.5 -10t-14.5 -6q-23 -18 -41 -46t-45 -44q-6 -4 -7 -11.5t-7 -13.5q-6 4 -9 8t-9 0 q-6 -10 -13.5 -20.5t-17.5 -10.5q-8 0 -4 3.5t-4 3.5q-10 0 -10.5 -7.5t-10.5 -7.5q-8 0 -6 4t-6 4q-10 0 -22.5 -19t-20.5 -34v-18q-12 -31 -23.5 -56.5t-23.5 -50.5q-10 -23 -18.5 -52.5t-16.5 -47.5q-8 -20 -20.5 -38.5t-18.5 -37.5q-14 -41 -21.5 -84t-17.5 -84 q-12 -39 -19.5 -89t-11.5 -83q-2 -12 -4 -32.5t-2 -28.5zM723 1559q0 29 15.5 40t3.5 36l6 12q0 -6 -1 -9t3 -7q6 4 6 11t6 13q74 66 155 115t120 76l22 -7l-8 13h6q4 0 8 2l-7 -7t9 -1t47 20.5t66 28.5q6 -8 10 -17.5t4 -21.5q0 -20 -18 -41q12 -18 -6 -39 q-25 -23 -67 -55.5t-85 -63.5q-23 -16 -35 -29.5t-43 -37.5q-8 -4 -16 -12.5t-28.5 -29t-41 -37t-30.5 -16.5q-14 0 -45 10.5t-45 16.5q0 8 -5.5 18.5t-5.5 18.5z" />
<glyph unicode="&#xd4;" horiz-adv-x="995" d="M4 481q0 6 2 51.5t8 100.5q4 23 13.5 59.5t21.5 69.5q4 8 4 21.5t6 25.5q10 35 25.5 73t26.5 74q14 10 26 48q6 25 28.5 69.5t55.5 100t72 112.5t80 103.5t81 77t72 30.5q10 0 33 -10t33 -10q6 0 20.5 7t26.5 7q6 0 22.5 -3t32.5 -7q12 -6 29.5 -6t30.5 -2 q27 -6 51 -19.5t47 -28.5q31 -20 52.5 -42.5t43.5 -43.5q0 -4 -1 -12t3 -12q12 -20 28.5 -47t33.5 -47q6 -27 14 -56.5t14 -58.5q10 -31 10.5 -69t-6.5 -70q4 -4 6.5 -10.5t2.5 -14.5q-2 -18 -13.5 -37.5t11.5 -44.5q8 10 12 10q-6 -14 -12.5 -36.5t-22.5 -28.5 q12 -12 8 -21q-35 -96 -84 -192t-102 -185.5t-112.5 -167t-119.5 -137.5q-10 -12 -25 -20t-28 -14q-4 -4 -10 -14.5t-16 -14.5q-33 -23 -51.5 -34t-35 -17t-33 -7t-44.5 -1h-78q-8 0 -18.5 7t-22.5 17q-8 4 -22.5 7t-24.5 14q-25 20 -50.5 44.5t-49.5 55.5q-14 20 -27.5 44 t-26.5 44q-10 33 -23.5 69.5t-17.5 71.5q-6 31 -8 74t-2 53zM180 375q0 -20 5 -60.5t14.5 -83.5t23 -76.5t29.5 -43.5q43 -2 93 29.5t99.5 77.5t95.5 98.5t78 91.5q10 12 11.5 26.5t9.5 18.5q10 12 19.5 20t17.5 21q4 8 5 20t7 18q2 10 14.5 15.5t24.5 9.5q0 4 -2 9t0 9 q41 78 85 162t73 172q2 12 6 30.5t7 39t8.5 38.5t13.5 30q-2 0 -15 12q0 33 -5 76t-11 77q0 2 -8.5 26t-21.5 49.5t-32.5 48t-40.5 22.5q-39 0 -63.5 -17.5t-75.5 -56.5q-10 -6 -20.5 -10t-14.5 -6q-23 -18 -41 -46t-45 -44q-6 -4 -7 -11.5t-7 -13.5q-6 4 -9 8t-9 0 q-6 -10 -13.5 -20.5t-17.5 -10.5q-8 0 -4 3.5t-4 3.5q-10 0 -10.5 -7.5t-10.5 -7.5q-8 0 -6 4t-6 4q-10 0 -22.5 -19t-20.5 -34v-18q-12 -31 -23.5 -56.5t-23.5 -50.5q-10 -23 -18.5 -52.5t-16.5 -47.5q-8 -20 -20.5 -38.5t-18.5 -37.5q-14 -41 -21.5 -84t-17.5 -84 q-12 -39 -19.5 -89t-11.5 -83q-2 -12 -4 -32.5t-2 -28.5zM463 1551q6 14 10 28.5t13 26.5q10 14 25.5 27.5t31.5 27.5q27 29 46.5 54.5t33.5 48.5q25 27 53.5 52.5t54.5 45.5q29 -20 52 -57l8 8q12 -27 29.5 -64t32 -71.5t24.5 -59t10 -28.5q0 -6 -10 -10.5t4 -32.5 q-14 -4 -38 -12.5t-34 -8.5q-6 0 -17 12.5t-18 18.5q-12 18 -24 39.5t-33 40.5q-27 -23 -73 -56.5t-79 -52.5q-4 4 -8 5t-4 12q-10 -4 -23.5 -13.5t-25.5 -13.5q8 4 14.5 15.5t8.5 21.5l-2 2q-4 2 -5.5 -3t-11.5 -5t-6 3t-2 7l-12 -14q-4 0 -11 2q-8 0 -14 4z" />
<glyph unicode="&#xd5;" horiz-adv-x="1011" d="M4 481q0 6 2 51.5t8 100.5q4 23 13.5 59.5t21.5 69.5q4 8 4 21.5t6 25.5q10 35 25.5 73t26.5 74q14 10 26 48q6 25 28.5 69.5t55.5 100t72 112.5t80 103.5t81 77t72 30.5q10 0 33 -10t33 -10q6 0 20.5 7t26.5 7q6 0 22.5 -3t32.5 -7q12 -6 29.5 -6t30.5 -2 q27 -6 51 -19.5t47 -28.5q31 -20 52.5 -42.5t43.5 -43.5q0 -4 -1 -12t3 -12q12 -20 28.5 -47t33.5 -47q6 -27 14 -56.5t14 -58.5q10 -31 10.5 -69t-6.5 -70q4 -4 6.5 -10.5t2.5 -14.5q-2 -18 -13.5 -37.5t11.5 -44.5q8 10 12 10q-6 -14 -12.5 -36.5t-22.5 -28.5 q12 -12 8 -21q-35 -96 -84 -192t-102 -185.5t-112.5 -167t-119.5 -137.5q-10 -12 -25 -20t-28 -14q-4 -4 -10 -14.5t-16 -14.5q-33 -23 -51.5 -34t-35 -17t-33 -7t-44.5 -1h-78q-8 0 -18.5 7t-22.5 17q-8 4 -22.5 7t-24.5 14q-25 20 -50.5 44.5t-49.5 55.5q-14 20 -27.5 44 t-26.5 44q-10 33 -23.5 69.5t-17.5 71.5q-6 31 -8 74t-2 53zM180 375q0 -20 5 -60.5t14.5 -83.5t23 -76.5t29.5 -43.5q43 -2 93 29.5t99.5 77.5t95.5 98.5t78 91.5q10 12 11.5 26.5t9.5 18.5q10 12 19.5 20t17.5 21q4 8 5 20t7 18q2 10 14.5 15.5t24.5 9.5q0 4 -2 9t0 9 q41 78 85 162t73 172q2 12 6 30.5t7 39t8.5 38.5t13.5 30q-2 0 -15 12q0 33 -5 76t-11 77q0 2 -8.5 26t-21.5 49.5t-32.5 48t-40.5 22.5q-39 0 -63.5 -17.5t-75.5 -56.5q-10 -6 -20.5 -10t-14.5 -6q-23 -18 -41 -46t-45 -44q-6 -4 -7 -11.5t-7 -13.5q-6 4 -9 8t-9 0 q-6 -10 -13.5 -20.5t-17.5 -10.5q-8 0 -4 3.5t-4 3.5q-10 0 -10.5 -7.5t-10.5 -7.5q-8 0 -6 4t-6 4q-10 0 -22.5 -19t-20.5 -34v-18q-12 -31 -23.5 -56.5t-23.5 -50.5q-10 -23 -18.5 -52.5t-16.5 -47.5q-8 -20 -20.5 -38.5t-18.5 -37.5q-14 -41 -21.5 -84t-17.5 -84 q-12 -39 -19.5 -89t-11.5 -83q-2 -12 -4 -32.5t-2 -28.5zM457 1687q45 39 92 81t102 42q10 0 28.5 -10t35.5 -16q-6 6 -12 0q6 -4 5 -6t9 -2q12 0 8 3t6 3q8 0 24.5 -31t39.5 -43q61 -45 133 -45q10 0 52 8t73 16q4 -14 0 -18q0 -4 2 -4q0 -2 1 -2t1 -2q8 -6 10 -11.5 t2 -11.5q0 -5 10 -28q-14 -12 -25 -26.5t-24 -29.5q0 -4 5 -7t12 -3q-16 -8 -55.5 -22.5t-61.5 -14.5q-70 0 -144.5 49.5t-132.5 120.5q-6 8 -19 6t-24 -2q-14 0 -49 -20.5t-41 -30.5q-4 4 -4 10t-12 6q-8 0 -20.5 -8t-18.5 -8q0 10 8 19q-4 8 -10 19t-6 19z" />
<glyph unicode="&#xd6;" horiz-adv-x="995" d="M4 481q0 6 2 51.5t8 100.5q4 23 13.5 59.5t21.5 69.5q4 8 4 21.5t6 25.5q10 35 25.5 73t26.5 74q14 10 26 48q6 25 28.5 69.5t55.5 100t72 112.5t80 103.5t81 77t72 30.5q10 0 33 -10t33 -10q6 0 20.5 7t26.5 7q6 0 22.5 -3t32.5 -7q12 -6 29.5 -6t30.5 -2 q27 -6 51 -19.5t47 -28.5q31 -20 52.5 -42.5t43.5 -43.5q0 -4 -1 -12t3 -12q12 -20 28.5 -47t33.5 -47q6 -27 14 -56.5t14 -58.5q10 -31 10.5 -69t-6.5 -70q4 -4 6.5 -10.5t2.5 -14.5q-2 -18 -13.5 -37.5t11.5 -44.5q8 10 12 10q-6 -14 -12.5 -36.5t-22.5 -28.5 q12 -12 8 -21q-35 -96 -84 -192t-102 -185.5t-112.5 -167t-119.5 -137.5q-10 -12 -25 -20t-28 -14q-4 -4 -10 -14.5t-16 -14.5q-33 -23 -51.5 -34t-35 -17t-33 -7t-44.5 -1h-78q-8 0 -18.5 7t-22.5 17q-8 4 -22.5 7t-24.5 14q-25 20 -50.5 44.5t-49.5 55.5q-14 20 -27.5 44 t-26.5 44q-10 33 -23.5 69.5t-17.5 71.5q-6 31 -8 74t-2 53zM180 375q0 -20 5 -60.5t14.5 -83.5t23 -76.5t29.5 -43.5q43 -2 93 29.5t99.5 77.5t95.5 98.5t78 91.5q10 12 11.5 26.5t9.5 18.5q10 12 19.5 20t17.5 21q4 8 5 20t7 18q2 10 14.5 15.5t24.5 9.5q0 4 -2 9t0 9 q41 78 85 162t73 172q2 12 6 30.5t7 39t8.5 38.5t13.5 30q-2 0 -15 12q0 33 -5 76t-11 77q0 2 -8.5 26t-21.5 49.5t-32.5 48t-40.5 22.5q-39 0 -63.5 -17.5t-75.5 -56.5q-10 -6 -20.5 -10t-14.5 -6q-23 -18 -41 -46t-45 -44q-6 -4 -7 -11.5t-7 -13.5q-6 4 -9 8t-9 0 q-6 -10 -13.5 -20.5t-17.5 -10.5q-8 0 -4 3.5t-4 3.5q-10 0 -10.5 -7.5t-10.5 -7.5q-8 0 -6 4t-6 4q-10 0 -22.5 -19t-20.5 -34v-18q-12 -31 -23.5 -56.5t-23.5 -50.5q-10 -23 -18.5 -52.5t-16.5 -47.5q-8 -20 -20.5 -38.5t-18.5 -37.5q-14 -41 -21.5 -84t-17.5 -84 q-12 -39 -19.5 -89t-11.5 -83q-2 -12 -4 -32.5t-2 -28.5zM497 1648q0 16 22.5 42t33.5 40q14 -8 35.5 -11t35.5 -3q0 -4 10.5 -11t22.5 -7q0 -2 4 -13.5t-6 -17.5q2 -8 12.5 -13.5t18.5 -11.5q-14 -25 -19.5 -54.5t-19.5 -53.5q-10 0 -27.5 -2t-27.5 -2q-8 0 -28 9t-30 11 q2 14 -5 30.5t-13 31.5q-10 16 -19 36zM761 1661q6 4 22.5 11t31.5 15q2 6 0 11.5t-2 9.5q8 2 16 7t12 11q6 -8 -4 -18q23 -37 64 -45q0 -6 8 -13.5t25 -11.5v-94q-6 -8 -14.5 -24.5t-18.5 -16.5h-23q-8 0 -32.5 10.5t-45.5 24.5q6 14 1 32.5t-9 30.5q-2 12 -13 28.5 t-18 31.5zM895 1673l8 14l6 -2l-6 -14z" />
<glyph unicode="&#xd7;" horiz-adv-x="958" d="M31 154q6 10 8 16t12 12l-12 11q12 14 24.5 40.5t28.5 40.5q8 4 19.5 15.5t23.5 25.5t21.5 19.5t5.5 19.5q4 0 10 1t8 7q6 2 12.5 7.5t10.5 17.5q14 10 22 24.5t21 28.5q4 2 13 10.5t21.5 17.5t22.5 22.5t10 21.5q0 2 -16 20.5t-42 43t-53.5 53t-49.5 53.5 q-33 35 -44.5 67.5t-29.5 67.5h8q6 12 7 17.5t-5 19.5l8 6q4 4 1 6t-3 11q0 8 8.5 19t14.5 19h18q8 0 30.5 -14t33.5 -29q12 -10 19 -30.5t20 -36.5q4 -6 6 -5t8 -1q45 -25 76.5 -71t66.5 -81q8 -8 16.5 -15t18.5 -16q41 33 89 76t87 82q70 70 102.5 99.5t71.5 29.5 q8 0 12.5 -6t12.5 -14q6 0 11 5l11 11q-6 -23 1.5 -30t7.5 -13q0 -27 -18.5 -49.5t-31.5 -34.5q0 -12 5 -18h-3q-2 0 -4 2t-4 2q-33 -37 -62.5 -65.5t-68.5 -74.5q6 0 12.5 -5t10.5 10q-33 -31 -63.5 -66t-63.5 -59q8 -14 31.5 -34t37.5 -30q31 -23 64 -47.5t74 -54.5 q39 -29 84 -67t77 -75q2 -6 2 -12t3 -14q4 -7 14 -19q-6 -16 -20.5 -29.5t-2.5 -29.5q-4 0 -8 -4t-12 -4q-12 0 -20.5 -6t-18.5 -6q-6 0 -58.5 37.5t-120 89t-136 102.5t-101.5 80q-14 -4 -24.5 -18.5t-22.5 -18.5v-4q0 -2 6 -2q-6 -2 -17 -5t1 -16h-6q-2 0 -9 6l-221 -217 q-6 0 -6 2t-4 7q-29 -6 -36 1t-9 7q-10 0 -8 -3t-8 -3q-8 0 -8.5 17t-2.5 32q-4 0 -13 3t-15 -9zM606 571q14 8 26.5 18.5t16.5 20.5h-20q-4 -8 -10.5 -19t-12.5 -20zM680 631l6 12l8 -2l-6 -14z" />
<glyph unicode="&#xd8;" horiz-adv-x="1198" d="M23 399q0 10 1 21.5t1 23.5q8 59 16 115.5t39 124.5q10 16 18 55t23 62q33 61 59.5 116.5t85.5 118.5q-6 -4 2 -10q6 8 13.5 17.5t15.5 13.5l8 8q0 8 -4 8t-4 4l-10 -10l10 16q10 -10 14 -10q6 16 32 31.5t38 30.5q8 4 15 17t5 26h11.5t7.5 4q20 18 44.5 43.5t45.5 46.5 l20 14q21 14 46.5 30.5t49 30t38.5 13.5q6 0 36.5 -4t57.5 -10q4 -2 6 -7.5t12 -5.5t5 3t5 3t20.5 -5t14.5 -11q6 -4 8 -16.5t2 -18.5q2 -6 7.5 -6t11.5 -4v-18q-12 0 -23 -11q-8 8 -18 18.5t-8 16.5q-10 8 -19.5 16.5t-19.5 8.5q-53 0 -104.5 -19.5t-106.5 -79.5 q-37 -35 -62.5 -54t-50.5 -69q-6 -8 -7 -19t-7 -19q-31 -51 -49.5 -87t-32.5 -67t-27.5 -58.5t-29.5 -60.5q-6 -6 -7.5 -17t-3.5 -18q-8 -12 -19 -31.5t-19 -39.5q-6 -16 -14.5 -39t-14.5 -45q-4 -18 -13.5 -39t-11.5 -47q-4 -16 -7 -39t-6 -46.5t-4 -40t-1 -22.5 q0 -10 2 -6t6 0q-6 -39 -1 -79t15 -72q12 -57 82 -105q8 0 17 12q53 106 106 214t105 208q68 113 136 236t126 223q35 63 78 144t75 143q2 2 8.5 7t10.5 13q-29 18 -53.5 46t-47.5 20q10 0 24.5 4t20.5 12q-14 8 -30 8q0 2 4 4q0 2 1 5.5t1 5.5q43 -29 94 -72q2 0 8 8 q-2 4 1 11.5t3 9.5q10 8 23.5 24.5t23 36t16.5 36.5t13 30q10 -2 17.5 2t12.5 9l10 10t15 5t13.5 -3t13.5 -3t12 -2t2 2v-2q0 -2 -2 -4q8 -8 18.5 -12t16.5 -13q0 -31 -10 -64.5t-27 -68.5q-6 -10 -15 -25.5t-19.5 -30.5t-16.5 -27.5t-6 -18.5q0 -4 10 -24.5t24.5 -50.5 t30 -60.5t27.5 -53.5q6 -6 6 -17t2 -15q4 -8 14.5 -18.5t14.5 -22.5q12 -59 22.5 -110.5t10.5 -125.5q0 -86 -39 -173t-98.5 -171t-136 -161.5t-154.5 -147.5q-12 -12 -32.5 -24.5t-41.5 -24.5q-12 -12 -29.5 -27.5t-38.5 -25.5q-53 -23 -105 -50.5t-112 -27.5 q-4 0 -31.5 -2t-50.5 -2q-12 -12 -17 -33t-3 -31l-8 2q-6 -2 -8 -9t-7 -13q-8 12 -20 0v20q-6 0 -8 2t-10 2q-10 0 -12.5 -5t-2.5 -9q-6 0 -10 7t-8 13q-2 4 -10.5 4t-16.5 7q0 14 5 34.5t5 30.5q0 20 -12 23.5t-33 17.5q-27 18 -50 49t-40 62q-14 31 -24.5 66.5t-18.5 68.5 q-2 12 -10 31.5t-10 40.5q-6 29 -7 69.5t-1 50.5zM438 86q4 0 7.5 -3t13.5 -3t27.5 12t27.5 14q49 8 105.5 49.5t111.5 77.5q29 16 54.5 47t37.5 46q6 4 15.5 8t13.5 8q20 20 41.5 50t46.5 59q4 2 8 5t13 3q4 4 4 6v6q-10 -6 -15 0q4 4 4 6t11 2q10 0 24.5 21.5t26.5 47 t22.5 47t14.5 23.5q4 6 9 12.5t7 8.5q6 18 11 43t10.5 49.5t7.5 42t2 23.5q0 10 -2 20t-4 17q0 -4 1 -7.5t-5 -7.5q-2 23 1 37t-1 27q-4 20 -9.5 38.5t-7.5 39.5q0 4 -10 14q4 6 5 4t7 2q-10 27 -19 57.5t-22 59.5q-6 8 -12 17t-8 20q-57 -86 -99.5 -165t-72.5 -147 q-23 -20 -41 -55q-90 -180 -180.5 -344t-182.5 -338zM797 1393v10l43 -6v-11zM872 1366l9 -6l4 4l-6 8z" />
<glyph unicode="&#xd9;" horiz-adv-x="1210" d="M4 260q0 2 1 20.5t2 43t5 50t8 46.5q2 12 7.5 29.5t9.5 35.5v15l110 364l154 365q18 8 24.5 31.5t18.5 44.5q6 4 14.5 13t10.5 21q4 12 4 25.5t4 28.5q0 -2 2 -2q2 -2 10 -2q10 0 9 -3.5t8 -3.5q8 0 13 7.5t11 7.5q10 0 8 -4t8 -4q8 0 8.5 2t10.5 2q31 0 41 -23.5 t10 -36.5q0 -16 -9 -56t-21.5 -79t-23.5 -67.5t-13 -22.5q-2 -6 1 -9t1 -9q-23 -66 -49.5 -131.5t-53.5 -129.5q-6 -12 -7 -32.5t-5 -34.5q-16 -45 -32.5 -88t-33.5 -88q-2 -6 -3 -21.5t-3 -27.5q-12 -33 -29.5 -72t-27.5 -76q-4 -25 -8 -57.5t-6.5 -63t-3.5 -53t-1 -27.5 q0 -16 2.5 -30.5t24.5 -14.5q25 0 61.5 23.5t59.5 48.5q2 2 12 2q55 66 122 136.5t116 154.5q25 39 54.5 76t57.5 73q2 0 2 9.5t7 13.5q23 29 48 64.5t44 70.5q10 16 23.5 44t28.5 53.5t29.5 48t26.5 28.5q-4 23 21.5 55.5t36.5 53.5q4 10 13 28.5t17.5 43t18.5 49t18 47.5 q8 16 16.5 35.5t20.5 37.5q6 -4 12 1.5t17 5.5q8 0 4 -5.5t4 -5.5q10 0 9 3t-1 5q10 -4 24.5 -0.5t24.5 3.5q2 0 13.5 -9.5t23.5 -24t24.5 -28.5t20.5 -22q2 -6 2 -16.5v-20.5q0 -29 -9 -74t-21.5 -92t-24.5 -92t-16 -76q-4 -23 -16.5 -51.5t-8.5 -48.5q-14 -57 -21.5 -98.5 t-15.5 -90.5q-4 -29 -10 -65.5t-11.5 -69.5t-10.5 -57.5t-5 -28.5v-123q0 -10 -5 -8t-5 -8q0 -33 11.5 -64t23.5 -49q14 -16 33.5 -26.5t35.5 -22.5q4 -16 27 -43q-6 -8 -7 -22.5t-11 -14.5h-21q-4 -4 6 -12q-6 0 -12 -6.5t-14 -6.5q-10 0 -10.5 4.5t-10.5 4.5 q-6 0 -43 20.5t-59 36.5q-12 8 -24.5 22.5t-20.5 22.5q-4 2 -9.5 7t-9.5 -1v6q0 2 4 6q-18 20 -28 56.5t-21 75.5q0 10 2 14q-2 10 -7 22.5t-5 22.5v315q-2 6 -1 7t-3 6q-59 -78 -119.5 -168t-125 -177.5t-137.5 -160t-157 -111.5q-6 -4 -14 0q-8 -6 -26.5 -10t-38 -5 t-40 -1h-30.5q-12 0 -24.5 8t-24 19.5t-22.5 21.5t-17 10q-8 0 -4 -3t-4 -3q-10 0 -35 29.5t-33 50.5q-10 14 -16 33q-2 6 -3.5 17t-5.5 24q-4 6 -6 13t-4 15q0 4 -1 14.5t-1 20.5zM588 1724q0 10 8 22.5t2 24.5q12 0 16 4q-4 8 -11 11.5t-15 9.5v24q23 6 27.5 2t13.5 -4 q8 0 16 5.5t16 11.5q4 -6 14.5 -14.5t22.5 -8.5q8 0 16.5 5t16.5 5q6 -4 4 -8t-2 -10q8 -6 22.5 -18.5t24.5 -26.5q29 -31 68 -73t63 -87q4 -6 3 -16t-1 -21q0 -4 11.5 -10t13.5 -14q4 -8 6 -16.5t2 -18.5q0 -12 -10 -26.5t-10 -28.5h-22.5t-22.5 -4q-16 -4 -7 -11 q-14 2 -34.5 11.5t-34.5 21.5q-41 41 -96.5 101.5t-110.5 115.5q-2 4 -6 16.5t-4 24.5z" />
<glyph unicode="&#xda;" horiz-adv-x="1210" d="M4 260q0 2 1 20.5t2 43t5 50t8 46.5q2 12 7.5 29.5t9.5 35.5v15l110 364l154 365q18 8 24.5 31.5t18.5 44.5q6 4 14.5 13t10.5 21q4 12 4 25.5t4 28.5q0 -2 2 -2q2 -2 10 -2q10 0 9 -3.5t8 -3.5q8 0 13 7.5t11 7.5q10 0 8 -4t8 -4q8 0 8.5 2t10.5 2q31 0 41 -23.5 t10 -36.5q0 -16 -9 -56t-21.5 -79t-23.5 -67.5t-13 -22.5q-2 -6 1 -9t1 -9q-23 -66 -49.5 -131.5t-53.5 -129.5q-6 -12 -7 -32.5t-5 -34.5q-16 -45 -32.5 -88t-33.5 -88q-2 -6 -3 -21.5t-3 -27.5q-12 -33 -29.5 -72t-27.5 -76q-4 -25 -8 -57.5t-6.5 -63t-3.5 -53t-1 -27.5 q0 -16 2.5 -30.5t24.5 -14.5q25 0 61.5 23.5t59.5 48.5q2 2 12 2q55 66 122 136.5t116 154.5q25 39 54.5 76t57.5 73q2 0 2 9.5t7 13.5q23 29 48 64.5t44 70.5q10 16 23.5 44t28.5 53.5t29.5 48t26.5 28.5q-4 23 21.5 55.5t36.5 53.5q4 10 13 28.5t17.5 43t18.5 49t18 47.5 q8 16 16.5 35.5t20.5 37.5q6 -4 12 1.5t17 5.5q8 0 4 -5.5t4 -5.5q10 0 9 3t-1 5q10 -4 24.5 -0.5t24.5 3.5q2 0 13.5 -9.5t23.5 -24t24.5 -28.5t20.5 -22q2 -6 2 -16.5v-20.5q0 -29 -9 -74t-21.5 -92t-24.5 -92t-16 -76q-4 -23 -16.5 -51.5t-8.5 -48.5q-14 -57 -21.5 -98.5 t-15.5 -90.5q-4 -29 -10 -65.5t-11.5 -69.5t-10.5 -57.5t-5 -28.5v-123q0 -10 -5 -8t-5 -8q0 -33 11.5 -64t23.5 -49q14 -16 33.5 -26.5t35.5 -22.5q4 -16 27 -43q-6 -8 -7 -22.5t-11 -14.5h-21q-4 -4 6 -12q-6 0 -12 -6.5t-14 -6.5q-10 0 -10.5 4.5t-10.5 4.5 q-6 0 -43 20.5t-59 36.5q-12 8 -24.5 22.5t-20.5 22.5q-4 2 -9.5 7t-9.5 -1v6q0 2 4 6q-18 20 -28 56.5t-21 75.5q0 10 2 14q-2 10 -7 22.5t-5 22.5v315q-2 6 -1 7t-3 6q-59 -78 -119.5 -168t-125 -177.5t-137.5 -160t-157 -111.5q-6 -4 -14 0q-8 -6 -26.5 -10t-38 -5 t-40 -1h-30.5q-12 0 -24.5 8t-24 19.5t-22.5 21.5t-17 10q-8 0 -4 -3t-4 -3q-10 0 -35 29.5t-33 50.5q-10 14 -16 33q-2 6 -3.5 17t-5.5 24q-4 6 -6 13t-4 15q0 4 -1 14.5t-1 20.5zM764 1557q0 29 15.5 40t3.5 36l6 12q0 -6 -1 -9t3 -7q6 4 6 11t6 13q74 66 155 115t120 76 l22 -7l-8 13h6q4 0 8 2l-7 -7t9 -1t47 20.5t66 28.5q6 -8 10 -17.5t4 -21.5q0 -20 -18 -41q12 -18 -6 -39q-25 -23 -67 -55.5t-85 -63.5q-23 -16 -35 -29.5t-43 -37.5q-8 -4 -16 -12.5t-28.5 -29t-41 -37t-30.5 -16.5q-14 0 -45 10.5t-45 16.5q0 8 -5.5 18.5t-5.5 18.5z" />
</font>
</defs>
</svg>
